<svg width="20" height="20" viewBox="0 0 20 20" fill="none" xmlns="http://www.w3.org/2000/svg">
<path d="M19.9935 9.99519C19.9935 15.5064 15.516 19.9905 9.99519 19.9905C4.48399 19.9905 0 15.5064 0 9.99519C0 4.47746 4.48399 0 9.99519 0C15.516 0 19.9935 4.47746 19.9935 9.99519ZM14.1879 6.40415C13.2726 6.55445 11.3553 6.78186 9.99519 6.78186C8.64775 6.78186 6.71781 6.55445 5.79903 6.40415C5.71581 6.39457 5.63609 6.37191 5.53982 6.37191C5.30631 6.37191 5.05973 6.57056 5.05973 6.91299C5.05973 7.1722 5.21352 7.39308 5.4566 7.45711C5.76723 7.54686 7.93066 7.79648 8.206 7.84441C8.47174 7.90192 8.63816 8.13237 8.64775 8.45563C8.66342 8.95183 8.64775 10.5328 8.52271 11.2499C8.40771 11.97 7.57866 15.4073 7.54033 15.5546C7.441 15.9227 7.66187 16.2525 8.03958 16.2525C8.30184 16.2525 8.48438 16.1053 8.5837 15.7497C8.75622 15.0522 9.34871 12.6741 9.54388 12.0981C9.65889 11.682 9.75822 11.5348 9.99519 11.5348C10.2257 11.5348 10.3311 11.682 10.4687 12.0981C10.6317 12.671 11.2434 15.0522 11.4098 15.7497C11.4995 16.1053 11.6917 16.2525 11.9539 16.2525C12.3316 16.2525 12.546 15.9227 12.4436 15.5546C12.4149 15.4073 11.5761 11.97 11.4643 11.2499C11.3553 10.5328 11.3553 8.95183 11.3553 8.45563C11.3553 8.13237 11.5122 7.90192 11.7874 7.84441C12.0563 7.79648 14.2263 7.54991 14.5303 7.45711C14.78 7.38698 14.9338 7.1722 14.9338 6.91299C14.9338 6.57056 14.6776 6.37191 14.4472 6.37191C14.3574 6.37191 14.2711 6.39457 14.1879 6.40415ZM8.75971 4.91596C8.75971 5.59122 9.31342 6.15452 9.99519 6.15452C10.68 6.15452 11.2337 5.59122 11.2337 4.91596C11.2337 4.22764 10.68 3.67393 9.99519 3.67393C9.31342 3.67393 8.75971 4.22764 8.75971 4.91596Z" fill="white" fill-opacity="0.85"/>
</svg>
