<svg width="34" height="33" viewBox="0 0 34 33" fill="none" xmlns="http://www.w3.org/2000/svg">
<path d="M33.4542 8.03544V19.8069C33.4542 24.313 30.8686 26.9941 26.397 26.9941H16.832L11.3795 31.9849C10.611 32.699 10.1081 32.9999 9.47177 32.9999C8.54639 32.9999 7.99923 32.3355 7.99923 31.3028V26.9941H6.89298C2.69359 26.9941 0 24.3233 0 19.8069V8.03544C0 3.51906 2.58569 0.837891 7.05719 0.837891H26.397C30.8686 0.837891 33.4542 3.52932 33.4542 8.03544ZM8.94949 17.7033C8.40634 17.7033 7.9517 18.1762 7.9517 18.7496C7.9517 19.3081 8.41102 19.7803 8.94949 19.7803H19.0212C19.583 19.7803 20.023 19.3081 20.023 18.7496C20.023 18.1714 19.583 17.7033 19.0212 17.7033H8.94949ZM8.94949 12.7904C8.40634 12.7904 7.9517 13.2681 7.9517 13.8162C7.9517 14.3848 8.41102 14.8673 8.94949 14.8673H24.3746C24.9366 14.8673 25.3857 14.3848 25.3857 13.8162C25.3857 13.2585 24.9366 12.7904 24.3746 12.7904H8.94949ZM8.94949 7.87746C8.40634 7.87746 7.9517 8.3456 7.9517 8.90328C7.9517 9.47191 8.41102 9.94413 8.94949 9.94413H24.3746C24.9366 9.94413 25.3857 9.47191 25.3857 8.90328C25.3857 8.3456 24.9366 7.87746 24.3746 7.87746H8.94949Z" fill="white" fill-opacity="0.85"/>
</svg>
