<svg width="25" height="25" viewBox="0 0 25 25" fill="none" xmlns="http://www.w3.org/2000/svg">
<g clip-path="url(#clip0_820_3475)">
<path d="M24.5987 6.64388V15.2994C24.5987 18.6127 22.6975 20.5841 19.4096 20.5841H12.3765L8.36728 24.2538C7.80223 24.7789 7.43245 25.0001 6.96454 25.0001C6.28411 25.0001 5.88178 24.5116 5.88178 23.7522V20.5841H5.06837C1.98058 20.5841 0 18.6203 0 15.2994V6.64388C0 3.32301 1.90124 1.35156 5.18911 1.35156H19.4096C22.6975 1.35156 24.5987 3.33055 24.5987 6.64388ZM6.5805 13.7526C6.18113 13.7526 5.84684 14.1003 5.84684 14.5219C5.84684 14.9326 6.18457 15.2798 6.5805 15.2798H13.9862C14.3993 15.2798 14.7228 14.9326 14.7228 14.5219C14.7228 14.0968 14.3993 13.7526 13.9862 13.7526H6.5805ZM6.5805 10.1402C6.18113 10.1402 5.84684 10.4914 5.84684 10.8944C5.84684 11.3125 6.18457 11.6673 6.5805 11.6673H17.9225C18.3357 11.6673 18.666 11.3125 18.666 10.8944C18.666 10.4844 18.3357 10.1402 17.9225 10.1402H6.5805ZM6.5805 6.52772C6.18113 6.52772 5.84684 6.87194 5.84684 7.282C5.84684 7.70011 6.18457 8.04733 6.5805 8.04733H17.9225C18.3357 8.04733 18.666 7.70011 18.666 7.282C18.666 6.87194 18.3357 6.52772 17.9225 6.52772H6.5805Z" fill="white" fill-opacity="0.85"/>
</g>
<defs>
<clipPath id="clip0_820_3475">
<rect width="25" height="25" fill="white"/>
</clipPath>
</defs>
</svg>
