<svg width="53" height="33" viewBox="0 0 53 33" fill="none" xmlns="http://www.w3.org/2000/svg">
<g clip-path="url(#clip0_1246_1292)">
<path d="M0 11.4681C0 17.7969 4.68899 22.8408 10.6805 22.8408C13.4986 22.8408 16.1747 21.7226 18.1403 19.5337H18.7797C17.4061 24.0304 13.2381 27.7895 8.07551 29.3361C7.31769 29.5742 6.773 29.7883 6.44146 30.0738C6.06255 30.383 5.8731 30.7638 5.8731 31.311C5.8731 32.3102 6.60723 33.0001 7.6966 33.0001C8.47808 33.0001 9.02277 32.8574 10.0648 32.5243C13.3092 31.4538 16.2694 29.5741 18.5429 27.1709C21.7162 23.8401 23.6818 19.3909 23.6818 14.109C23.6818 5.18688 18.0456 0.0239258 11.4383 0.0239258C4.92582 0.0239258 0 5.02034 0 11.4681ZM28.4418 11.4681C28.4418 17.7969 33.1071 22.8408 39.1223 22.8408C41.9405 22.8408 44.5929 21.7226 46.5822 19.5337H47.1979C45.8479 24.0304 41.68 27.7895 36.4936 29.3361C35.7358 29.5742 35.2149 29.7883 34.8834 30.0738C34.5044 30.383 34.2912 30.7638 34.2912 31.311C34.2912 32.3102 35.049 33.0001 36.1621 33.0001C36.8962 33.0001 37.4646 32.8574 38.4829 32.5243C41.7511 31.4538 44.6875 29.5741 46.9374 27.1709C50.1581 23.8401 52.1236 19.3909 52.1236 14.109C52.1236 5.18688 46.4874 0.0239258 39.8802 0.0239258C33.3678 0.0239258 28.4418 5.02034 28.4418 11.4681Z" fill="#FAFAFF"/>
</g>
<defs>
<clipPath id="clip0_1246_1292">
<rect width="53" height="33" fill="white"/>
</clipPath>
</defs>
</svg>
