<svg width="23" height="22" viewBox="0 0 23 22" fill="none" xmlns="http://www.w3.org/2000/svg">
<g clip-path="url(#clip0_534_3131)">
<path d="M18.4271 5.52047L17.0662 5.82014C16.5174 4.67954 15.5556 3.78276 14.3724 3.31737C15.1699 4.04739 15.7792 4.97844 16.1231 6.02952C15.6309 6.1452 15.2118 6.3614 14.8905 6.65853C14.4591 5.1207 13.3305 3.88653 11.8649 3.31311C13.151 4.49287 13.9558 6.18796 13.9558 8.06636C13.9558 9.94639 13.151 11.6423 11.865 12.8223C12.8061 12.4552 13.6079 11.8133 14.1744 10.9937L14.1812 14.2666L13.5262 14.4149C13.3839 14.446 13.2453 14.4804 13.1107 14.5182C12.9049 14.5398 12.6958 14.55 12.4844 14.55C12.0574 14.55 11.6397 14.5084 11.2362 14.4265C10.8334 14.5084 10.4164 14.55 9.99013 14.55C9.56088 14.55 9.14118 14.508 8.7358 14.4256C8.33108 14.508 7.91227 14.55 7.48404 14.55C3.91905 14.55 1.0127 11.6412 1.0127 8.06636C1.0127 4.49479 3.91619 1.58594 7.48404 1.58594C7.91168 1.58594 8.3299 1.62786 8.73407 1.71011C9.13906 1.62787 9.55831 1.58594 9.98728 1.58594C10.4136 1.58594 10.8303 1.62752 11.2331 1.70936C11.6366 1.62753 12.0544 1.58594 12.4816 1.58594C15.1424 1.58594 17.4375 3.20939 18.4271 5.52047ZM2.37508 8.06636C2.37508 10.2363 3.70848 12.0803 5.60485 12.8228C4.3188 11.6426 3.51555 9.94667 3.51555 8.06636C3.51555 6.1869 4.3175 4.49225 5.60207 3.31294C3.70608 4.05435 2.37508 5.89481 2.37508 8.06636ZM4.88731 8.06636C4.88731 10.228 6.20529 12.0661 8.08858 12.8147C6.80579 11.6349 6.00374 9.94234 6.00374 8.06636C6.00374 6.19153 6.80343 4.50058 8.08404 3.32159C6.20379 4.06957 4.88731 5.90378 4.88731 8.06636ZM7.37509 8.06636C7.37509 9.99165 8.41927 11.6602 9.98095 12.5311C11.5427 11.6597 12.592 9.99008 12.5901 8.06636C12.5901 6.13916 11.5406 4.47274 9.98003 3.60345C8.41928 4.47274 7.37509 6.13916 7.37509 8.06636Z" fill="white" fill-opacity="0.85"/>
<path d="M21.6613 10.2651V7.18799C21.6613 6.65641 21.2109 6.28243 20.6864 6.39225L16.4567 7.32363C15.8446 7.45754 15.5083 7.7997 15.5083 8.3415L15.5205 14.8579C15.5205 15.1903 15.4027 15.3814 15.1186 15.439L13.801 15.7264C12.0733 16.0972 11.2305 16.9841 11.2305 18.3364C11.2305 19.6972 12.2739 20.6587 13.7488 20.6587C15.202 20.6587 16.9486 19.5511 16.9486 17.2289V12.2532C16.9486 11.9277 16.9999 11.8706 17.2885 11.8036L21.0805 10.9682C21.4363 10.8848 21.6613 10.615 21.6613 10.2651Z" fill="white" fill-opacity="0.85"/>
</g>
<defs>
<clipPath id="clip0_534_3131">
<rect width="23" height="22" fill="white"/>
</clipPath>
</defs>
</svg>
