<svg width="43" height="42" viewBox="0 0 43 42" fill="none" xmlns="http://www.w3.org/2000/svg">
<rect width="43" height="42" rx="21" fill="white" fill-opacity="0.07"/>
<rect width="43" height="42" rx="21" fill="#5E5E5E" fill-opacity="0.18" style="mix-blend-mode:color-dodge"/>
<g clip-path="url(#clip0_324_1668)">
<path d="M28.9228 24.5165C29.2069 26.863 29.234 26.8803 31.6355 27.2132C31.9253 27.2585 32.1312 27.4707 32.1312 27.7538C32.1312 28.0272 31.9315 28.2429 31.6514 28.2944C29.1767 28.7698 29.2136 28.7503 28.9228 31.0133C28.8842 31.2964 28.6525 31.4993 28.376 31.4993C28.0831 31.4993 27.8581 31.2805 27.8323 30.9875C27.5611 28.7028 27.534 28.6793 25.1392 28.2975C24.8298 28.2429 24.627 28.0401 24.627 27.7538C24.627 27.4964 24.8169 27.2714 25.0939 27.2163C27.5837 26.7445 27.5642 26.7614 27.8323 24.5263C27.8581 24.2303 28.0831 24.0146 28.376 24.0146C28.6654 24.0146 28.8971 24.2236 28.9228 24.5165Z" fill="white" fill-opacity="0.85"/>
<path d="M18.0869 11.3919C18.4128 13.0978 18.3391 13.0175 20.045 13.3504C20.2829 13.3921 20.4436 13.5719 20.4436 13.8C20.4436 14.0312 20.2829 14.2145 20.045 14.2531C18.3391 14.5923 18.4128 14.512 18.0869 16.2241C18.0483 16.4527 17.8619 16.6098 17.6369 16.6098C17.4088 16.6098 17.2224 16.4589 17.1807 16.2241C16.8548 14.512 16.9316 14.5923 15.2195 14.2531C14.9847 14.2145 14.8271 14.0281 14.8271 13.8C14.8271 13.5719 14.9878 13.3921 15.2195 13.3535C16.9316 13.0175 16.8548 13.0978 17.1807 11.3919C17.2224 11.154 17.4057 11 17.6369 11C17.8619 11 18.0483 11.154 18.0869 11.3919Z" fill="white" fill-opacity="0.85"/>
<path d="M20.5735 28.1769C20.5735 29.8064 19.2396 31.1464 17.6266 31.1464C15.994 31.1464 14.6602 29.8095 14.6602 28.1769C14.6602 26.5607 15.994 25.23 17.6266 25.23C19.2396 25.23 20.5735 26.5638 20.5735 28.1769Z" fill="white" fill-opacity="0.85"/>
<path d="M16.5293 19.4319C16.5293 20.954 15.2736 22.1999 13.768 22.1999C12.246 22.1999 11 20.954 11 19.4319C11 17.9232 12.246 16.6772 13.768 16.6772C15.2736 16.6772 16.5293 17.9232 16.5293 19.4319Z" fill="white" fill-opacity="0.85"/>
<path d="M31.7709 16.9205C31.7709 19.2325 30.1552 21.1631 27.988 21.6398C28.0423 21.3572 28.0679 21.0646 28.0679 20.7659C28.0679 17.9499 25.7872 15.6693 22.9682 15.6693C22.7281 15.6693 22.492 15.6859 22.2627 15.7237C22.791 13.6368 24.6845 12.0933 26.937 12.0933C29.6105 12.0933 31.7709 14.2567 31.7709 16.9205Z" fill="white" fill-opacity="0.85"/>
<path d="M22.9682 24.6177C25.1001 24.6177 26.8263 22.9043 26.8263 20.7657C26.8263 18.6338 25.1001 16.9106 22.9682 16.9106C20.8362 16.9106 19.1162 18.6338 19.1162 20.7657C19.1162 22.9012 20.8393 24.6177 22.9682 24.6177Z" fill="white" fill-opacity="0.85"/>
</g>
<defs>
<clipPath id="clip0_324_1668">
<rect width="21.4921" height="20.5092" fill="white" transform="translate(11 11)"/>
</clipPath>
</defs>
</svg>
