<svg width="42" height="32" viewBox="0 0 42 32" fill="none" xmlns="http://www.w3.org/2000/svg">
<path d="M10.3566 0C6.43902 0 2.38223 1.81293 0.671194 4.7082C0.387262 5.19502 0.325928 5.50306 0.325928 6.33357V30.1633C0.325928 31.3204 1.02044 31.9651 2.19947 31.9651C2.85697 31.9651 3.31007 31.7702 3.95179 31.3452C6.02787 29.755 8.67593 28.9312 11.3185 28.9312C13.8973 28.9312 16.3297 29.792 18.2027 31.331C18.4317 31.5168 18.7007 31.6074 18.935 31.6074C19.3652 31.6074 19.7154 31.3024 19.7154 30.827V5.1299C19.7154 4.64919 19.6587 4.4712 19.3133 3.97347C17.6338 1.52341 14.1789 0 10.3566 0ZM31.6495 0C27.8327 0 24.3778 1.52341 22.6982 3.97347C22.3528 4.4712 22.2963 4.64919 22.2963 5.1299V30.827C22.2963 31.3024 22.6463 31.6074 23.0766 31.6074C23.3109 31.6074 23.5918 31.5168 23.8089 31.331C25.6819 29.792 28.1143 28.9312 30.693 28.9312C33.3357 28.9312 35.9837 29.755 38.0597 31.3452C38.7016 31.7702 39.1546 31.9651 39.8066 31.9651C40.9911 31.9651 41.6856 31.3204 41.6856 30.1633V6.33357C41.6856 5.50306 41.6243 5.1834 41.3404 4.7082C39.6293 1.81293 35.5726 0 31.6495 0Z" fill="white" fill-opacity="0.85"/>
</svg>
