<svg width="26" height="20" viewBox="0 0 26 20" fill="none" xmlns="http://www.w3.org/2000/svg">
<g clip-path="url(#clip0_820_3370)">
<path d="M6.20944 0C3.7843 0 1.27295 1.13308 0.213736 2.94262C0.0379686 3.24689 0 3.43941 0 3.95848V18.8521C0 19.5752 0.429936 19.9782 1.15981 19.9782C1.56684 19.9782 1.84733 19.8563 2.24458 19.5907C3.52977 18.5969 5.16905 18.082 6.80493 18.082C8.40131 18.082 9.90709 18.62 11.0666 19.5819C11.2083 19.698 11.3748 19.7547 11.5199 19.7547C11.7862 19.7547 12.003 19.564 12.003 19.2669V3.20619C12.003 2.90574 11.9679 2.7945 11.7541 2.48342C10.7144 0.952134 8.57563 0 6.20944 0ZM19.3908 0C17.028 0 14.8892 0.952134 13.8495 2.48342C13.6357 2.7945 13.6007 2.90574 13.6007 3.20619V19.2669C13.6007 19.564 13.8174 19.7547 14.0837 19.7547C14.2288 19.7547 14.4027 19.698 14.5371 19.5819C15.6966 18.62 17.2023 18.082 18.7987 18.082C20.4346 18.082 22.0739 18.5969 23.359 19.5907C23.7564 19.8563 24.0368 19.9782 24.4404 19.9782C25.1737 19.9782 25.6036 19.5752 25.6036 18.8521V3.95848C25.6036 3.43941 25.5657 3.23963 25.3899 2.94262C24.3307 1.13308 21.8194 0 19.3908 0Z" fill="white" fill-opacity="0.85"/>
</g>
<defs>
<clipPath id="clip0_820_3370">
<rect width="26" height="20" fill="white"/>
</clipPath>
</defs>
</svg>
