<svg width="314" height="58" viewBox="0 0 314 58" fill="none" xmlns="http://www.w3.org/2000/svg">
<path d="M313.3 0.700195V6.7998C313.3 15.7722 313.299 22.4598 312.866 27.7607C312.461 32.7225 311.68 36.4156 310.195 39.583L309.889 40.21C306.982 45.9153 302.397 50.5869 296.759 53.6016L296.21 53.8887C292.903 55.5739 289.053 56.4338 283.761 56.8662C278.46 57.2993 271.772 57.2998 262.8 57.2998H51.2002C42.2278 57.2998 35.5402 57.2993 30.2393 56.8662C24.9466 56.4338 21.0974 55.5739 17.79 53.8887C11.9006 50.8878 7.11216 46.0994 4.11133 40.21C2.42612 36.9026 1.56623 33.0534 1.13379 27.7607C0.700684 22.4598 0.700195 15.7722 0.700195 6.7998V0.700195H313.3Z" fill="#FF0000" fill-opacity="0.18" style="mix-blend-mode:saturation"/>
<path d="M313.3 0.700195V6.7998C313.3 15.7722 313.299 22.4598 312.866 27.7607C312.461 32.7225 311.68 36.4156 310.195 39.583L309.889 40.21C306.982 45.9153 302.397 50.5869 296.759 53.6016L296.21 53.8887C292.903 55.5739 289.053 56.4338 283.761 56.8662C278.46 57.2993 271.772 57.2998 262.8 57.2998H51.2002C42.2278 57.2998 35.5402 57.2993 30.2393 56.8662C24.9466 56.4338 21.0974 55.5739 17.79 53.8887C11.9006 50.8878 7.11216 46.0994 4.11133 40.21C2.42612 36.9026 1.56623 33.0534 1.13379 27.7607C0.700684 22.4598 0.700195 15.7722 0.700195 6.7998V0.700195H313.3Z" fill="#959595" fill-opacity="0.25"/>
<path d="M313.3 0.700195V6.7998C313.3 15.7722 313.299 22.4598 312.866 27.7607C312.461 32.7225 311.68 36.4156 310.195 39.583L309.889 40.21C306.982 45.9153 302.397 50.5869 296.759 53.6016L296.21 53.8887C292.903 55.5739 289.053 56.4338 283.761 56.8662C278.46 57.2993 271.772 57.2998 262.8 57.2998H51.2002C42.2278 57.2998 35.5402 57.2993 30.2393 56.8662C24.9466 56.4338 21.0974 55.5739 17.79 53.8887C11.9006 50.8878 7.11216 46.0994 4.11133 40.21C2.42612 36.9026 1.56623 33.0534 1.13379 27.7607C0.700684 22.4598 0.700195 15.7722 0.700195 6.7998V0.700195H313.3Z" stroke="url(#paint0_linear_1351_1280)" stroke-width="1.4"/>
<defs>
<linearGradient id="paint0_linear_1351_1280" x1="21.9973" y1="-1.28597e-05" x2="28.0258" y2="75.1359" gradientUnits="userSpaceOnUse">
<stop stop-color="white" stop-opacity="0.4"/>
<stop offset="0.405687" stop-color="white" stop-opacity="0.01"/>
<stop offset="0.574372" stop-color="white" stop-opacity="0.01"/>
<stop offset="1" stop-color="white" stop-opacity="0.1"/>
</linearGradient>
</defs>
</svg>
