<svg width="372" height="44" viewBox="0 0 372 44" fill="none" xmlns="http://www.w3.org/2000/svg">
<g filter="url(#filter0_iiii_525_2424)">
<g clip-path="url(#clip0_525_2424)">
<rect width="372" height="44" rx="22" fill="black" fill-opacity="0.1" style="mix-blend-mode:luminosity"/>
<rect width="372" height="44" rx="22" fill="#D0D0D0" fill-opacity="0.5" style="mix-blend-mode:color-burn"/>
<g filter="url(#filter1_d_525_2424)">
<rect x="4" y="4" width="118.667" height="36" rx="18" fill="white" fill-opacity="0.06" style="mix-blend-mode:lighten" shape-rendering="crispEdges"/>
<rect x="4" y="4" width="118.667" height="36" rx="18" fill="#5E5E5E" fill-opacity="0.18" style="mix-blend-mode:color-dodge" shape-rendering="crispEdges"/>
<rect x="4.25" y="4.25" width="118.167" height="35.5" rx="17.75" stroke="url(#paint0_linear_525_2424)" stroke-width="0.5" shape-rendering="crispEdges"/>
<g clip-path="url(#clip1_525_2424)">
<path d="M40.9266 27.9159V24.0053C40.9266 23.6993 41.1311 23.4998 41.4346 23.4998H43.988C44.2982 23.4998 44.4895 23.6993 44.4895 24.0053V27.9159H40.9266ZM36.8886 27.5236C36.8886 28.448 37.4429 28.9867 38.3732 28.9867H47.0495C47.9798 28.9867 48.5274 28.448 48.5274 27.5236V22.2428L43.1039 17.6603C42.8532 17.4475 42.5562 17.4542 42.3121 17.6603L36.8886 22.2428V27.5236ZM35.3975 22.1031C35.5822 22.1031 35.734 22.0033 35.8726 21.8903L42.4771 16.2969C42.5497 16.2371 42.6354 16.2038 42.7081 16.2038C42.7872 16.2038 42.8664 16.2371 42.939 16.2969L49.5501 21.8903C49.682 22.0033 49.8338 22.1031 50.0186 22.1031C50.3748 22.1031 50.586 21.8437 50.586 21.571C50.586 21.4181 50.5266 21.2584 50.3748 21.1387L43.4998 15.3192C43.249 15.1064 42.9785 15 42.7081 15C42.4375 15 42.167 15.1064 41.9163 15.3192L35.0412 21.1387C34.8961 21.2584 34.8301 21.4181 34.8301 21.571C34.8301 21.8437 35.0412 22.1031 35.3975 22.1031ZM47.0033 18.5715L48.6594 19.9815V16.982C48.6594 16.6893 48.4746 16.5031 48.1843 16.5031H47.4783C47.1946 16.5031 47.0033 16.6893 47.0033 16.982V18.5715Z" fill="white" fill-opacity="0.96"/>
</g>
<path d="M55.2627 27V17.8403H56.9004V21.6489H61.3564V17.8403H62.9878V27H61.3564V23.0264H56.9004V27H55.2627ZM68.085 27.1396C67.3952 27.1396 66.8006 26.9958 66.3013 26.708C65.8019 26.416 65.4168 26.0013 65.146 25.4639C64.8794 24.9264 64.7461 24.2832 64.7461 23.5342V23.5215C64.7461 22.7809 64.8815 22.1419 65.1523 21.6045C65.4232 21.0628 65.8062 20.6481 66.3013 20.3604C66.8006 20.0726 67.3952 19.9287 68.085 19.9287C68.7747 19.9287 69.3672 20.0726 69.8623 20.3604C70.3617 20.6481 70.7467 21.0607 71.0176 21.5981C71.2884 22.1356 71.4238 22.7767 71.4238 23.5215V23.5342C71.4238 24.2832 71.2884 24.9264 71.0176 25.4639C70.751 26.0013 70.368 26.416 69.8687 26.708C69.3735 26.9958 68.779 27.1396 68.085 27.1396ZM68.085 25.8574C68.4489 25.8574 68.7578 25.7664 69.0117 25.5845C69.2699 25.3983 69.4666 25.1338 69.6021 24.791C69.7375 24.444 69.8052 24.0272 69.8052 23.5405V23.5278C69.8052 23.0369 69.7375 22.6201 69.6021 22.2773C69.4666 21.9303 69.2699 21.6659 69.0117 21.4839C68.7578 21.2977 68.4489 21.2046 68.085 21.2046C67.721 21.2046 67.41 21.2977 67.1519 21.4839C66.8937 21.6659 66.6969 21.9303 66.5615 22.2773C66.4261 22.6201 66.3584 23.0369 66.3584 23.5278V23.5405C66.3584 24.0272 66.4261 24.444 66.5615 24.791C66.6969 25.138 66.8916 25.4025 67.1455 25.5845C67.4036 25.7664 67.7168 25.8574 68.085 25.8574ZM73.0107 27V20.062H74.5913V21.1411H74.6992C74.8473 20.756 75.0864 20.4577 75.4165 20.2461C75.7508 20.0345 76.1465 19.9287 76.6035 19.9287C76.9167 19.9287 77.1981 19.9795 77.4478 20.0811C77.7017 20.1826 77.9196 20.3265 78.1016 20.5127C78.2835 20.6989 78.4232 20.9211 78.5205 21.1792H78.6348C78.749 20.9295 78.9077 20.7116 79.1108 20.5254C79.3182 20.335 79.5594 20.189 79.8345 20.0874C80.1138 19.9816 80.4142 19.9287 80.7358 19.9287C81.2013 19.9287 81.5991 20.0218 81.9292 20.208C82.2635 20.39 82.5195 20.6523 82.6973 20.9951C82.8792 21.3379 82.9702 21.7484 82.9702 22.2266V27H81.3896V22.6138C81.3896 22.3091 81.3431 22.0573 81.25 21.8584C81.1611 21.6595 81.0236 21.5093 80.8374 21.4077C80.6512 21.3062 80.4163 21.2554 80.1328 21.2554C79.8577 21.2554 79.6187 21.3188 79.4155 21.4458C79.2124 21.5685 79.0537 21.7357 78.9395 21.9473C78.8294 22.1589 78.7744 22.3979 78.7744 22.6646V27H77.1938V22.4995C77.1938 22.2414 77.1431 22.0192 77.0415 21.833C76.9442 21.6468 76.8003 21.505 76.6099 21.4077C76.4237 21.3062 76.2015 21.2554 75.9434 21.2554C75.6852 21.2554 75.4525 21.3231 75.2451 21.4585C75.042 21.5897 74.8812 21.7716 74.7627 22.0044C74.6484 22.2329 74.5913 22.491 74.5913 22.7788V27H73.0107ZM87.8008 27.1396C87.111 27.1396 86.5186 26.9937 86.0234 26.7017C85.5326 26.4097 85.1538 25.995 84.8872 25.4575C84.6206 24.9201 84.4873 24.2832 84.4873 23.5469V23.5405C84.4873 22.8127 84.6185 22.1779 84.8809 21.6362C85.1475 21.0946 85.5241 20.6756 86.0107 20.3794C86.4974 20.0789 87.0687 19.9287 87.7246 19.9287C88.3848 19.9287 88.9518 20.0747 89.4258 20.3667C89.904 20.6545 90.2721 21.0586 90.5303 21.5791C90.7884 22.0996 90.9175 22.709 90.9175 23.4072V23.9277H85.2808V22.8677H90.1431L89.394 23.8579V23.2295C89.394 22.7682 89.3242 22.3853 89.1846 22.0806C89.0449 21.7759 88.8503 21.5474 88.6006 21.395C88.3551 21.2427 88.0695 21.1665 87.7437 21.1665C87.4178 21.1665 87.1279 21.2469 86.874 21.4077C86.6243 21.5643 86.4255 21.797 86.2773 22.106C86.1335 22.4106 86.0615 22.7852 86.0615 23.2295V23.8643C86.0615 24.2917 86.1335 24.6577 86.2773 24.9624C86.4212 25.2629 86.6243 25.4956 86.8867 25.6606C87.1533 25.8215 87.4686 25.9019 87.8325 25.9019C88.116 25.9019 88.3594 25.8617 88.5625 25.7812C88.7699 25.6966 88.937 25.5972 89.064 25.4829C89.1909 25.3644 89.2798 25.2523 89.3306 25.1465L89.3496 25.1021H90.8477L90.835 25.1592C90.7799 25.3835 90.6784 25.612 90.5303 25.8447C90.3864 26.0732 90.1896 26.2869 89.9399 26.4858C89.6945 26.6805 89.394 26.8392 89.0386 26.9619C88.6831 27.0804 88.2705 27.1396 87.8008 27.1396Z" fill="white" fill-opacity="0.96"/>
</g>
<g filter="url(#filter2_d_525_2424)">
<path d="M278.993 16.3804V17.5478H277.737V16.4491C277.737 15.6556 277.3 15.2436 276.528 15.2436H268.732C267.952 15.2436 267.523 15.6556 267.523 16.4491V24.0333C267.523 24.8268 267.952 25.2388 268.732 25.2388H270.051V26.4672H268.717C267.078 26.4672 266.267 25.6737 266.267 24.1019V16.3804C266.267 14.8087 267.078 14.0151 268.717 14.0151H276.551C278.174 14.0151 278.993 14.8087 278.993 16.3804Z" fill="white" fill-opacity="0.6"/>
<path d="M278.993 16.3804V17.5478H277.737V16.4491C277.737 15.6556 277.3 15.2436 276.528 15.2436H268.732C267.952 15.2436 267.523 15.6556 267.523 16.4491V24.0333C267.523 24.8268 267.952 25.2388 268.732 25.2388H270.051V26.4672H268.717C267.078 26.4672 266.267 25.6737 266.267 24.1019V16.3804C266.267 14.8087 267.078 14.0151 268.717 14.0151H276.551C278.174 14.0151 278.993 14.8087 278.993 16.3804Z" fill="white" fill-opacity="0.11"/>
<path d="M282.778 19.9131V27.6347C282.778 29.2064 281.958 29.9999 280.335 29.9999H272.501C270.862 29.9999 270.051 29.2064 270.051 27.6347V19.9131C270.051 18.3337 270.862 17.5479 272.501 17.5479H280.335C281.958 17.5479 282.778 18.3414 282.778 19.9131ZM273.422 24.8497C273.195 25.9637 273.297 26.0171 272.017 26.2307C271.9 26.246 271.822 26.3299 271.822 26.4443C271.822 26.5665 271.9 26.6351 272.033 26.658C273.297 26.8488 273.195 26.8945 273.422 28.0238C273.461 28.1459 273.531 28.2221 273.648 28.2221C273.765 28.2221 273.851 28.1535 273.882 28.0467C274.093 26.8945 274.015 26.8488 275.294 26.658C275.404 26.6351 275.49 26.5512 275.49 26.4443C275.49 26.3299 275.404 26.246 275.294 26.2307C274.023 26.0171 274.093 25.9637 273.882 24.8497C273.851 24.7352 273.773 24.6513 273.648 24.6513C273.539 24.6513 273.461 24.7277 273.422 24.8497ZM276.512 19.9894C276.075 22.309 275.856 22.7209 273.406 23.049C273.242 23.0719 273.133 23.1864 273.133 23.3314C273.133 23.484 273.242 23.5984 273.406 23.6213C275.864 23.8655 276.176 24.3766 276.512 26.6809C276.543 26.8335 276.652 26.9403 276.824 26.9403C276.964 26.9403 277.074 26.8335 277.113 26.6885C277.557 24.3766 277.776 23.9417 280.234 23.6213C280.39 23.606 280.499 23.484 280.499 23.3314C280.499 23.1864 280.39 23.0719 280.234 23.049C277.784 22.7209 277.456 22.2632 277.113 19.9971C277.081 19.8445 276.964 19.73 276.824 19.73C276.668 19.73 276.559 19.8368 276.512 19.9894Z" fill="white" fill-opacity="0.6"/>
<path d="M282.778 19.9131V27.6347C282.778 29.2064 281.958 29.9999 280.335 29.9999H272.501C270.862 29.9999 270.051 29.2064 270.051 27.6347V19.9131C270.051 18.3337 270.862 17.5479 272.501 17.5479H280.335C281.958 17.5479 282.778 18.3414 282.778 19.9131ZM273.422 24.8497C273.195 25.9637 273.297 26.0171 272.017 26.2307C271.9 26.246 271.822 26.3299 271.822 26.4443C271.822 26.5665 271.9 26.6351 272.033 26.658C273.297 26.8488 273.195 26.8945 273.422 28.0238C273.461 28.1459 273.531 28.2221 273.648 28.2221C273.765 28.2221 273.851 28.1535 273.882 28.0467C274.093 26.8945 274.015 26.8488 275.294 26.658C275.404 26.6351 275.49 26.5512 275.49 26.4443C275.49 26.3299 275.404 26.246 275.294 26.2307C274.023 26.0171 274.093 25.9637 273.882 24.8497C273.851 24.7352 273.773 24.6513 273.648 24.6513C273.539 24.6513 273.461 24.7277 273.422 24.8497ZM276.512 19.9894C276.075 22.309 275.856 22.7209 273.406 23.049C273.242 23.0719 273.133 23.1864 273.133 23.3314C273.133 23.484 273.242 23.5984 273.406 23.6213C275.864 23.8655 276.176 24.3766 276.512 26.6809C276.543 26.8335 276.652 26.9403 276.824 26.9403C276.964 26.9403 277.074 26.8335 277.113 26.6885C277.557 24.3766 277.776 23.9417 280.234 23.6213C280.39 23.606 280.499 23.484 280.499 23.3314C280.499 23.1864 280.39 23.0719 280.234 23.049C277.784 22.7209 277.456 22.2632 277.113 19.9971C277.081 19.8445 276.964 19.73 276.824 19.73C276.668 19.73 276.559 19.8368 276.512 19.9894Z" fill="white" fill-opacity="0.11"/>
<path d="M287.355 27V17.8403H288.993V25.6226H293.188V27H287.355ZM294.813 27V20.062H296.388V27H294.813ZM295.607 18.9004C295.349 18.9004 295.127 18.8094 294.94 18.6274C294.754 18.4455 294.661 18.2275 294.661 17.9736C294.661 17.7113 294.754 17.4912 294.94 17.3135C295.127 17.1315 295.349 17.0405 295.607 17.0405C295.865 17.0405 296.085 17.1315 296.267 17.3135C296.453 17.4912 296.546 17.7113 296.546 17.9736C296.546 18.2275 296.453 18.4455 296.267 18.6274C296.085 18.8094 295.865 18.9004 295.607 18.9004ZM301.066 27.0317C300.27 27.0317 299.697 26.8857 299.346 26.5938C298.994 26.3018 298.819 25.8236 298.819 25.1592V21.2871H297.74V20.062H298.819V18.3608H300.425V20.062H301.885V21.2871H300.425V24.7847C300.425 25.1274 300.497 25.3792 300.641 25.54C300.789 25.6966 301.026 25.7749 301.352 25.7749C301.466 25.7749 301.559 25.7728 301.631 25.7686C301.707 25.7601 301.792 25.7516 301.885 25.7432V26.9619C301.775 26.9831 301.648 27 301.504 27.0127C301.364 27.0254 301.218 27.0317 301.066 27.0317ZM306.233 27.0317C305.437 27.0317 304.864 26.8857 304.513 26.5938C304.161 26.3018 303.986 25.8236 303.986 25.1592V21.2871H302.907V20.062H303.986V18.3608H305.592V20.062H307.052V21.2871H305.592V24.7847C305.592 25.1274 305.664 25.3792 305.808 25.54C305.956 25.6966 306.193 25.7749 306.519 25.7749C306.633 25.7749 306.726 25.7728 306.798 25.7686C306.874 25.7601 306.959 25.7516 307.052 25.7432V26.9619C306.942 26.9831 306.815 27 306.671 27.0127C306.531 27.0254 306.385 27.0317 306.233 27.0317ZM308.696 27V17.377H310.276V27H308.696ZM315.234 27.1396C314.544 27.1396 313.952 26.9937 313.457 26.7017C312.966 26.4097 312.587 25.995 312.32 25.4575C312.054 24.9201 311.92 24.2832 311.92 23.5469V23.5405C311.92 22.8127 312.052 22.1779 312.314 21.6362C312.581 21.0946 312.957 20.6756 313.444 20.3794C313.931 20.0789 314.502 19.9287 315.158 19.9287C315.818 19.9287 316.385 20.0747 316.859 20.3667C317.337 20.6545 317.705 21.0586 317.963 21.5791C318.222 22.0996 318.351 22.709 318.351 23.4072V23.9277H312.714V22.8677H317.576L316.827 23.8579V23.2295C316.827 22.7682 316.757 22.3853 316.618 22.0806C316.478 21.7759 316.283 21.5474 316.034 21.395C315.788 21.2427 315.503 21.1665 315.177 21.1665C314.851 21.1665 314.561 21.2469 314.307 21.4077C314.057 21.5643 313.859 21.797 313.71 22.106C313.567 22.4106 313.495 22.7852 313.495 23.2295V23.8643C313.495 24.2917 313.567 24.6577 313.71 24.9624C313.854 25.2629 314.057 25.4956 314.32 25.6606C314.586 25.8215 314.902 25.9019 315.266 25.9019C315.549 25.9019 315.792 25.8617 315.996 25.7812C316.203 25.6966 316.37 25.5972 316.497 25.4829C316.624 25.3644 316.713 25.2523 316.764 25.1465L316.783 25.1021H318.281L318.268 25.1592C318.213 25.3835 318.111 25.612 317.963 25.8447C317.819 26.0732 317.623 26.2869 317.373 26.4858C317.128 26.6805 316.827 26.8392 316.472 26.9619C316.116 27.0804 315.704 27.1396 315.234 27.1396ZM323.562 27V17.8403H325.2V25.6226H329.396V27H323.562ZM331.021 27V20.062H332.595V27H331.021ZM331.814 18.9004C331.556 18.9004 331.334 18.8094 331.147 18.6274C330.961 18.4455 330.868 18.2275 330.868 17.9736C330.868 17.7113 330.961 17.4912 331.147 17.3135C331.334 17.1315 331.556 17.0405 331.814 17.0405C332.072 17.0405 332.292 17.1315 332.474 17.3135C332.66 17.4912 332.753 17.7113 332.753 17.9736C332.753 18.2275 332.66 18.4455 332.474 18.6274C332.292 18.8094 332.072 18.9004 331.814 18.9004ZM335.051 27V21.2871H333.915V20.062H335.051V19.3765C335.051 18.911 335.13 18.5259 335.286 18.2212C335.447 17.9165 335.694 17.6901 336.029 17.542C336.363 17.3896 336.786 17.3135 337.298 17.3135C337.468 17.3135 337.624 17.3198 337.768 17.3325C337.912 17.341 338.045 17.3558 338.168 17.377V18.4814C338.109 18.473 338.033 18.4666 337.939 18.4624C337.846 18.4539 337.745 18.4497 337.635 18.4497C337.262 18.4497 336.998 18.5365 336.841 18.71C336.685 18.8792 336.606 19.131 336.606 19.4653V20.062H338.111V21.2871H336.632V27H335.051ZM342.402 27.0317C341.606 27.0317 341.033 26.8857 340.682 26.5938C340.33 26.3018 340.155 25.8236 340.155 25.1592V21.2871H339.076V20.062H340.155V18.3608H341.761V20.062H343.221V21.2871H341.761V24.7847C341.761 25.1274 341.833 25.3792 341.977 25.54C342.125 25.6966 342.362 25.7749 342.688 25.7749C342.802 25.7749 342.895 25.7728 342.967 25.7686C343.043 25.7601 343.128 25.7516 343.221 25.7432V26.9619C343.111 26.9831 342.984 27 342.84 27.0127C342.7 27.0254 342.554 27.0317 342.402 27.0317ZM347.334 27.1396C346.746 27.1396 346.238 27.0571 345.811 26.8921C345.387 26.7228 345.053 26.4901 344.808 26.1938C344.562 25.8934 344.416 25.5464 344.37 25.1528V25.1401H345.938L345.944 25.1528C346.028 25.394 346.187 25.5908 346.42 25.7432C346.653 25.8955 346.966 25.9717 347.359 25.9717C347.622 25.9717 347.852 25.9357 348.051 25.8638C348.25 25.7876 348.407 25.6839 348.521 25.5527C348.635 25.4215 348.692 25.2692 348.692 25.0957V25.083C348.692 24.8799 348.61 24.7106 348.445 24.5752C348.28 24.4355 348.007 24.3234 347.626 24.2388L346.502 23.9849C346.062 23.8875 345.698 23.7521 345.411 23.5786C345.123 23.4051 344.907 23.1914 344.763 22.9375C344.624 22.6836 344.554 22.3874 344.554 22.0488V22.0425C344.554 21.6235 344.67 21.2554 344.903 20.938C345.14 20.6206 345.468 20.373 345.887 20.1953C346.306 20.0176 346.788 19.9287 347.334 19.9287C347.897 19.9287 348.381 20.0133 348.788 20.1826C349.194 20.3519 349.511 20.5846 349.74 20.8809C349.968 21.1771 350.099 21.5135 350.133 21.8901V21.9028H348.648L348.642 21.8838C348.582 21.6637 348.441 21.4775 348.216 21.3252C347.996 21.1686 347.7 21.0903 347.328 21.0903C347.095 21.0903 346.885 21.1263 346.699 21.1982C346.517 21.2702 346.373 21.3717 346.268 21.5029C346.166 21.6299 346.115 21.7801 346.115 21.9536V21.96C346.115 22.0954 346.149 22.2139 346.217 22.3154C346.289 22.417 346.401 22.5059 346.553 22.582C346.706 22.6582 346.907 22.7259 347.156 22.7852L348.28 23.0327C348.961 23.1851 349.465 23.4115 349.791 23.7119C350.116 24.0124 350.279 24.4165 350.279 24.9243V24.937C350.279 25.3771 350.152 25.7622 349.898 26.0923C349.645 26.4224 349.295 26.6805 348.851 26.8667C348.407 27.0487 347.901 27.1396 347.334 27.1396Z" fill="white" fill-opacity="0.11"/>
<path d="M287.355 27V17.8403H288.993V25.6226H293.188V27H287.355ZM294.813 27V20.062H296.388V27H294.813ZM295.607 18.9004C295.349 18.9004 295.127 18.8094 294.94 18.6274C294.754 18.4455 294.661 18.2275 294.661 17.9736C294.661 17.7113 294.754 17.4912 294.94 17.3135C295.127 17.1315 295.349 17.0405 295.607 17.0405C295.865 17.0405 296.085 17.1315 296.267 17.3135C296.453 17.4912 296.546 17.7113 296.546 17.9736C296.546 18.2275 296.453 18.4455 296.267 18.6274C296.085 18.8094 295.865 18.9004 295.607 18.9004ZM301.066 27.0317C300.27 27.0317 299.697 26.8857 299.346 26.5938C298.994 26.3018 298.819 25.8236 298.819 25.1592V21.2871H297.74V20.062H298.819V18.3608H300.425V20.062H301.885V21.2871H300.425V24.7847C300.425 25.1274 300.497 25.3792 300.641 25.54C300.789 25.6966 301.026 25.7749 301.352 25.7749C301.466 25.7749 301.559 25.7728 301.631 25.7686C301.707 25.7601 301.792 25.7516 301.885 25.7432V26.9619C301.775 26.9831 301.648 27 301.504 27.0127C301.364 27.0254 301.218 27.0317 301.066 27.0317ZM306.233 27.0317C305.437 27.0317 304.864 26.8857 304.513 26.5938C304.161 26.3018 303.986 25.8236 303.986 25.1592V21.2871H302.907V20.062H303.986V18.3608H305.592V20.062H307.052V21.2871H305.592V24.7847C305.592 25.1274 305.664 25.3792 305.808 25.54C305.956 25.6966 306.193 25.7749 306.519 25.7749C306.633 25.7749 306.726 25.7728 306.798 25.7686C306.874 25.7601 306.959 25.7516 307.052 25.7432V26.9619C306.942 26.9831 306.815 27 306.671 27.0127C306.531 27.0254 306.385 27.0317 306.233 27.0317ZM308.696 27V17.377H310.276V27H308.696ZM315.234 27.1396C314.544 27.1396 313.952 26.9937 313.457 26.7017C312.966 26.4097 312.587 25.995 312.32 25.4575C312.054 24.9201 311.92 24.2832 311.92 23.5469V23.5405C311.92 22.8127 312.052 22.1779 312.314 21.6362C312.581 21.0946 312.957 20.6756 313.444 20.3794C313.931 20.0789 314.502 19.9287 315.158 19.9287C315.818 19.9287 316.385 20.0747 316.859 20.3667C317.337 20.6545 317.705 21.0586 317.963 21.5791C318.222 22.0996 318.351 22.709 318.351 23.4072V23.9277H312.714V22.8677H317.576L316.827 23.8579V23.2295C316.827 22.7682 316.757 22.3853 316.618 22.0806C316.478 21.7759 316.283 21.5474 316.034 21.395C315.788 21.2427 315.503 21.1665 315.177 21.1665C314.851 21.1665 314.561 21.2469 314.307 21.4077C314.057 21.5643 313.859 21.797 313.71 22.106C313.567 22.4106 313.495 22.7852 313.495 23.2295V23.8643C313.495 24.2917 313.567 24.6577 313.71 24.9624C313.854 25.2629 314.057 25.4956 314.32 25.6606C314.586 25.8215 314.902 25.9019 315.266 25.9019C315.549 25.9019 315.792 25.8617 315.996 25.7812C316.203 25.6966 316.37 25.5972 316.497 25.4829C316.624 25.3644 316.713 25.2523 316.764 25.1465L316.783 25.1021H318.281L318.268 25.1592C318.213 25.3835 318.111 25.612 317.963 25.8447C317.819 26.0732 317.623 26.2869 317.373 26.4858C317.128 26.6805 316.827 26.8392 316.472 26.9619C316.116 27.0804 315.704 27.1396 315.234 27.1396ZM323.562 27V17.8403H325.2V25.6226H329.396V27H323.562ZM331.021 27V20.062H332.595V27H331.021ZM331.814 18.9004C331.556 18.9004 331.334 18.8094 331.147 18.6274C330.961 18.4455 330.868 18.2275 330.868 17.9736C330.868 17.7113 330.961 17.4912 331.147 17.3135C331.334 17.1315 331.556 17.0405 331.814 17.0405C332.072 17.0405 332.292 17.1315 332.474 17.3135C332.66 17.4912 332.753 17.7113 332.753 17.9736C332.753 18.2275 332.66 18.4455 332.474 18.6274C332.292 18.8094 332.072 18.9004 331.814 18.9004ZM335.051 27V21.2871H333.915V20.062H335.051V19.3765C335.051 18.911 335.13 18.5259 335.286 18.2212C335.447 17.9165 335.694 17.6901 336.029 17.542C336.363 17.3896 336.786 17.3135 337.298 17.3135C337.468 17.3135 337.624 17.3198 337.768 17.3325C337.912 17.341 338.045 17.3558 338.168 17.377V18.4814C338.109 18.473 338.033 18.4666 337.939 18.4624C337.846 18.4539 337.745 18.4497 337.635 18.4497C337.262 18.4497 336.998 18.5365 336.841 18.71C336.685 18.8792 336.606 19.131 336.606 19.4653V20.062H338.111V21.2871H336.632V27H335.051ZM342.402 27.0317C341.606 27.0317 341.033 26.8857 340.682 26.5938C340.33 26.3018 340.155 25.8236 340.155 25.1592V21.2871H339.076V20.062H340.155V18.3608H341.761V20.062H343.221V21.2871H341.761V24.7847C341.761 25.1274 341.833 25.3792 341.977 25.54C342.125 25.6966 342.362 25.7749 342.688 25.7749C342.802 25.7749 342.895 25.7728 342.967 25.7686C343.043 25.7601 343.128 25.7516 343.221 25.7432V26.9619C343.111 26.9831 342.984 27 342.84 27.0127C342.7 27.0254 342.554 27.0317 342.402 27.0317ZM347.334 27.1396C346.746 27.1396 346.238 27.0571 345.811 26.8921C345.387 26.7228 345.053 26.4901 344.808 26.1938C344.562 25.8934 344.416 25.5464 344.37 25.1528V25.1401H345.938L345.944 25.1528C346.028 25.394 346.187 25.5908 346.42 25.7432C346.653 25.8955 346.966 25.9717 347.359 25.9717C347.622 25.9717 347.852 25.9357 348.051 25.8638C348.25 25.7876 348.407 25.6839 348.521 25.5527C348.635 25.4215 348.692 25.2692 348.692 25.0957V25.083C348.692 24.8799 348.61 24.7106 348.445 24.5752C348.28 24.4355 348.007 24.3234 347.626 24.2388L346.502 23.9849C346.062 23.8875 345.698 23.7521 345.411 23.5786C345.123 23.4051 344.907 23.1914 344.763 22.9375C344.624 22.6836 344.554 22.3874 344.554 22.0488V22.0425C344.554 21.6235 344.67 21.2554 344.903 20.938C345.14 20.6206 345.468 20.373 345.887 20.1953C346.306 20.0176 346.788 19.9287 347.334 19.9287C347.897 19.9287 348.381 20.0133 348.788 20.1826C349.194 20.3519 349.511 20.5846 349.74 20.8809C349.968 21.1771 350.099 21.5135 350.133 21.8901V21.9028H348.648L348.642 21.8838C348.582 21.6637 348.441 21.4775 348.216 21.3252C347.996 21.1686 347.7 21.0903 347.328 21.0903C347.095 21.0903 346.885 21.1263 346.699 21.1982C346.517 21.2702 346.373 21.3717 346.268 21.5029C346.166 21.6299 346.115 21.7801 346.115 21.9536V21.96C346.115 22.0954 346.149 22.2139 346.217 22.3154C346.289 22.417 346.401 22.5059 346.553 22.582C346.706 22.6582 346.907 22.7259 347.156 22.7852L348.28 23.0327C348.961 23.1851 349.465 23.4115 349.791 23.7119C350.116 24.0124 350.279 24.4165 350.279 24.9243V24.937C350.279 25.3771 350.152 25.7622 349.898 26.0923C349.645 26.4224 349.295 26.6805 348.851 26.8667C348.407 27.0487 347.901 27.1396 347.334 27.1396Z" fill="white" fill-opacity="0.6" style="mix-blend-mode:color-dodge"/>
</g>
</g>
</g>
<defs>
<filter id="filter0_iiii_525_2424" x="0" y="-0.5" width="373" height="46" filterUnits="userSpaceOnUse" color-interpolation-filters="sRGB">
<feFlood flood-opacity="0" result="BackgroundImageFix"/>
<feBlend mode="normal" in="SourceGraphic" in2="BackgroundImageFix" result="shape"/>
<feColorMatrix in="SourceAlpha" type="matrix" values="0 0 0 0 0 0 0 0 0 0 0 0 0 0 0 0 0 0 127 0" result="hardAlpha"/>
<feOffset dx="1" dy="1.5"/>
<feGaussianBlur stdDeviation="2"/>
<feComposite in2="hardAlpha" operator="arithmetic" k2="-1" k3="1"/>
<feColorMatrix type="matrix" values="0 0 0 0 0 0 0 0 0 0 0 0 0 0 0 0 0 0 0.1 0"/>
<feBlend mode="normal" in2="shape" result="effect1_innerShadow_525_2424"/>
<feColorMatrix in="SourceAlpha" type="matrix" values="0 0 0 0 0 0 0 0 0 0 0 0 0 0 0 0 0 0 127 0" result="hardAlpha"/>
<feOffset dx="1" dy="1.5"/>
<feGaussianBlur stdDeviation="2"/>
<feComposite in2="hardAlpha" operator="arithmetic" k2="-1" k3="1"/>
<feColorMatrix type="matrix" values="0 0 0 0 0 0 0 0 0 0 0 0 0 0 0 0 0 0 0.08 0"/>
<feBlend mode="overlay" in2="effect1_innerShadow_525_2424" result="effect2_innerShadow_525_2424"/>
<feColorMatrix in="SourceAlpha" type="matrix" values="0 0 0 0 0 0 0 0 0 0 0 0 0 0 0 0 0 0 127 0" result="hardAlpha"/>
<feOffset dy="-0.5"/>
<feGaussianBlur stdDeviation="0.5"/>
<feComposite in2="hardAlpha" operator="arithmetic" k2="-1" k3="1"/>
<feColorMatrix type="matrix" values="0 0 0 0 1 0 0 0 0 1 0 0 0 0 1 0 0 0 0.25 0"/>
<feBlend mode="normal" in2="effect2_innerShadow_525_2424" result="effect3_innerShadow_525_2424"/>
<feColorMatrix in="SourceAlpha" type="matrix" values="0 0 0 0 0 0 0 0 0 0 0 0 0 0 0 0 0 0 127 0" result="hardAlpha"/>
<feOffset dy="-0.5"/>
<feGaussianBlur stdDeviation="0.5"/>
<feComposite in2="hardAlpha" operator="arithmetic" k2="-1" k3="1"/>
<feColorMatrix type="matrix" values="0 0 0 0 1 0 0 0 0 1 0 0 0 0 1 0 0 0 0.3 0"/>
<feBlend mode="overlay" in2="effect3_innerShadow_525_2424" result="effect4_innerShadow_525_2424"/>
</filter>
<filter id="filter1_d_525_2424" x="0" y="2" width="126.667" height="44" filterUnits="userSpaceOnUse" color-interpolation-filters="sRGB">
<feFlood flood-opacity="0" result="BackgroundImageFix"/>
<feColorMatrix in="SourceAlpha" type="matrix" values="0 0 0 0 0 0 0 0 0 0 0 0 0 0 0 0 0 0 127 0" result="hardAlpha"/>
<feOffset dy="2"/>
<feGaussianBlur stdDeviation="2"/>
<feComposite in2="hardAlpha" operator="out"/>
<feColorMatrix type="matrix" values="0 0 0 0 0 0 0 0 0 0 0 0 0 0 0 0 0 0 0.1 0"/>
<feBlend mode="normal" in2="BackgroundImageFix" result="effect1_dropShadow_525_2424"/>
<feBlend mode="normal" in="SourceGraphic" in2="effect1_dropShadow_525_2424" result="shape"/>
</filter>
<filter id="filter2_d_525_2424" x="245.333" y="1" width="126.667" height="44" filterUnits="userSpaceOnUse" color-interpolation-filters="sRGB">
<feFlood flood-opacity="0" result="BackgroundImageFix"/>
<feColorMatrix in="SourceAlpha" type="matrix" values="0 0 0 0 0 0 0 0 0 0 0 0 0 0 0 0 0 0 127 0" result="hardAlpha"/>
<feOffset dy="1"/>
<feGaussianBlur stdDeviation="2"/>
<feComposite in2="hardAlpha" operator="out"/>
<feColorMatrix type="matrix" values="0 0 0 0 0 0 0 0 0 0 0 0 0 0 0 0 0 0 0.1 0"/>
<feBlend mode="normal" in2="BackgroundImageFix" result="effect1_dropShadow_525_2424"/>
<feBlend mode="normal" in="SourceGraphic" in2="effect1_dropShadow_525_2424" result="shape"/>
</filter>
<linearGradient id="paint0_linear_525_2424" x1="14.0125" y1="4.675" x2="21.5166" y2="46.0149" gradientUnits="userSpaceOnUse">
<stop stop-color="white" stop-opacity="0.4"/>
<stop offset="0.405687" stop-color="white" stop-opacity="0.01"/>
<stop offset="0.574372" stop-color="white" stop-opacity="0.01"/>
<stop offset="1" stop-color="white" stop-opacity="0.1"/>
</linearGradient>
<clipPath id="clip0_525_2424">
<rect width="372" height="44" rx="22" fill="white"/>
</clipPath>
<clipPath id="clip1_525_2424">
<rect width="16" height="14" fill="white" transform="translate(34.8301 15)"/>
</clipPath>
</defs>
</svg>
