<svg width="372" height="44" viewBox="0 0 372 44" fill="none" xmlns="http://www.w3.org/2000/svg">
<g filter="url(#filter0_iiii_1022_1193)">
<g clip-path="url(#clip0_1022_1193)">
<rect width="372" height="44" rx="22" fill="black" fill-opacity="0.1" style="mix-blend-mode:luminosity"/>
<rect width="372" height="44" rx="22" fill="#D0D0D0" fill-opacity="0.5" style="mix-blend-mode:color-burn"/>
<g filter="url(#filter1_d_1022_1193)">
<g clip-path="url(#clip1_1022_1193)">
<path d="M40.9298 27.9159V24.0053C40.9298 23.6993 41.1343 23.4998 41.4378 23.4998H43.9912C44.3013 23.4998 44.4927 23.6993 44.4927 24.0053V27.9159H40.9298ZM36.8918 27.5236C36.8918 28.448 37.446 28.9867 38.3764 28.9867H47.0526C47.983 28.9867 48.5306 28.448 48.5306 27.5236V22.2428L43.1071 17.6603C42.8564 17.4475 42.5594 17.4542 42.3153 17.6603L36.8918 22.2428V27.5236ZM35.4007 22.1031C35.5854 22.1031 35.7372 22.0033 35.8757 21.8903L42.4803 16.2969C42.5529 16.2371 42.6386 16.2038 42.7112 16.2038C42.7903 16.2038 42.8695 16.2371 42.9422 16.2969L49.5533 21.8903C49.6852 22.0033 49.837 22.1031 50.0218 22.1031C50.378 22.1031 50.5891 21.8437 50.5891 21.571C50.5891 21.4181 50.5298 21.2584 50.378 21.1387L43.5029 15.3192C43.2522 15.1064 42.9817 15 42.7112 15C42.4407 15 42.1702 15.1064 41.9195 15.3192L35.0444 21.1387C34.8992 21.2584 34.8333 21.4181 34.8333 21.571C34.8333 21.8437 35.0444 22.1031 35.4007 22.1031ZM47.0065 18.5715L48.6626 19.9815V16.982C48.6626 16.6893 48.4778 16.5031 48.1875 16.5031H47.4815C47.1978 16.5031 47.0065 16.6893 47.0065 16.982V18.5715Z" fill="#E7C2CE"/>
</g>
<path d="M55.2629 27V17.8403H56.9006V21.6489H61.3567V17.8403H62.988V27H61.3567V23.0264H56.9006V27H55.2629ZM68.0852 27.1396C67.3954 27.1396 66.8009 26.9958 66.3015 26.708C65.8022 26.416 65.4171 26.0013 65.1462 25.4639C64.8796 24.9264 64.7463 24.2832 64.7463 23.5342V23.5215C64.7463 22.7809 64.8818 22.1419 65.1526 21.6045C65.4234 21.0628 65.8064 20.6481 66.3015 20.3604C66.8009 20.0726 67.3954 19.9287 68.0852 19.9287C68.775 19.9287 69.3674 20.0726 69.8625 20.3604C70.3619 20.6481 70.747 21.0607 71.0178 21.5981C71.2887 22.1356 71.4241 22.7767 71.4241 23.5215V23.5342C71.4241 24.2832 71.2887 24.9264 71.0178 25.4639C70.7512 26.0013 70.3682 26.416 69.8689 26.708C69.3738 26.9958 68.7792 27.1396 68.0852 27.1396ZM68.0852 25.8574C68.4491 25.8574 68.7581 25.7664 69.012 25.5845C69.2701 25.3983 69.4669 25.1338 69.6023 24.791C69.7377 24.444 69.8054 24.0272 69.8054 23.5405V23.5278C69.8054 23.0369 69.7377 22.6201 69.6023 22.2773C69.4669 21.9303 69.2701 21.6659 69.012 21.4839C68.7581 21.2977 68.4491 21.2046 68.0852 21.2046C67.7213 21.2046 67.4102 21.2977 67.1521 21.4839C66.894 21.6659 66.6972 21.9303 66.5618 22.2773C66.4264 22.6201 66.3586 23.0369 66.3586 23.5278V23.5405C66.3586 24.0272 66.4264 24.444 66.5618 24.791C66.6972 25.138 66.8918 25.4025 67.1458 25.5845C67.4039 25.7664 67.717 25.8574 68.0852 25.8574ZM73.011 27V20.062H74.5916V21.1411H74.6995C74.8476 20.756 75.0867 20.4577 75.4167 20.2461C75.7511 20.0345 76.1467 19.9287 76.6038 19.9287C76.9169 19.9287 77.1983 19.9795 77.448 20.0811C77.7019 20.1826 77.9198 20.3265 78.1018 20.5127C78.2838 20.6989 78.4234 20.9211 78.5208 21.1792H78.635C78.7493 20.9295 78.908 20.7116 79.1111 20.5254C79.3184 20.335 79.5597 20.189 79.8347 20.0874C80.114 19.9816 80.4145 19.9287 80.7361 19.9287C81.2016 19.9287 81.5994 20.0218 81.9294 20.208C82.2638 20.39 82.5198 20.6523 82.6975 20.9951C82.8795 21.3379 82.9705 21.7484 82.9705 22.2266V27H81.3899V22.6138C81.3899 22.3091 81.3433 22.0573 81.2502 21.8584C81.1614 21.6595 81.0238 21.5093 80.8376 21.4077C80.6514 21.3062 80.4166 21.2554 80.1331 21.2554C79.858 21.2554 79.6189 21.3188 79.4158 21.4458C79.2126 21.5685 79.054 21.7357 78.9397 21.9473C78.8297 22.1589 78.7747 22.3979 78.7747 22.6646V27H77.1941V22.4995C77.1941 22.2414 77.1433 22.0192 77.0417 21.833C76.9444 21.6468 76.8005 21.505 76.6101 21.4077C76.4239 21.3062 76.2017 21.2554 75.9436 21.2554C75.6855 21.2554 75.4527 21.3231 75.2454 21.4585C75.0422 21.5897 74.8814 21.7716 74.7629 22.0044C74.6487 22.2329 74.5916 22.491 74.5916 22.7788V27H73.011ZM87.801 27.1396C87.1112 27.1396 86.5188 26.9937 86.0237 26.7017C85.5328 26.4097 85.1541 25.995 84.8875 25.4575C84.6208 24.9201 84.4875 24.2832 84.4875 23.5469V23.5405C84.4875 22.8127 84.6187 22.1779 84.8811 21.6362C85.1477 21.0946 85.5243 20.6756 86.011 20.3794C86.4976 20.0789 87.0689 19.9287 87.7249 19.9287C88.385 19.9287 88.9521 20.0747 89.426 20.3667C89.9042 20.6545 90.2724 21.0586 90.5305 21.5791C90.7887 22.0996 90.9177 22.709 90.9177 23.4072V23.9277H85.281V22.8677H90.1433L89.3943 23.8579V23.2295C89.3943 22.7682 89.3245 22.3853 89.1848 22.0806C89.0452 21.7759 88.8505 21.5474 88.6008 21.395C88.3554 21.2427 88.0697 21.1665 87.7439 21.1665C87.4181 21.1665 87.1282 21.2469 86.8743 21.4077C86.6246 21.5643 86.4257 21.797 86.2776 22.106C86.1337 22.4106 86.0618 22.7852 86.0618 23.2295V23.8643C86.0618 24.2917 86.1337 24.6577 86.2776 24.9624C86.4215 25.2629 86.6246 25.4956 86.887 25.6606C87.1536 25.8215 87.4688 25.9019 87.8328 25.9019C88.1163 25.9019 88.3596 25.8617 88.5627 25.7812C88.7701 25.6966 88.9373 25.5972 89.0642 25.4829C89.1912 25.3644 89.28 25.2523 89.3308 25.1465L89.3499 25.1021H90.8479L90.8352 25.1592C90.7802 25.3835 90.6786 25.612 90.5305 25.8447C90.3866 26.0732 90.1899 26.2869 89.9402 26.4858C89.6947 26.6805 89.3943 26.8392 89.0388 26.9619C88.6833 27.0804 88.2708 27.1396 87.801 27.1396Z" fill="#E7C2CE"/>
</g>
<g filter="url(#filter2_d_1022_1193)">
<g clip-path="url(#clip2_1022_1193)">
<rect x="249" y="4" width="118.667" height="36" rx="18" fill="white" fill-opacity="0.06" style="mix-blend-mode:lighten" shape-rendering="crispEdges"/>
<rect x="249" y="4" width="118.667" height="36" rx="18" fill="#5E5E5E" fill-opacity="0.18" style="mix-blend-mode:color-dodge" shape-rendering="crispEdges"/>
<g filter="url(#filter3_d_1022_1193)">
<path d="M278.66 16.3804V17.5478H277.404V16.4491C277.404 15.6556 276.967 15.2436 276.194 15.2436H268.399C267.619 15.2436 267.19 15.6556 267.19 16.4491V24.0333C267.19 24.8268 267.619 25.2388 268.399 25.2388H269.718V26.4672H268.384C266.745 26.4672 265.933 25.6737 265.933 24.1019V16.3804C265.933 14.8087 266.745 14.0151 268.384 14.0151H276.218C277.841 14.0151 278.66 14.8087 278.66 16.3804Z" fill="white"/>
<path d="M278.66 16.3804V17.5478H277.404V16.4491C277.404 15.6556 276.967 15.2436 276.194 15.2436H268.399C267.619 15.2436 267.19 15.6556 267.19 16.4491V24.0333C267.19 24.8268 267.619 25.2388 268.399 25.2388H269.718V26.4672H268.384C266.745 26.4672 265.933 25.6737 265.933 24.1019V16.3804C265.933 14.8087 266.745 14.0151 268.384 14.0151H276.218C277.841 14.0151 278.66 14.8087 278.66 16.3804Z" fill="white"/>
<path d="M282.445 19.9131V27.6347C282.445 29.2064 281.625 29.9999 280.002 29.9999H272.168C270.529 29.9999 269.718 29.2064 269.718 27.6347V19.9131C269.718 18.3337 270.529 17.5479 272.168 17.5479H280.002C281.625 17.5479 282.445 18.3414 282.445 19.9131ZM273.089 24.8497C272.862 25.9637 272.964 26.0171 271.684 26.2307C271.567 26.246 271.489 26.3299 271.489 26.4443C271.489 26.5665 271.567 26.6351 271.7 26.658C272.964 26.8488 272.862 26.8945 273.089 28.0238C273.128 28.1459 273.198 28.2221 273.315 28.2221C273.432 28.2221 273.518 28.1535 273.549 28.0467C273.76 26.8945 273.682 26.8488 274.961 26.658C275.071 26.6351 275.157 26.5512 275.157 26.4443C275.157 26.3299 275.071 26.246 274.961 26.2307C273.69 26.0171 273.76 25.9637 273.549 24.8497C273.518 24.7352 273.44 24.6513 273.315 24.6513C273.206 24.6513 273.128 24.7277 273.089 24.8497ZM276.179 19.9894C275.742 22.309 275.523 22.7209 273.073 23.049C272.909 23.0719 272.8 23.1864 272.8 23.3314C272.8 23.484 272.909 23.5984 273.073 23.6213C275.531 23.8655 275.843 24.3766 276.179 26.6809C276.21 26.8335 276.319 26.9403 276.491 26.9403C276.631 26.9403 276.741 26.8335 276.78 26.6885C277.224 24.3766 277.443 23.9417 279.901 23.6213C280.057 23.606 280.166 23.484 280.166 23.3314C280.166 23.1864 280.057 23.0719 279.901 23.049C277.451 22.7209 277.123 22.2632 276.78 19.9971C276.748 19.8445 276.631 19.73 276.491 19.73C276.335 19.73 276.226 19.8368 276.179 19.9894Z" fill="white"/>
<path d="M282.445 19.9131V27.6347C282.445 29.2064 281.625 29.9999 280.002 29.9999H272.168C270.529 29.9999 269.718 29.2064 269.718 27.6347V19.9131C269.718 18.3337 270.529 17.5479 272.168 17.5479H280.002C281.625 17.5479 282.445 18.3414 282.445 19.9131ZM273.089 24.8497C272.862 25.9637 272.964 26.0171 271.684 26.2307C271.567 26.246 271.489 26.3299 271.489 26.4443C271.489 26.5665 271.567 26.6351 271.7 26.658C272.964 26.8488 272.862 26.8945 273.089 28.0238C273.128 28.1459 273.198 28.2221 273.315 28.2221C273.432 28.2221 273.518 28.1535 273.549 28.0467C273.76 26.8945 273.682 26.8488 274.961 26.658C275.071 26.6351 275.157 26.5512 275.157 26.4443C275.157 26.3299 275.071 26.246 274.961 26.2307C273.69 26.0171 273.76 25.9637 273.549 24.8497C273.518 24.7352 273.44 24.6513 273.315 24.6513C273.206 24.6513 273.128 24.7277 273.089 24.8497ZM276.179 19.9894C275.742 22.309 275.523 22.7209 273.073 23.049C272.909 23.0719 272.8 23.1864 272.8 23.3314C272.8 23.484 272.909 23.5984 273.073 23.6213C275.531 23.8655 275.843 24.3766 276.179 26.6809C276.21 26.8335 276.319 26.9403 276.491 26.9403C276.631 26.9403 276.741 26.8335 276.78 26.6885C277.224 24.3766 277.443 23.9417 279.901 23.6213C280.057 23.606 280.166 23.484 280.166 23.3314C280.166 23.1864 280.057 23.0719 279.901 23.049C277.451 22.7209 277.123 22.2632 276.78 19.9971C276.748 19.8445 276.631 19.73 276.491 19.73C276.335 19.73 276.226 19.8368 276.179 19.9894Z" fill="white"/>
<path d="M287.022 27V17.8403H288.66V25.6226H292.855V27H287.022ZM294.48 27V20.062H296.055V27H294.48ZM295.274 18.9004C295.016 18.9004 294.794 18.8094 294.607 18.6274C294.421 18.4455 294.328 18.2275 294.328 17.9736C294.328 17.7113 294.421 17.4912 294.607 17.3135C294.794 17.1315 295.016 17.0405 295.274 17.0405C295.532 17.0405 295.752 17.1315 295.934 17.3135C296.12 17.4912 296.213 17.7113 296.213 17.9736C296.213 18.2275 296.12 18.4455 295.934 18.6274C295.752 18.8094 295.532 18.9004 295.274 18.9004ZM300.733 27.0317C299.937 27.0317 299.364 26.8857 299.013 26.5938C298.661 26.3018 298.486 25.8236 298.486 25.1592V21.2871H297.407V20.062H298.486V18.3608H300.092V20.062H301.552V21.2871H300.092V24.7847C300.092 25.1274 300.164 25.3792 300.308 25.54C300.456 25.6966 300.693 25.7749 301.019 25.7749C301.133 25.7749 301.226 25.7728 301.298 25.7686C301.374 25.7601 301.459 25.7516 301.552 25.7432V26.9619C301.442 26.9831 301.315 27 301.171 27.0127C301.031 27.0254 300.885 27.0317 300.733 27.0317ZM305.9 27.0317C305.104 27.0317 304.531 26.8857 304.18 26.5938C303.828 26.3018 303.653 25.8236 303.653 25.1592V21.2871H302.574V20.062H303.653V18.3608H305.259V20.062H306.719V21.2871H305.259V24.7847C305.259 25.1274 305.331 25.3792 305.475 25.54C305.623 25.6966 305.86 25.7749 306.186 25.7749C306.3 25.7749 306.393 25.7728 306.465 25.7686C306.541 25.7601 306.626 25.7516 306.719 25.7432V26.9619C306.609 26.9831 306.482 27 306.338 27.0127C306.198 27.0254 306.052 27.0317 305.9 27.0317ZM308.363 27V17.377H309.943V27H308.363ZM314.901 27.1396C314.211 27.1396 313.619 26.9937 313.124 26.7017C312.633 26.4097 312.254 25.995 311.987 25.4575C311.721 24.9201 311.587 24.2832 311.587 23.5469V23.5405C311.587 22.8127 311.719 22.1779 311.981 21.6362C312.248 21.0946 312.624 20.6756 313.111 20.3794C313.597 20.0789 314.169 19.9287 314.825 19.9287C315.485 19.9287 316.052 20.0747 316.526 20.3667C317.004 20.6545 317.372 21.0586 317.63 21.5791C317.889 22.0996 318.018 22.709 318.018 23.4072V23.9277H312.381V22.8677H317.243L316.494 23.8579V23.2295C316.494 22.7682 316.424 22.3853 316.285 22.0806C316.145 21.7759 315.95 21.5474 315.701 21.395C315.455 21.2427 315.17 21.1665 314.844 21.1665C314.518 21.1665 314.228 21.2469 313.974 21.4077C313.724 21.5643 313.526 21.797 313.377 22.106C313.234 22.4106 313.162 22.7852 313.162 23.2295V23.8643C313.162 24.2917 313.234 24.6577 313.377 24.9624C313.521 25.2629 313.724 25.4956 313.987 25.6606C314.253 25.8215 314.569 25.9019 314.933 25.9019C315.216 25.9019 315.459 25.8617 315.663 25.7812C315.87 25.6966 316.037 25.5972 316.164 25.4829C316.291 25.3644 316.38 25.2523 316.431 25.1465L316.45 25.1021H317.948L317.935 25.1592C317.88 25.3835 317.778 25.612 317.63 25.8447C317.486 26.0732 317.29 26.2869 317.04 26.4858C316.795 26.6805 316.494 26.8392 316.139 26.9619C315.783 27.0804 315.371 27.1396 314.901 27.1396ZM323.229 27V17.8403H324.867V25.6226H329.062V27H323.229ZM330.688 27V20.062H332.262V27H330.688ZM331.481 18.9004C331.223 18.9004 331.001 18.8094 330.814 18.6274C330.628 18.4455 330.535 18.2275 330.535 17.9736C330.535 17.7113 330.628 17.4912 330.814 17.3135C331.001 17.1315 331.223 17.0405 331.481 17.0405C331.739 17.0405 331.959 17.1315 332.141 17.3135C332.327 17.4912 332.42 17.7113 332.42 17.9736C332.42 18.2275 332.327 18.4455 332.141 18.6274C331.959 18.8094 331.739 18.9004 331.481 18.9004ZM334.718 27V21.2871H333.582V20.062H334.718V19.3765C334.718 18.911 334.797 18.5259 334.953 18.2212C335.114 17.9165 335.361 17.6901 335.696 17.542C336.03 17.3896 336.453 17.3135 336.965 17.3135C337.135 17.3135 337.291 17.3198 337.435 17.3325C337.579 17.341 337.712 17.3558 337.835 17.377V18.4814C337.776 18.473 337.7 18.4666 337.606 18.4624C337.513 18.4539 337.412 18.4497 337.302 18.4497C336.929 18.4497 336.665 18.5365 336.508 18.71C336.352 18.8792 336.273 19.131 336.273 19.4653V20.062H337.778V21.2871H336.299V27H334.718ZM342.069 27.0317C341.273 27.0317 340.7 26.8857 340.349 26.5938C339.997 26.3018 339.822 25.8236 339.822 25.1592V21.2871H338.743V20.062H339.822V18.3608H341.428V20.062H342.888V21.2871H341.428V24.7847C341.428 25.1274 341.5 25.3792 341.644 25.54C341.792 25.6966 342.029 25.7749 342.354 25.7749C342.469 25.7749 342.562 25.7728 342.634 25.7686C342.71 25.7601 342.795 25.7516 342.888 25.7432V26.9619C342.778 26.9831 342.651 27 342.507 27.0127C342.367 27.0254 342.221 27.0317 342.069 27.0317ZM347.001 27.1396C346.413 27.1396 345.905 27.0571 345.478 26.8921C345.054 26.7228 344.72 26.4901 344.475 26.1938C344.229 25.8934 344.083 25.5464 344.037 25.1528V25.1401H345.604L345.611 25.1528C345.695 25.394 345.854 25.5908 346.087 25.7432C346.32 25.8955 346.633 25.9717 347.026 25.9717C347.289 25.9717 347.519 25.9357 347.718 25.8638C347.917 25.7876 348.074 25.6839 348.188 25.5527C348.302 25.4215 348.359 25.2692 348.359 25.0957V25.083C348.359 24.8799 348.277 24.7106 348.112 24.5752C347.947 24.4355 347.674 24.3234 347.293 24.2388L346.169 23.9849C345.729 23.8875 345.365 23.7521 345.078 23.5786C344.79 23.4051 344.574 23.1914 344.43 22.9375C344.291 22.6836 344.221 22.3874 344.221 22.0488V22.0425C344.221 21.6235 344.337 21.2554 344.57 20.938C344.807 20.6206 345.135 20.373 345.554 20.1953C345.973 20.0176 346.455 19.9287 347.001 19.9287C347.564 19.9287 348.048 20.0133 348.455 20.1826C348.861 20.3519 349.178 20.5846 349.407 20.8809C349.635 21.1771 349.766 21.5135 349.8 21.8901V21.9028H348.315L348.309 21.8838C348.249 21.6637 348.108 21.4775 347.883 21.3252C347.663 21.1686 347.367 21.0903 346.995 21.0903C346.762 21.0903 346.552 21.1263 346.366 21.1982C346.184 21.2702 346.04 21.3717 345.935 21.5029C345.833 21.6299 345.782 21.7801 345.782 21.9536V21.96C345.782 22.0954 345.816 22.2139 345.884 22.3154C345.956 22.417 346.068 22.5059 346.22 22.582C346.373 22.6582 346.574 22.7259 346.823 22.7852L347.947 23.0327C348.628 23.1851 349.132 23.4115 349.458 23.7119C349.783 24.0124 349.946 24.4165 349.946 24.9243V24.937C349.946 25.3771 349.819 25.7622 349.565 26.0923C349.312 26.4224 348.962 26.6805 348.518 26.8667C348.074 27.0487 347.568 27.1396 347.001 27.1396Z" fill="white"/>
<path d="M287.022 27V17.8403H288.66V25.6226H292.855V27H287.022ZM294.48 27V20.062H296.055V27H294.48ZM295.274 18.9004C295.016 18.9004 294.794 18.8094 294.607 18.6274C294.421 18.4455 294.328 18.2275 294.328 17.9736C294.328 17.7113 294.421 17.4912 294.607 17.3135C294.794 17.1315 295.016 17.0405 295.274 17.0405C295.532 17.0405 295.752 17.1315 295.934 17.3135C296.12 17.4912 296.213 17.7113 296.213 17.9736C296.213 18.2275 296.12 18.4455 295.934 18.6274C295.752 18.8094 295.532 18.9004 295.274 18.9004ZM300.733 27.0317C299.937 27.0317 299.364 26.8857 299.013 26.5938C298.661 26.3018 298.486 25.8236 298.486 25.1592V21.2871H297.407V20.062H298.486V18.3608H300.092V20.062H301.552V21.2871H300.092V24.7847C300.092 25.1274 300.164 25.3792 300.308 25.54C300.456 25.6966 300.693 25.7749 301.019 25.7749C301.133 25.7749 301.226 25.7728 301.298 25.7686C301.374 25.7601 301.459 25.7516 301.552 25.7432V26.9619C301.442 26.9831 301.315 27 301.171 27.0127C301.031 27.0254 300.885 27.0317 300.733 27.0317ZM305.9 27.0317C305.104 27.0317 304.531 26.8857 304.18 26.5938C303.828 26.3018 303.653 25.8236 303.653 25.1592V21.2871H302.574V20.062H303.653V18.3608H305.259V20.062H306.719V21.2871H305.259V24.7847C305.259 25.1274 305.331 25.3792 305.475 25.54C305.623 25.6966 305.86 25.7749 306.186 25.7749C306.3 25.7749 306.393 25.7728 306.465 25.7686C306.541 25.7601 306.626 25.7516 306.719 25.7432V26.9619C306.609 26.9831 306.482 27 306.338 27.0127C306.198 27.0254 306.052 27.0317 305.9 27.0317ZM308.363 27V17.377H309.943V27H308.363ZM314.901 27.1396C314.211 27.1396 313.619 26.9937 313.124 26.7017C312.633 26.4097 312.254 25.995 311.987 25.4575C311.721 24.9201 311.587 24.2832 311.587 23.5469V23.5405C311.587 22.8127 311.719 22.1779 311.981 21.6362C312.248 21.0946 312.624 20.6756 313.111 20.3794C313.597 20.0789 314.169 19.9287 314.825 19.9287C315.485 19.9287 316.052 20.0747 316.526 20.3667C317.004 20.6545 317.372 21.0586 317.63 21.5791C317.889 22.0996 318.018 22.709 318.018 23.4072V23.9277H312.381V22.8677H317.243L316.494 23.8579V23.2295C316.494 22.7682 316.424 22.3853 316.285 22.0806C316.145 21.7759 315.95 21.5474 315.701 21.395C315.455 21.2427 315.17 21.1665 314.844 21.1665C314.518 21.1665 314.228 21.2469 313.974 21.4077C313.724 21.5643 313.526 21.797 313.377 22.106C313.234 22.4106 313.162 22.7852 313.162 23.2295V23.8643C313.162 24.2917 313.234 24.6577 313.377 24.9624C313.521 25.2629 313.724 25.4956 313.987 25.6606C314.253 25.8215 314.569 25.9019 314.933 25.9019C315.216 25.9019 315.459 25.8617 315.663 25.7812C315.87 25.6966 316.037 25.5972 316.164 25.4829C316.291 25.3644 316.38 25.2523 316.431 25.1465L316.45 25.1021H317.948L317.935 25.1592C317.88 25.3835 317.778 25.612 317.63 25.8447C317.486 26.0732 317.29 26.2869 317.04 26.4858C316.795 26.6805 316.494 26.8392 316.139 26.9619C315.783 27.0804 315.371 27.1396 314.901 27.1396ZM323.229 27V17.8403H324.867V25.6226H329.062V27H323.229ZM330.688 27V20.062H332.262V27H330.688ZM331.481 18.9004C331.223 18.9004 331.001 18.8094 330.814 18.6274C330.628 18.4455 330.535 18.2275 330.535 17.9736C330.535 17.7113 330.628 17.4912 330.814 17.3135C331.001 17.1315 331.223 17.0405 331.481 17.0405C331.739 17.0405 331.959 17.1315 332.141 17.3135C332.327 17.4912 332.42 17.7113 332.42 17.9736C332.42 18.2275 332.327 18.4455 332.141 18.6274C331.959 18.8094 331.739 18.9004 331.481 18.9004ZM334.718 27V21.2871H333.582V20.062H334.718V19.3765C334.718 18.911 334.797 18.5259 334.953 18.2212C335.114 17.9165 335.361 17.6901 335.696 17.542C336.03 17.3896 336.453 17.3135 336.965 17.3135C337.135 17.3135 337.291 17.3198 337.435 17.3325C337.579 17.341 337.712 17.3558 337.835 17.377V18.4814C337.776 18.473 337.7 18.4666 337.606 18.4624C337.513 18.4539 337.412 18.4497 337.302 18.4497C336.929 18.4497 336.665 18.5365 336.508 18.71C336.352 18.8792 336.273 19.131 336.273 19.4653V20.062H337.778V21.2871H336.299V27H334.718ZM342.069 27.0317C341.273 27.0317 340.7 26.8857 340.349 26.5938C339.997 26.3018 339.822 25.8236 339.822 25.1592V21.2871H338.743V20.062H339.822V18.3608H341.428V20.062H342.888V21.2871H341.428V24.7847C341.428 25.1274 341.5 25.3792 341.644 25.54C341.792 25.6966 342.029 25.7749 342.354 25.7749C342.469 25.7749 342.562 25.7728 342.634 25.7686C342.71 25.7601 342.795 25.7516 342.888 25.7432V26.9619C342.778 26.9831 342.651 27 342.507 27.0127C342.367 27.0254 342.221 27.0317 342.069 27.0317ZM347.001 27.1396C346.413 27.1396 345.905 27.0571 345.478 26.8921C345.054 26.7228 344.72 26.4901 344.475 26.1938C344.229 25.8934 344.083 25.5464 344.037 25.1528V25.1401H345.604L345.611 25.1528C345.695 25.394 345.854 25.5908 346.087 25.7432C346.32 25.8955 346.633 25.9717 347.026 25.9717C347.289 25.9717 347.519 25.9357 347.718 25.8638C347.917 25.7876 348.074 25.6839 348.188 25.5527C348.302 25.4215 348.359 25.2692 348.359 25.0957V25.083C348.359 24.8799 348.277 24.7106 348.112 24.5752C347.947 24.4355 347.674 24.3234 347.293 24.2388L346.169 23.9849C345.729 23.8875 345.365 23.7521 345.078 23.5786C344.79 23.4051 344.574 23.1914 344.43 22.9375C344.291 22.6836 344.221 22.3874 344.221 22.0488V22.0425C344.221 21.6235 344.337 21.2554 344.57 20.938C344.807 20.6206 345.135 20.373 345.554 20.1953C345.973 20.0176 346.455 19.9287 347.001 19.9287C347.564 19.9287 348.048 20.0133 348.455 20.1826C348.861 20.3519 349.178 20.5846 349.407 20.8809C349.635 21.1771 349.766 21.5135 349.8 21.8901V21.9028H348.315L348.309 21.8838C348.249 21.6637 348.108 21.4775 347.883 21.3252C347.663 21.1686 347.367 21.0903 346.995 21.0903C346.762 21.0903 346.552 21.1263 346.366 21.1982C346.184 21.2702 346.04 21.3717 345.935 21.5029C345.833 21.6299 345.782 21.7801 345.782 21.9536V21.96C345.782 22.0954 345.816 22.2139 345.884 22.3154C345.956 22.417 346.068 22.5059 346.22 22.582C346.373 22.6582 346.574 22.7259 346.823 22.7852L347.947 23.0327C348.628 23.1851 349.132 23.4115 349.458 23.7119C349.783 24.0124 349.946 24.4165 349.946 24.9243V24.937C349.946 25.3771 349.819 25.7622 349.565 26.0923C349.312 26.4224 348.962 26.6805 348.518 26.8667C348.074 27.0487 347.568 27.1396 347.001 27.1396Z" fill="white" style="mix-blend-mode:color-dodge"/>
</g>
</g>
<rect x="249.25" y="4.25" width="118.167" height="35.5" rx="17.75" stroke="url(#paint0_linear_1022_1193)" stroke-width="0.5" shape-rendering="crispEdges"/>
</g>
</g>
</g>
<defs>
<filter id="filter0_iiii_1022_1193" x="0" y="-0.5" width="373" height="46" filterUnits="userSpaceOnUse" color-interpolation-filters="sRGB">
<feFlood flood-opacity="0" result="BackgroundImageFix"/>
<feBlend mode="normal" in="SourceGraphic" in2="BackgroundImageFix" result="shape"/>
<feColorMatrix in="SourceAlpha" type="matrix" values="0 0 0 0 0 0 0 0 0 0 0 0 0 0 0 0 0 0 127 0" result="hardAlpha"/>
<feOffset dx="1" dy="1.5"/>
<feGaussianBlur stdDeviation="2"/>
<feComposite in2="hardAlpha" operator="arithmetic" k2="-1" k3="1"/>
<feColorMatrix type="matrix" values="0 0 0 0 0 0 0 0 0 0 0 0 0 0 0 0 0 0 0.1 0"/>
<feBlend mode="normal" in2="shape" result="effect1_innerShadow_1022_1193"/>
<feColorMatrix in="SourceAlpha" type="matrix" values="0 0 0 0 0 0 0 0 0 0 0 0 0 0 0 0 0 0 127 0" result="hardAlpha"/>
<feOffset dx="1" dy="1.5"/>
<feGaussianBlur stdDeviation="2"/>
<feComposite in2="hardAlpha" operator="arithmetic" k2="-1" k3="1"/>
<feColorMatrix type="matrix" values="0 0 0 0 0 0 0 0 0 0 0 0 0 0 0 0 0 0 0.08 0"/>
<feBlend mode="overlay" in2="effect1_innerShadow_1022_1193" result="effect2_innerShadow_1022_1193"/>
<feColorMatrix in="SourceAlpha" type="matrix" values="0 0 0 0 0 0 0 0 0 0 0 0 0 0 0 0 0 0 127 0" result="hardAlpha"/>
<feOffset dy="-0.5"/>
<feGaussianBlur stdDeviation="0.5"/>
<feComposite in2="hardAlpha" operator="arithmetic" k2="-1" k3="1"/>
<feColorMatrix type="matrix" values="0 0 0 0 1 0 0 0 0 1 0 0 0 0 1 0 0 0 0.25 0"/>
<feBlend mode="normal" in2="effect2_innerShadow_1022_1193" result="effect3_innerShadow_1022_1193"/>
<feColorMatrix in="SourceAlpha" type="matrix" values="0 0 0 0 0 0 0 0 0 0 0 0 0 0 0 0 0 0 127 0" result="hardAlpha"/>
<feOffset dy="-0.5"/>
<feGaussianBlur stdDeviation="0.5"/>
<feComposite in2="hardAlpha" operator="arithmetic" k2="-1" k3="1"/>
<feColorMatrix type="matrix" values="0 0 0 0 1 0 0 0 0 1 0 0 0 0 1 0 0 0 0.3 0"/>
<feBlend mode="overlay" in2="effect3_innerShadow_1022_1193" result="effect4_innerShadow_1022_1193"/>
</filter>
<filter id="filter1_d_1022_1193" x="0" y="1" width="126.667" height="44" filterUnits="userSpaceOnUse" color-interpolation-filters="sRGB">
<feFlood flood-opacity="0" result="BackgroundImageFix"/>
<feColorMatrix in="SourceAlpha" type="matrix" values="0 0 0 0 0 0 0 0 0 0 0 0 0 0 0 0 0 0 127 0" result="hardAlpha"/>
<feOffset dy="1"/>
<feGaussianBlur stdDeviation="2"/>
<feComposite in2="hardAlpha" operator="out"/>
<feColorMatrix type="matrix" values="0 0 0 0 0 0 0 0 0 0 0 0 0 0 0 0 0 0 0.1 0"/>
<feBlend mode="normal" in2="BackgroundImageFix" result="effect1_dropShadow_1022_1193"/>
<feBlend mode="normal" in="SourceGraphic" in2="effect1_dropShadow_1022_1193" result="shape"/>
</filter>
<filter id="filter2_d_1022_1193" x="245" y="2" width="126.667" height="44" filterUnits="userSpaceOnUse" color-interpolation-filters="sRGB">
<feFlood flood-opacity="0" result="BackgroundImageFix"/>
<feColorMatrix in="SourceAlpha" type="matrix" values="0 0 0 0 0 0 0 0 0 0 0 0 0 0 0 0 0 0 127 0" result="hardAlpha"/>
<feOffset dy="2"/>
<feGaussianBlur stdDeviation="2"/>
<feComposite in2="hardAlpha" operator="out"/>
<feColorMatrix type="matrix" values="0 0 0 0 0 0 0 0 0 0 0 0 0 0 0 0 0 0 0.1 0"/>
<feBlend mode="normal" in2="BackgroundImageFix" result="effect1_dropShadow_1022_1193"/>
<feBlend mode="normal" in="SourceGraphic" in2="effect1_dropShadow_1022_1193" result="shape"/>
</filter>
<filter id="filter3_d_1022_1193" x="245" y="1" width="126.667" height="44" filterUnits="userSpaceOnUse" color-interpolation-filters="sRGB">
<feFlood flood-opacity="0" result="BackgroundImageFix"/>
<feColorMatrix in="SourceAlpha" type="matrix" values="0 0 0 0 0 0 0 0 0 0 0 0 0 0 0 0 0 0 127 0" result="hardAlpha"/>
<feOffset dy="1"/>
<feGaussianBlur stdDeviation="2"/>
<feComposite in2="hardAlpha" operator="out"/>
<feColorMatrix type="matrix" values="0 0 0 0 0 0 0 0 0 0 0 0 0 0 0 0 0 0 0.1 0"/>
<feBlend mode="normal" in2="BackgroundImageFix" result="effect1_dropShadow_1022_1193"/>
<feBlend mode="normal" in="SourceGraphic" in2="effect1_dropShadow_1022_1193" result="shape"/>
</filter>
<linearGradient id="paint0_linear_1022_1193" x1="259.012" y1="4.675" x2="266.517" y2="46.0149" gradientUnits="userSpaceOnUse">
<stop stop-color="white" stop-opacity="0.4"/>
<stop offset="0.405687" stop-color="white" stop-opacity="0.01"/>
<stop offset="0.574372" stop-color="white" stop-opacity="0.01"/>
<stop offset="1" stop-color="white" stop-opacity="0.1"/>
</linearGradient>
<clipPath id="clip0_1022_1193">
<rect width="372" height="44" rx="22" fill="white"/>
</clipPath>
<clipPath id="clip1_1022_1193">
<rect width="16" height="14" fill="white" transform="translate(34.8333 15)"/>
</clipPath>
<clipPath id="clip2_1022_1193">
<rect x="249" y="4" width="118.667" height="36" rx="18" fill="white"/>
</clipPath>
</defs>
</svg>
