<svg width="314" height="64" viewBox="0 0 314 64" fill="none" xmlns="http://www.w3.org/2000/svg">
<path d="M313.3 0.700195V12.7998C313.3 21.7722 313.299 28.4598 312.866 33.7607C312.461 38.7225 311.68 42.4156 310.195 45.583L309.889 46.21C306.982 51.9153 302.397 56.5869 296.759 59.6016L296.21 59.8887C292.903 61.5739 289.053 62.4338 283.761 62.8662C278.46 63.2993 271.772 63.2998 262.8 63.2998H51.2002C42.2278 63.2998 35.5402 63.2993 30.2393 62.8662C24.9466 62.4338 21.0974 61.5739 17.79 59.8887C11.9006 56.8878 7.11216 52.0994 4.11133 46.21C2.42612 42.9026 1.56623 39.0534 1.13379 33.7607C0.700684 28.4598 0.700195 21.7722 0.700195 12.7998V0.700195H313.3Z" fill="#FF0000" fill-opacity="0.18" style="mix-blend-mode:saturation"/>
<path d="M313.3 0.700195V12.7998C313.3 21.7722 313.299 28.4598 312.866 33.7607C312.461 38.7225 311.68 42.4156 310.195 45.583L309.889 46.21C306.982 51.9153 302.397 56.5869 296.759 59.6016L296.21 59.8887C292.903 61.5739 289.053 62.4338 283.761 62.8662C278.46 63.2993 271.772 63.2998 262.8 63.2998H51.2002C42.2278 63.2998 35.5402 63.2993 30.2393 62.8662C24.9466 62.4338 21.0974 61.5739 17.79 59.8887C11.9006 56.8878 7.11216 52.0994 4.11133 46.21C2.42612 42.9026 1.56623 39.0534 1.13379 33.7607C0.700684 28.4598 0.700195 21.7722 0.700195 12.7998V0.700195H313.3Z" fill="#959595" fill-opacity="0.25"/>
<path d="M313.3 0.700195V12.7998C313.3 21.7722 313.299 28.4598 312.866 33.7607C312.461 38.7225 311.68 42.4156 310.195 45.583L309.889 46.21C306.982 51.9153 302.397 56.5869 296.759 59.6016L296.21 59.8887C292.903 61.5739 289.053 62.4338 283.761 62.8662C278.46 63.2993 271.772 63.2998 262.8 63.2998H51.2002C42.2278 63.2998 35.5402 63.2993 30.2393 62.8662C24.9466 62.4338 21.0974 61.5739 17.79 59.8887C11.9006 56.8878 7.11216 52.0994 4.11133 46.21C2.42612 42.9026 1.56623 39.0534 1.13379 33.7607C0.700684 28.4598 0.700195 21.7722 0.700195 12.7998V0.700195H313.3Z" stroke="url(#paint0_linear_1415_1270)" stroke-width="1.4"/>
<defs>
<linearGradient id="paint0_linear_1415_1270" x1="21.9973" y1="-1.419e-05" x2="29.3274" y2="82.7933" gradientUnits="userSpaceOnUse">
<stop stop-color="white" stop-opacity="0.4"/>
<stop offset="0.405687" stop-color="white" stop-opacity="0.01"/>
<stop offset="0.574372" stop-color="white" stop-opacity="0.01"/>
<stop offset="1" stop-color="white" stop-opacity="0.1"/>
</linearGradient>
</defs>
</svg>
