<svg width="45" height="39" viewBox="0 0 45 39" fill="none" xmlns="http://www.w3.org/2000/svg">
<path d="M2.83535 13.3407C5.8846 12.3983 9.04649 11.9161 12.0534 11.9161C15.9025 11.9161 18.7814 12.5257 22.4592 12.5257C26.3785 12.5257 28.9589 9.82221 28.9589 6.2527C28.9589 2.6388 26.1975 0.000976562 22.7344 0.000976562C20.2868 0.000976562 18.0615 1.51526 17.0779 3.6053C16.6448 4.46746 16.8257 5.43574 17.6814 5.91213C18.5206 6.37986 19.5551 6.09343 20.0941 5.09623C20.5398 4.13551 21.5754 3.40144 22.7344 3.40144C24.344 3.40144 25.5654 4.5107 25.5654 6.2527C25.5654 8.00146 24.3594 9.13966 22.4592 9.13966C19.0114 9.13966 16.0565 8.52334 12.0534 8.52334C8.61526 8.52334 5.0742 9.11843 1.82 10.0955C0.775758 10.3906 0.315747 11.3232 0.574636 12.2336C0.84026 13.1652 1.72086 13.6638 2.83535 13.3407ZM36.1086 23.6828C41.1906 23.6828 44.8259 20.4007 44.8259 15.8397C44.8259 11.3558 41.3869 8.0534 37.0558 8.0534C33.3307 8.0534 30.3653 10.5853 29.6415 13.9987C29.3999 15.0181 29.8802 15.9208 30.7773 16.1484C31.7225 16.3894 32.6425 15.8609 32.9331 14.7219C33.347 12.7705 35.068 11.4394 37.0558 11.4394C39.4978 11.4394 41.4324 13.2489 41.4324 15.8397C41.4324 18.4796 39.3369 20.2968 36.1086 20.2968C29.6838 20.2968 22.6026 16.6047 14.1054 16.6047C9.71638 16.6047 5.66135 17.2982 1.81326 18.607C0.783467 18.9658 0.315747 19.8704 0.574636 20.774C0.846993 21.7124 1.76223 22.2255 2.84883 21.8463C6.36101 20.5646 9.98103 20.0119 14.1054 20.0119C22.4803 20.0119 28.8513 23.6828 36.1086 23.6828ZM22.4803 39C25.9299 39 28.5777 36.4122 28.5777 32.805C28.5777 27.595 23.2656 24.686 13.6618 24.686C9.73667 24.686 5.46696 25.4365 1.81326 26.6672C0.783467 27.0259 0.315747 27.9305 0.574636 28.8274C0.846993 29.7657 1.76223 30.2856 2.84883 29.9067C6.1955 28.7173 9.89739 28.0865 13.6618 28.0865C21.1061 28.0865 25.1987 29.923 25.1987 32.805C25.1987 34.547 24.0118 35.6138 22.4803 35.6138C21.0499 35.6138 20.1278 34.6648 19.7774 33.1186C19.5023 32.1916 18.6881 31.5811 17.6766 31.7999C16.6294 32.0189 16.228 33.0275 16.5167 34.0459C17.1335 36.8537 19.3887 39 22.4803 39Z" fill="white" fill-opacity="0.85"/>
</svg>
