<svg width="24" height="20" viewBox="0 0 24 20" fill="none" xmlns="http://www.w3.org/2000/svg">
<g clip-path="url(#clip0_799_3763)">
<path d="M1.60507 6.84136C3.23134 6.35811 4.91768 6.11079 6.52136 6.11079C8.57423 6.11079 10.1096 6.4234 12.0711 6.4234C14.1614 6.4234 15.5376 5.03702 15.5376 3.2065C15.5376 1.35322 14.0649 0.000488281 12.2179 0.000488281C10.9125 0.000488281 9.7257 0.777042 9.2011 1.84886C8.97012 2.29099 9.06661 2.78755 9.52294 3.03185C9.97052 3.27171 10.5223 3.12482 10.8097 2.61344C11.0474 2.12076 11.5998 1.74432 12.2179 1.74432C13.0763 1.74432 13.7278 2.31317 13.7278 3.2065C13.7278 4.1033 13.0845 4.68699 12.0711 4.68699C10.2323 4.68699 8.65636 4.37093 6.52136 4.37093C4.68769 4.37093 2.79912 4.67611 1.06355 5.17716C0.506621 5.3285 0.261282 5.80675 0.399356 6.27361C0.541022 6.75135 1.01067 7.00705 1.60507 6.84136ZM19.3508 12.145C22.0612 12.145 24 10.4619 24 8.12289C24 5.82345 22.1659 4.12993 19.856 4.12993C17.8693 4.12993 16.2877 5.42835 15.9017 7.17883C15.7729 7.70159 16.029 8.1645 16.5074 8.2812C17.0115 8.4048 17.5022 8.13377 17.6572 7.54966C17.878 6.54898 18.7958 5.86635 19.856 5.86635C21.1584 5.86635 22.1902 6.79429 22.1902 8.12289C22.1902 9.47671 21.0726 10.4086 19.3508 10.4086C15.9242 10.4086 12.1476 8.51522 7.61579 8.51522C5.27495 8.51522 3.11227 8.87085 1.05996 9.54204C0.510732 9.72603 0.261282 10.1899 0.399356 10.6533C0.544613 11.1345 1.03274 11.3977 1.61226 11.2032C3.48542 10.5459 5.4161 10.2625 7.61579 10.2625C12.0824 10.2625 15.4803 12.145 19.3508 12.145ZM12.0824 20C13.9222 20 15.3343 18.6729 15.3343 16.8231C15.3343 14.1513 12.5012 12.6595 7.3792 12.6595C5.28578 12.6595 3.00859 13.0444 1.05996 13.6755C0.510732 13.8594 0.261282 14.3233 0.399356 14.7833C0.544613 15.2644 1.03274 15.5311 1.61226 15.3367C3.39715 14.7268 5.37149 14.4033 7.3792 14.4033C11.3495 14.4033 13.5322 15.3451 13.5322 16.8231C13.5322 17.7164 12.8992 18.2635 12.0824 18.2635C11.3195 18.2635 10.8277 17.7768 10.6409 16.9839C10.4941 16.5085 10.0599 16.1954 9.52038 16.3076C8.96189 16.4199 8.74783 16.9372 8.90179 17.4594C9.23077 18.8993 10.4335 20 12.0824 20Z" fill="white" fill-opacity="0.85"/>
</g>
<defs>
<clipPath id="clip0_799_3763">
<rect width="24" height="20" fill="white"/>
</clipPath>
</defs>
</svg>
