<svg width="10" height="10" viewBox="0 0 10 10" fill="none" xmlns="http://www.w3.org/2000/svg">
<g clip-path="url(#clip0_1251_1459)">
<path d="M2.69331 7.21479C4.23986 8.79489 6.09152 9.99468 7.58022 9.99468C8.27984 9.99468 8.89003 9.71079 9.28983 9.2555C9.67384 8.81628 9.80533 8.48956 9.80533 8.20035C9.80533 7.97536 9.66856 7.7665 9.32139 7.52007L8.03787 6.58279C7.71699 6.35243 7.57494 6.30959 7.38555 6.30959C7.22249 6.30959 7.08573 6.34173 6.8122 6.49169L5.97053 6.96304C5.87056 7.02195 5.82849 7.0327 5.75485 7.0327C5.65488 7.0327 5.58652 7.00588 5.48655 6.96304C5.08678 6.77558 4.52392 6.32566 4.02419 5.81684C3.52445 5.30798 3.13518 4.78844 2.93529 4.38672C2.90899 4.33316 2.87743 4.24746 2.87743 4.16176C2.87743 4.09213 2.91425 4.03322 2.95633 3.95823L3.45081 3.09588C3.58758 2.8602 3.6244 2.73166 3.6244 2.54955C3.6244 2.34066 3.55601 2.1157 3.36138 1.83182L2.47764 0.57847C2.22514 0.219604 2.03577 0 1.7517 0C1.39926 0 0.973169 0.273166 0.668065 0.573112C0.231457 1.00161 0 1.6015 0 2.27638C0 3.80289 1.15202 5.65076 2.69331 7.21479Z" fill="white"/>
</g>
<defs>
<clipPath id="clip0_1251_1459">
<rect width="10" height="10" fill="white"/>
</clipPath>
</defs>
</svg>
