<svg width="6" height="8" viewBox="0 0 6 8" fill="none" xmlns="http://www.w3.org/2000/svg">
<path d="M5.99852 3.99915C5.99435 3.8023 5.91082 3.64517 5.72078 3.49321L1.59639 0.176128C1.4523 0.0569827 1.28106 0 1.07223 0C0.652478 0 0.309998 0.27628 0.309998 0.621629C0.309998 0.790848 0.39562 0.951435 0.552246 1.07749L4.20886 3.99569L0.552246 6.91735C0.397707 7.04514 0.309998 7.20057 0.309998 7.37491C0.309998 7.72027 0.652478 8 1.07223 8C1.27689 8 1.4523 7.9413 1.59639 7.82219L5.72078 4.50509C5.91291 4.34968 5.99852 4.19082 5.99852 3.99915Z" fill="white"/>
</svg>
