<svg width="7" height="11" viewBox="0 0 7 11" fill="none" xmlns="http://www.w3.org/2000/svg">
<path d="M7 5.49894C6.99486 5.25288 6.89208 5.05646 6.65823 4.86651L1.58297 0.72016C1.40565 0.571228 1.19494 0.5 0.937966 0.5C0.421438 0.5 0 0.84535 0 1.27704C0 1.48856 0.105362 1.68929 0.298098 1.84687L4.79773 5.49462L0.298098 9.14669C0.107931 9.30642 0 9.50071 0 9.71864C0 10.1503 0.421438 10.5 0.937966 10.5C1.1898 10.5 1.40565 10.4266 1.58297 10.2777L6.65823 6.13136C6.89465 5.9371 7 5.73852 7 5.49894Z" fill="white"/>
</svg>
