<svg width="16" height="19" viewBox="0 0 16 19" fill="none" xmlns="http://www.w3.org/2000/svg">
<path d="M15.0399 9.08606C15.0311 8.63882 14.8558 8.28181 14.4569 7.93656L5.79901 0.400162C5.49653 0.129465 5.13708 0 4.6987 0C3.81756 0 3.09863 0.627707 3.09863 1.41234C3.09863 1.7968 3.27837 2.16166 3.60716 2.44806L11.2831 9.07821L3.60716 15.7162C3.28275 16.0065 3.09863 16.3597 3.09863 16.7558C3.09863 17.5404 3.81756 18.176 4.6987 18.176C5.12831 18.176 5.49653 18.0426 5.79901 17.772L14.4569 10.2355C14.8602 9.88246 15.0399 9.52153 15.0399 9.08606Z" fill="white"/>
</svg>
