<svg width="6" height="10" viewBox="0 0 6 10" fill="none" xmlns="http://www.w3.org/2000/svg">
<path d="M5.5 5.27637C5.49697 5.07342 5.42643 4.90406 5.26891 4.74532L1.5987 1.00831C1.47329 0.881352 1.32576 0.819336 1.14546 0.819336C0.789643 0.819336 0.5 1.11385 0.5 1.48549C0.5 1.66793 0.572029 1.83728 0.701549 1.97213L3.96757 5.27479L0.701549 8.5806C0.57355 8.71388 0.5 8.8814 0.5 9.06885C0.5 9.43886 0.789643 9.735 1.14546 9.735C1.32272 9.735 1.47329 9.67296 1.5987 9.54262L5.26891 5.80742C5.42794 5.64529 5.5 5.47774 5.5 5.27637Z" fill="white" fill-opacity="0.85"/>
</svg>
