<svg width="32" height="21" viewBox="0 0 32 21" fill="none" xmlns="http://www.w3.org/2000/svg">
<g clip-path="url(#clip0_820_3490)">
<path d="M0 11.7892C0 17.3151 5.17432 21.0001 12.948 21.0001C20.7379 21.0001 25.9091 17.3183 25.9091 11.7892C25.9091 9.34601 20.5536 7.47483 12.948 7.47483C5.35554 7.47483 0 9.34601 0 11.7892ZM2.05093 11.7892C2.05093 10.7764 7.62321 9.42029 12.948 9.42029C18.276 9.42029 23.8549 10.7764 23.8549 11.7892C23.8549 12.7655 18.5307 14.1031 12.948 14.1031C7.36846 14.1031 2.05093 12.7655 2.05093 11.7892ZM23.8006 10.9401L30.4789 6.57298C33.2825 4.74295 30.5259 0.350055 27.0042 2.95582L18.9759 8.90517L23.8006 10.9401ZM6.94917 14.6307L18.0628 14.6578C18.1642 12.4209 16.383 10.8614 14.218 10.8614C12.9349 10.8614 11.7759 11.4155 11.0578 12.3001C10.7391 12.2061 10.4406 12.1628 10.0822 12.1628C8.46702 12.1628 7.10611 13.2437 6.94917 14.6307Z" fill="white" fill-opacity="0.85"/>
</g>
<defs>
<clipPath id="clip0_820_3490">
<rect width="32" height="21" fill="white"/>
</clipPath>
</defs>
</svg>
