<svg width="48" height="28" viewBox="0 0 48 28" fill="none" xmlns="http://www.w3.org/2000/svg">
<path d="M0.825928 14.4031C0.825928 22.5604 8.42571 28.0001 19.8433 28.0001C31.2847 28.0001 38.8799 22.565 38.8799 14.4031C38.8799 10.7964 31.014 8.0342 19.8433 8.0342C8.69188 8.0342 0.825928 10.7964 0.825928 14.4031ZM3.83823 14.4031C3.83823 12.9079 12.0225 10.9061 19.8433 10.9061C27.6688 10.9061 35.8629 12.9079 35.8629 14.4031C35.8629 15.8442 28.0429 17.8187 19.8433 17.8187C11.6484 17.8187 3.83823 15.8442 3.83823 14.4031ZM35.7831 13.1496L45.5919 6.70291C49.7096 4.00143 45.6608 -2.48332 40.4883 1.36328L28.6968 10.1457L35.7831 13.1496ZM11.0325 18.5976L27.3557 18.6376C27.5046 15.3356 24.8885 13.0334 21.7086 13.0334C19.824 13.0334 18.1218 13.8514 17.067 15.1572C16.5989 15.0185 16.1606 14.9545 15.6341 14.9545C13.2619 14.9545 11.263 16.5501 11.0325 18.5976Z" fill="white" fill-opacity="0.85"/>
</svg>
