<svg width="43" height="42" viewBox="0 0 43 42" fill="none" xmlns="http://www.w3.org/2000/svg">
<rect width="43" height="42" rx="21" fill="white" fill-opacity="0.07"/>
<rect width="43" height="42" rx="21" fill="white" fill-opacity="0.6" style="mix-blend-mode:color-dodge"/>
<g clip-path="url(#clip0_1186_1616)">
<path d="M23.5173 14.4721C24.7548 14.4721 25.7549 13.472 25.7549 12.2345C25.7549 10.997 24.7548 10 23.5173 10C22.2797 10 21.2828 10.997 21.2828 12.2345C21.2828 13.472 22.2797 14.4721 23.5173 14.4721ZM20.0501 23.1762L23.7903 25.279L21.3906 27.34C20.8544 27.7918 20.83 28.4208 21.186 28.8189C21.5518 29.2268 22.1745 29.2868 22.7365 28.8123L26.177 25.8791C26.6764 25.4512 26.5956 24.5492 25.9986 24.16L22.293 21.7328L23.0188 19.191C23.1071 18.8701 23.4742 18.8244 23.6673 19.1089L24.7664 20.7184C25.0389 21.1108 25.5445 21.2604 25.9893 21.0558L29.1533 19.6478C29.7405 19.3819 29.9643 18.8568 29.7081 18.3184C29.4485 17.7959 28.9362 17.6339 28.349 17.8936L25.8885 18.9807L24.1897 16.6374C23.2736 15.3737 22.1332 14.8694 20.2929 15.0061L16.7875 15.2534C16.2065 15.2955 15.8012 15.6782 15.7169 16.2818L15.2455 19.8329C15.1545 20.485 15.4852 20.9453 16.0751 21.0101C16.6623 21.062 17.0449 20.7216 17.1324 20.0695L17.5523 17.2153L18.9106 17.1176C19.1947 17.0945 19.454 17.2877 19.359 17.625L18.5458 20.477C18.0522 22.2143 19.1885 22.6884 20.0501 23.1762ZM13.3647 31.7814C13.7726 32.1307 14.379 32.1419 14.8925 31.6447L18.1218 28.4447C18.4041 28.1655 18.4658 28.0945 18.6318 27.6719L19.9382 24.2903L19.5445 24.0742C18.7837 23.6614 18.2413 23.2357 17.8711 22.7838L16.7214 26.8548L13.3781 30.1822C12.8387 30.7086 12.9147 31.3926 13.3647 31.7814Z" fill="white" fill-opacity="0.85"/>
</g>
<defs>
<clipPath id="clip0_1186_1616">
<rect width="17.1781" height="22.18" fill="white" transform="translate(13 10)"/>
</clipPath>
</defs>
</svg>
