<svg width="43" height="42" viewBox="0 0 43 42" fill="none" xmlns="http://www.w3.org/2000/svg">
<rect width="43" height="42" rx="21" fill="white" fill-opacity="0.6" style="mix-blend-mode:color-dodge"/>
<g clip-path="url(#clip0_1214_1191)">
<path d="M31.2549 17.0773L33.3767 20.1833C33.4596 20.2993 33.5472 20.4204 33.6141 20.5414C33.8024 20.8668 33.6963 21.3391 33.2554 21.5726C32.9151 21.759 32.5062 21.709 32.2459 21.4203C32.0274 21.1675 30.975 19.6865 30.3468 18.8141C30.28 18.7161 30.1487 18.7584 30.1487 18.8748C30.1513 19.7598 30.1833 21.4286 30.3192 22.2676C30.4842 23.2729 31.6643 28.1518 31.7282 28.3652C31.8798 28.9032 31.5399 29.3992 30.9874 29.3992C30.5861 29.3992 30.3022 29.1762 30.1561 28.6561C29.879 27.6666 29.0557 24.2955 28.7841 23.4848C28.5951 22.9109 28.4744 22.7147 28.1774 22.7147C27.8724 22.7147 27.7517 22.9109 27.5682 23.4848C27.2911 24.2955 26.4678 27.6666 26.1962 28.6561C26.0446 29.1762 25.7662 29.3992 25.3649 29.3992C24.8123 29.3992 24.467 28.9032 24.6241 28.3652C24.6826 28.1518 25.8626 23.2729 26.0276 22.2676C26.1635 21.4286 26.201 19.7651 26.2036 18.8802C26.2036 18.7584 26.0669 18.7214 26 18.8141C25.7615 19.1474 25.4619 19.5668 25.1699 19.9727C25.1357 19.6927 25.008 19.4242 24.7963 19.2054C24.5534 18.9525 24.2339 18.82 23.915 18.8035L25.0973 17.0773C25.7506 16.1237 26.5689 15.6543 28.1774 15.6543C29.7834 15.6543 30.5962 16.1237 31.2549 17.0773ZM29.9964 13.083C29.9964 14.0789 29.1854 14.8748 28.1774 14.8748C27.1694 14.8748 26.3559 14.0789 26.3559 13.083C26.3559 12.087 27.1694 11.2832 28.1774 11.2832C29.1854 11.2832 29.9964 12.087 29.9964 13.083Z" fill="white" fill-opacity="0.85"/>
<path d="M17.607 17.0773L18.789 18.8032C18.4671 18.8185 18.1443 18.9511 17.9 19.2054C17.6923 19.4226 17.5651 19.6899 17.5292 19.9689C17.2384 19.5633 16.9405 19.1449 16.7043 18.8141C16.632 18.7161 16.5007 18.7584 16.5007 18.8748C16.5033 19.7598 16.5353 21.4286 16.6712 22.2676C16.8417 23.2729 18.0217 28.1518 18.0802 28.3652C18.2318 28.9032 17.892 29.3992 17.3394 29.3992C16.9381 29.3992 16.6542 29.1762 16.5081 28.6561C16.2311 27.6666 15.4131 24.2955 15.1361 23.4848C14.9471 22.9109 14.8319 22.7147 14.5269 22.7147C14.2244 22.7147 14.1092 22.9109 13.9201 23.4848C13.6431 24.2955 12.8252 27.6666 12.5482 28.6561C12.4021 29.1762 12.1182 29.3992 11.7169 29.3992C11.1644 29.3992 10.8245 28.9032 10.9761 28.3652C11.0346 28.1518 12.212 23.2729 12.3796 22.2676C12.5156 21.4286 12.553 19.7651 12.5555 18.8802C12.5555 18.7584 12.4189 18.7214 12.352 18.8141C11.7293 19.6919 10.6714 21.1675 10.4529 21.4203C10.1981 21.709 9.78371 21.759 9.44892 21.5726C9.00254 21.3391 8.90185 20.8668 9.09014 20.5414C9.15158 20.4204 9.24464 20.2993 9.32207 20.1833L11.4494 17.0773C12.1026 16.1237 12.9209 15.6543 14.5269 15.6543C16.1354 15.6543 16.9537 16.1237 17.607 17.0773ZM16.3484 13.083C16.3484 14.0789 15.5349 14.8748 14.5269 14.8748C13.5189 14.8748 12.7079 14.0789 12.7079 13.083C12.7079 12.087 13.5189 11.2832 14.5269 11.2832C15.5349 11.2832 16.3484 12.087 16.3484 13.083Z" fill="white" fill-opacity="0.85"/>
<path d="M21.3479 20.3026C22.0975 20.3026 22.7092 19.701 22.7092 18.9603C22.7092 18.2223 22.0975 17.6182 21.3479 17.6182C20.5984 17.6182 19.987 18.2223 19.987 18.9603C19.987 19.701 20.5984 20.3026 21.3479 20.3026ZM19.5834 29.3994C19.9182 29.3994 20.189 29.2105 20.2981 28.7853C20.4737 28.1725 20.9793 26.056 21.1494 25.5406C21.241 25.2744 21.2701 25.2457 21.3504 25.2457C21.4308 25.2457 21.4545 25.2744 21.5461 25.5406C21.7162 26.056 22.2218 28.1725 22.4029 28.7853C22.5065 29.2105 22.7827 29.3994 23.1121 29.3994C23.601 29.3994 23.8954 28.948 23.7733 28.4969C23.7384 28.3852 23.007 25.3205 22.895 24.6815C22.81 24.1715 22.7885 23.2114 22.7885 22.7987C22.7885 22.5645 22.8634 22.4093 22.9888 22.2588C23.5901 21.5251 24.3585 20.6559 24.4541 20.5166C24.6563 20.2225 24.5868 19.8658 24.3531 19.6294C24.0772 19.3353 23.6232 19.3381 23.3945 19.577L22.4984 20.5252C22.1364 20.9092 21.8405 21.0805 21.3504 21.0805C20.8605 21.0805 20.5645 20.9092 20.2025 20.5252L19.3065 19.577C19.0778 19.3381 18.6183 19.3353 18.3479 19.6294C18.1087 19.8658 18.0447 20.2225 18.2413 20.5166C18.3345 20.6559 19.1109 21.5251 19.7122 22.2588C19.8375 22.4093 19.907 22.5645 19.907 22.7987C19.907 23.2114 19.8885 24.1715 19.8059 24.6815C19.694 25.3205 18.9626 28.3852 18.9222 28.4969C18.8055 28.948 19.1 29.3994 19.5834 29.3994Z" fill="white" fill-opacity="0.85"/>
</g>
<defs>
<clipPath id="clip0_1214_1191">
<rect width="25" height="19" fill="white" transform="translate(9 11)"/>
</clipPath>
</defs>
</svg>
