<svg width="17" height="21" viewBox="0 0 17 21" fill="none" xmlns="http://www.w3.org/2000/svg">
<g clip-path="url(#clip0_534_3004)">
<path d="M7.85515 19.4039C13.1264 19.4039 16.6427 16.1811 16.6427 11.3375C16.6427 3.3464 9.09611 0 3.91957 0C2.8674 0 2.17123 0.373062 2.17123 1.06818C2.17123 1.33762 2.30203 1.62141 2.53249 1.86535C3.75854 3.20825 4.82183 4.57878 4.835 6.23391C4.835 6.52537 4.80207 6.78134 4.58515 7.14137L5.00355 7.0481C4.43382 5.63346 3.40036 4.91104 2.46262 4.91104C1.9653 4.91104 1.62732 5.22154 1.62732 5.72215C1.62732 6.02546 1.69799 6.47396 1.69799 6.93512C1.69799 8.97484 0 9.9285 0 13.2143C0 16.9294 3.13346 19.4039 7.85515 19.4039ZM8.0957 16.5241C6.30198 16.5241 5.11363 15.5527 5.11363 14.0989C5.11363 12.5917 6.27785 12.1117 6.42623 11.012C6.44248 10.8912 6.56799 10.8258 6.69088 10.9258C7.10136 11.2771 7.3788 11.7128 7.60182 12.252C8.08604 11.5342 8.23535 10.3239 8.05274 9.01117C8.02466 8.86531 8.15018 8.79357 8.29237 8.84218C10.3552 9.68693 11.4839 11.5402 11.4839 13.3227C11.4839 15.0842 10.3051 16.5241 8.0957 16.5241Z" fill="white" fill-opacity="0.85"/>
</g>
<defs>
<clipPath id="clip0_534_3004">
<rect width="17" height="21" fill="white"/>
</clipPath>
</defs>
</svg>
