<svg width="43" height="42" viewBox="0 0 43 42" fill="none" xmlns="http://www.w3.org/2000/svg">
<rect width="43" height="42" rx="21" fill="white" fill-opacity="0.07"/>
<rect width="43" height="42" rx="21" fill="#5E5E5E" fill-opacity="0.18" style="mix-blend-mode:color-dodge"/>
<g clip-path="url(#clip0_324_1637)">
<path d="M10.4306 29.5483C12.2943 31.92 16.078 32.5717 18.4324 30.7155C20.409 29.1673 20.6932 26.845 19.2009 24.9575C17.8609 23.249 15.6104 22.8419 14.1048 24.0652C12.5738 25.2641 13.1815 26.7405 12.3127 27.4033C11.5354 28.0145 10.8288 27.6217 10.2913 28.0433C9.84529 28.397 9.92685 28.9482 10.4306 29.5483ZM19.8515 23.5464C20.6358 24.3307 21.1947 25.3214 21.3651 26.2016C22.0909 26.0716 22.6884 25.7439 23.2966 25.1761C23.404 25.0847 23.5048 24.9835 23.6055 24.8725C23.2317 22.3358 21.0701 20.16 18.532 19.7955C18.4273 19.8932 18.323 19.9944 18.228 20.1018C17.6508 20.7162 17.3237 21.3363 17.1998 22.0457C18.0733 22.213 19.077 22.7652 19.8515 23.5464ZM29.1878 11.4848C28.6929 11.843 23.3098 15.5172 19.8989 18.5125C22.2644 19.2959 24.1016 21.1326 24.8885 23.5087C27.8972 20.101 31.5678 14.7246 31.9229 14.2199C33.2057 12.385 30.9641 10.1989 29.1878 11.4848Z" fill="white" fill-opacity="0.85"/>
</g>
<defs>
<clipPath id="clip0_324_1637">
<rect width="22.643" height="20.79" fill="white" transform="translate(10 11)"/>
</clipPath>
</defs>
</svg>
