<svg width="14" height="25" viewBox="0 0 14 25" fill="none" xmlns="http://www.w3.org/2000/svg">
<g clip-path="url(#clip0_820_4547)">
<path d="M6.49177 0.0537109C2.87547 0.0537109 0 2.93228 0 6.52906C0 9.16132 1.54076 11.5063 3.96664 12.5179V21.874C3.96664 22.1802 4.06961 22.4683 4.3075 22.6973L6.03463 24.3534C6.2907 24.5909 6.75626 24.6366 7.0545 24.3384L10.1285 21.2644C10.4484 20.9378 10.4356 20.462 10.1223 20.1389L8.44065 18.4742L10.832 16.0864C11.1356 15.7731 11.1387 15.2942 10.8187 14.9676L8.53116 12.6667C11.3904 11.3972 12.9769 9.17068 12.9769 6.52906C12.9769 2.94871 10.0819 0.0537109 6.49177 0.0537109ZM6.49177 5.86332C5.58667 5.86332 4.85781 5.1309 4.85781 4.22935C4.85781 3.32115 5.57691 2.5985 6.49177 2.5985C7.39021 2.5985 8.12574 3.32426 8.12574 4.22935C8.12574 5.1309 7.39021 5.86332 6.49177 5.86332Z" fill="white" fill-opacity="0.85"/>
</g>
<defs>
<clipPath id="clip0_820_4547">
<rect width="13.3382" height="24.547" fill="white"/>
</clipPath>
</defs>
</svg>
