<svg width="21" height="21" viewBox="0 0 21 21" fill="none" xmlns="http://www.w3.org/2000/svg">
<g clip-path="url(#clip0_820_4558)">
<path d="M2.30906 19.7151H11.6141C13.1335 19.7151 13.9232 18.909 13.9232 17.2636V10.2028C13.9232 8.57332 13.1335 7.76723 11.6141 7.76723H2.30906C0.786562 7.76723 0 8.57332 0 10.2028V17.2636C0 18.909 0.786562 19.7151 2.30906 19.7151ZM10.111 8.60348H12.1446V5.32178C12.1446 3.16472 13.5372 1.95905 15.2237 1.95905C16.9039 1.95905 18.3058 3.16472 18.3058 5.32178V7.47111C18.3058 8.14045 18.7594 8.55763 19.3293 8.55763C19.8858 8.55763 20.3461 8.16043 20.3461 7.47111V5.47096C20.3461 1.92019 17.9681 0 15.2237 0C12.4725 0 10.111 1.92019 10.111 5.47096V8.60348Z" fill="white" fill-opacity="0.85"/>
</g>
<defs>
<clipPath id="clip0_820_4558">
<rect width="20.7074" height="20.2598" fill="white"/>
</clipPath>
</defs>
</svg>
