<svg width="37" height="44" viewBox="0 0 37 44" fill="none" xmlns="http://www.w3.org/2000/svg">
<g clip-path="url(#clip0_1023_1225)">
<path d="M36.3445 17.3945C36.3445 21.79 34.7271 25.8351 31.9462 28.3823V37.0576C31.9462 41.3831 27.762 43.8967 20.9782 43.9024C14.604 43.9024 10.5317 41.6326 10.2041 37.676L10.2105 37.5498L8.81336 37.6729C5.52063 37.9181 3.17453 36.0347 3.17453 32.4762V29.6194C1.09901 29.1657 0 27.6373 0 25.8186C0 24.8325 0.306751 23.7563 0.897722 22.6848L3.22767 18.4332C3.18017 17.9869 3.16809 17.5348 3.16809 17.0098C3.16809 6.8072 9.80225 0 19.7149 0C29.6572 0 36.3445 6.96388 36.3445 17.3945ZM22.309 20.1189C22.309 21.1254 22.9612 21.8482 24.0756 21.8482H24.309C24.6328 23.5168 25.7245 24.6612 27.0651 24.6612C29.036 24.6612 30.4522 22.4799 30.4522 19.3338C30.4522 19.1213 30.4522 18.8842 30.44 18.6595C29.7702 18.9269 28.9819 19.0483 28.0923 18.9884C27.5634 18.94 27.1761 18.5266 27.1761 18.018C27.1761 17.4676 27.6341 17.0123 28.1389 17.0541C30.0334 17.2042 31.259 16.091 31.259 14.3658C31.259 12.78 30.5117 11.5116 29.2966 10.7184C28.66 15.7644 22.309 16.5658 22.309 20.1189ZM17.1996 7.89815C17.1996 8.48549 16.8115 8.87431 16.2592 8.87431C15.6884 8.87431 15.2826 8.42478 15.3068 7.83252C15.3189 7.19504 15.4807 6.71182 15.6539 6.27619C15.3688 6.24582 15.1192 6.21548 14.8342 6.21548C12.6104 6.21548 11.108 7.61007 11.108 9.19675C11.108 10.1788 11.7699 10.9303 12.6958 10.9303C13.2369 10.9303 13.678 11.3733 13.678 11.9122C13.678 12.4389 13.2248 12.8884 12.6958 12.8884C11.3319 12.8884 10.2538 12.2813 9.68856 11.2935C9.07506 12.2073 8.73289 13.3189 8.73289 14.4706C8.73289 17.401 10.6185 19.6325 13.3859 19.6325C15.361 19.6325 16.7547 18.3264 16.7547 16.5116C16.7547 15.8939 16.5245 15.3384 16.1694 14.9767C15.857 14.6822 15.7451 14.3639 15.7451 14.0882C15.7451 13.5911 16.1565 13.2023 16.6734 13.2023C16.9084 13.2023 17.1902 13.2737 17.4301 13.4952C17.5758 13.6141 17.699 13.806 17.7795 13.966C18.9326 13.7445 19.4666 12.9996 19.4666 11.8165C19.4666 11.2661 19.8899 10.8288 20.4012 10.8288C20.9238 10.8288 21.3698 11.2841 21.3698 11.8165C21.3818 13.8715 20.398 15.2079 18.521 15.7107C18.5992 16.0389 18.6177 16.3737 18.6177 16.7256C18.584 18.3304 17.8399 19.6373 16.5886 20.4264C17.4154 20.8546 18.3785 21.0722 19.4131 21.0722C19.7834 21.0722 20.2238 21.0352 20.7029 20.9565C20.6368 20.6972 20.6006 20.4494 20.6006 20.1779C20.6006 15.1214 27.536 14.5905 27.536 10.2615C27.536 8.17943 25.8453 6.49034 23.8092 6.50755C23.2405 6.50755 23.0394 6.51986 22.85 6.56253C22.1062 5.74872 21.0981 5.26633 20.0932 5.26633C18.4298 5.26633 17.2116 6.33939 17.1996 7.89815Z" fill="white"/>
</g>
<defs>
<clipPath id="clip0_1023_1225">
<rect width="37" height="44" fill="white"/>
</clipPath>
</defs>
</svg>
