<svg width="22" height="26" viewBox="0 0 22 26" fill="none" xmlns="http://www.w3.org/2000/svg">
<g clip-path="url(#clip0_799_3716)">
<path d="M21.6102 10.2786C21.6102 12.8759 20.6486 15.2662 18.995 16.7714V21.8977C18.995 24.4536 16.5071 25.939 12.4735 25.9423C8.68346 25.9423 6.26211 24.6011 6.0673 22.2631L6.07113 22.1885L5.24038 22.2612C3.28254 22.4062 1.88756 21.2932 1.88756 19.1905V17.5024C0.653467 17.2343 0 16.3312 0 15.2565C0 14.6737 0.182393 14.0378 0.533781 13.4047L1.91915 10.8923C1.89091 10.6286 1.88373 10.3615 1.88373 10.0512C1.88373 4.02244 5.82836 0 11.7224 0C17.634 0 21.6102 4.11502 21.6102 10.2786ZM13.2648 11.8884C13.2648 12.4832 13.6526 12.9103 14.3152 12.9103H14.454C14.6465 13.8963 15.2957 14.5725 16.0928 14.5725C17.2646 14.5725 18.1067 13.2836 18.1067 11.4245C18.1067 11.299 18.1067 11.1588 18.0995 11.0261C17.7012 11.1841 17.2325 11.2558 16.7035 11.2204C16.389 11.1918 16.1588 10.9475 16.1588 10.647C16.1588 10.3217 16.4311 10.0527 16.7312 10.0774C17.8577 10.1661 18.5864 9.50832 18.5864 8.48886C18.5864 7.5518 18.1421 6.80233 17.4196 6.33358C17.0411 9.31534 13.2648 9.78891 13.2648 11.8884ZM10.2268 4.66709C10.2268 5.01415 9.99603 5.24391 9.66764 5.24391C9.32825 5.24391 9.08697 4.97828 9.10135 4.62831C9.10853 4.25161 9.20476 3.96607 9.3077 3.70866C9.13822 3.69071 8.98981 3.67278 8.82033 3.67278C7.4981 3.67278 6.60473 4.49686 6.60473 5.43444C6.60473 6.01475 6.9983 6.45882 7.54886 6.45882C7.87056 6.45882 8.13289 6.72058 8.13289 7.03904C8.13289 7.35024 7.86337 7.61587 7.54886 7.61587C6.73786 7.61587 6.09683 7.25712 5.76076 6.67341C5.39598 7.21342 5.19253 7.87026 5.19253 8.55083C5.19253 10.2824 6.31372 11.601 7.95917 11.601C9.13355 11.601 9.96227 10.8292 9.96227 9.75686C9.96227 9.39182 9.82536 9.06363 9.61424 8.84985C9.42849 8.67582 9.36195 8.48773 9.36195 8.32486C9.36195 8.03112 9.60657 7.80136 9.91389 7.80136C10.0537 7.80136 10.2212 7.84353 10.3639 7.97441C10.4505 8.04469 10.5237 8.15812 10.5716 8.25262C11.2572 8.12175 11.5747 7.68155 11.5747 6.98246C11.5747 6.65722 11.8264 6.39886 12.1305 6.39886C12.4412 6.39886 12.7064 6.66789 12.7064 6.98246C12.7135 8.19681 12.1285 8.98647 11.0125 9.28361C11.059 9.47754 11.07 9.67534 11.07 9.88333C11.0499 10.8316 10.6075 11.6039 9.86347 12.0702C10.3551 12.3232 10.9277 12.4517 11.5429 12.4517C11.7631 12.4517 12.025 12.4299 12.3098 12.3834C12.2705 12.2302 12.249 12.0837 12.249 11.9233C12.249 8.93538 16.3727 8.62165 16.3727 6.06361C16.3727 4.8333 15.3675 3.8352 14.1568 3.84537C13.8187 3.84537 13.6991 3.85264 13.5865 3.87786C13.1442 3.39697 12.5448 3.11192 11.9473 3.11192C10.9583 3.11192 10.2339 3.746 10.2268 4.66709Z" fill="white" fill-opacity="0.85"/>
</g>
<defs>
<clipPath id="clip0_799_3716">
<rect width="22" height="26" fill="white"/>
</clipPath>
</defs>
</svg>
