<svg width="35" height="44" viewBox="0 0 35 44" fill="none" xmlns="http://www.w3.org/2000/svg">
<path d="M10.8201 18.2017L12.7719 39.2653H10.8434C8.4529 39.2653 7.2712 37.8654 6.82315 35.5345L3.70598 19.3456C3.14679 16.429 5.16985 14.9196 7.19218 14.9196C8.90463 14.9196 10.6221 15.9846 10.8201 18.2017ZM20.7847 18.4783L19.694 30.4758C17.7341 31.5332 16.5164 33.5528 16.5164 35.8061C16.5164 37.0869 16.8987 38.2776 17.5847 39.2653H14.9943L13.0938 18.4783C12.843 15.7226 15.1297 14.5622 16.9369 14.5622C18.749 14.5622 21.0356 15.7226 20.7847 18.4783ZM30.1726 19.3456L28.6943 27.05C27.8487 26.6209 26.8782 26.3824 25.8365 26.3824C24.4704 26.3824 23.2103 26.8001 22.1966 27.5312L23.0585 18.2017C23.2671 15.9846 24.9846 14.9196 26.6864 14.9196C28.7087 14.9196 30.7424 16.429 30.1726 19.3456ZM18.3757 4.69321C18.7595 4.62509 19.2227 4.65108 19.5746 4.74446C20.3667 4.06486 21.3888 3.68926 22.4951 3.68926C24.2125 3.68926 25.4897 4.66865 26.2276 6.23074C28.7934 6.33182 30.5678 8.27932 30.5678 11.0539C30.5678 11.9947 30.2886 12.847 29.8248 13.58C28.8668 13.0079 27.7327 12.7117 26.6201 12.7117C24.8834 12.7117 23.1625 13.3793 22.0464 14.7609C20.8887 13.1799 18.9256 12.3289 16.9369 12.3289C14.9629 12.3289 12.9848 13.1799 11.8322 14.7609C10.711 13.3793 9.00574 12.7117 7.29546 12.7117C6.16003 12.7117 5.04526 12.9988 4.08648 13.5569C3.70035 12.8786 3.53149 12.1955 3.53149 11.4653C3.53149 8.99893 5.56589 6.97911 8.03766 7.00723C8.09745 5.98639 9.06554 4.97396 10.2075 5.0084C10.5436 3.54675 12.1413 2.22754 14.3816 2.22754C16.0984 2.22754 17.6312 3.18516 18.3757 4.69321Z" fill="white" fill-opacity="0.85"/>
<path d="M25.8364 41.7463C27.3864 41.7463 28.7861 40.9066 29.4151 39.6288C31.4453 39.1604 32.5502 37.5484 32.5502 35.8165C32.5502 34.1709 31.4873 32.5736 29.6244 32.0872C29.487 30.0616 27.9177 28.6309 25.8364 28.6309C23.7962 28.6309 22.2278 30.0252 22.019 32.0035C19.9882 32.3771 18.8027 34.0263 18.8027 35.806C18.8027 37.6489 20.0373 39.2811 22.1729 39.6792C22.8695 40.9164 24.299 41.7463 25.8364 41.7463Z" fill="white" fill-opacity="0.85"/>
</svg>
