<svg width="21" height="26" viewBox="0 0 21 26" fill="none" xmlns="http://www.w3.org/2000/svg">
<g clip-path="url(#clip0_799_3836)">
<path d="M6.59642 10.7557L7.76749 23.2024H6.61043C5.17611 23.2024 4.46709 22.3751 4.19826 20.9978L2.32796 11.4316C1.99244 9.70819 3.20628 8.81626 4.41968 8.81626C5.44715 8.81626 6.47761 9.44557 6.59642 10.7557ZM12.5752 10.9192L11.9208 18.0086C10.7448 18.6334 10.0142 19.8268 10.0142 21.1583C10.0142 21.9151 10.2436 22.6187 10.6552 23.2024H9.10092L7.96062 10.9192C7.81018 9.29079 9.18217 8.60505 10.2665 8.60505C11.3537 8.60505 12.7257 9.29079 12.5752 10.9192ZM18.2079 11.4316L17.3209 15.9842C16.8136 15.7307 16.2313 15.5897 15.6063 15.5897C14.7866 15.5897 14.0306 15.8366 13.4223 16.2685L13.9395 10.7557C14.0647 9.44557 15.0951 8.81626 16.1162 8.81626C17.3296 8.81626 18.5498 9.70819 18.2079 11.4316ZM11.1298 2.7734C11.3601 2.73314 11.638 2.7485 11.8491 2.80368C12.3244 2.4021 12.9376 2.18015 13.6014 2.18015C14.6319 2.18015 15.3982 2.75888 15.8409 3.68193C17.3804 3.74166 18.4451 4.89246 18.4451 6.53196C18.4451 7.0879 18.2775 7.59156 17.9993 8.0247C17.4244 7.68661 16.744 7.51156 16.0764 7.51156C15.0344 7.51156 14.0019 7.90609 13.3322 8.72251C12.6376 7.78823 11.4598 7.28541 10.2665 7.28541C9.08212 7.28541 7.89524 7.78823 7.20371 8.72251C6.53099 7.90609 5.50782 7.51156 4.48165 7.51156C3.80039 7.51156 3.13153 7.68123 2.55626 8.01102C2.32458 7.61024 2.22327 7.20655 2.22327 6.77507C2.22327 5.31768 3.4439 4.12415 4.92697 4.14077C4.96284 3.53755 5.54369 2.93929 6.22885 2.95964C6.43056 2.09594 7.38917 1.31641 8.73335 1.31641C9.7634 1.31641 10.6831 1.88227 11.1298 2.7734Z" fill="white" fill-opacity="0.85"/>
<path d="M15.6063 24.6685C16.5363 24.6685 17.3761 24.1723 17.7535 23.4172C18.9717 23.1405 19.6346 22.1879 19.6346 21.1645C19.6346 20.1921 18.9969 19.2482 17.8791 18.9608C17.7967 17.7639 16.8551 16.9185 15.6063 16.9185C14.3822 16.9185 13.4411 17.7424 13.3159 18.9114C12.0974 19.1322 11.3861 20.1067 11.3861 21.1583C11.3861 22.2473 12.1268 23.2118 13.4082 23.447C13.8262 24.1781 14.6839 24.6685 15.6063 24.6685Z" fill="white" fill-opacity="0.85"/>
</g>
<defs>
<clipPath id="clip0_799_3836">
<rect width="21" height="26" fill="white"/>
</clipPath>
</defs>
</svg>
