<svg width="22" height="24" viewBox="0 0 22 24" fill="none" xmlns="http://www.w3.org/2000/svg">
<g clip-path="url(#clip0_800_4403)">
<path d="M0 11.3455C0 13.2841 0.461978 15.2955 1.33593 17.189C1.04365 17.5745 1.00038 18.2389 1.31331 18.8935L3.33142 23.1645C3.55493 23.637 4.02841 23.8774 4.49468 23.8774C5.07676 23.8774 5.64777 23.4915 5.69105 22.7657L3.3682 17.8276C2.55774 16.1162 2.02408 13.9019 2.02408 11.3565C2.02408 5.96536 5.55648 2.33876 10.8027 2.33876C16.0417 2.33876 19.5813 5.96536 19.5813 11.3565C19.5813 13.9055 19.0509 16.1197 18.2406 17.8276L15.9071 22.7657C15.9609 23.4915 16.5286 23.8774 17.114 23.8774C17.5731 23.8774 18.0466 23.637 18.2739 23.1645L20.2848 18.8935C20.5978 18.2389 20.5651 17.5745 20.2728 17.189C21.1434 15.2955 21.6087 13.2841 21.6087 11.3455C21.6087 4.94405 17.3212 0 10.8027 0C4.2841 0 0 4.94405 0 11.3455Z" fill="white" fill-opacity="0.85"/>
<path d="M6.05487 15.4792C5.65058 14.6128 4.88098 14.4297 4.2974 14.6817C3.65324 14.9591 3.20954 15.7642 3.69506 16.7927L6.28431 22.2744C6.72367 23.2028 7.5178 23.5284 8.28068 23.1159C8.92483 22.7764 9.14742 22.0114 8.77438 21.2059L6.05487 15.4792ZM15.5433 15.4792L12.831 21.2059C12.458 22.0114 12.6806 22.7764 13.3175 23.1159C14.0838 23.5284 14.8817 23.2028 15.3211 22.2744L17.9137 16.7927C18.3959 15.7642 17.9483 14.9591 17.3114 14.6817C16.7172 14.4297 15.9582 14.6128 15.5433 15.4792Z" fill="white" fill-opacity="0.425"/>
</g>
<defs>
<clipPath id="clip0_800_4403">
<rect width="22" height="24" fill="white"/>
</clipPath>
</defs>
</svg>
