<svg width="20" height="17" viewBox="0 0 20 17" fill="none" xmlns="http://www.w3.org/2000/svg">
<g clip-path="url(#clip0_534_2994)">
<path d="M13.8564 14.6323C13.8564 16.0117 14.9287 16.9859 16.4252 16.9859C17.7034 16.9859 19.6901 16.0136 19.6901 13.465V4.99406C19.6901 4.59316 19.3529 4.25781 18.9522 4.25781C18.5433 4.25781 18.2033 4.59316 18.2033 4.99406V11.1305C18.2033 11.4572 18.0836 11.655 17.8163 11.7058L16.4771 11.992C14.7221 12.366 13.8564 13.2695 13.8564 14.6323Z" fill="white" fill-opacity="0.85"/>
<path d="M7.64453 10.3801C7.64453 11.7538 8.71985 12.7338 10.2133 12.7338C11.4945 12.7338 13.4782 11.7588 13.4782 9.20448V0.733597C13.4782 0.33535 13.1467 0 12.7377 0C12.3313 0 11.9887 0.33535 11.9887 0.733597V6.87834C11.9887 7.19673 11.8774 7.3946 11.6044 7.45108L10.2683 7.73418C8.51019 8.10555 7.64453 9.00897 7.64453 10.3801Z" fill="white" fill-opacity="0.85"/>
<path d="M0 14.6323C0 16.0117 1.07533 16.9859 2.56883 16.9859C3.85002 16.9859 5.83372 16.0136 5.83372 13.465V4.99406C5.83372 4.58748 5.50213 4.25781 5.09315 4.25781C4.68685 4.25781 4.34419 4.58748 4.34419 4.99406V11.1305C4.34419 11.4515 4.23285 11.655 3.95985 11.7058L2.62374 11.9863C0.865671 12.366 0 13.2638 0 14.6323Z" fill="white" fill-opacity="0.85"/>
</g>
<defs>
<clipPath id="clip0_534_2994">
<rect width="20" height="17" fill="white"/>
</clipPath>
</defs>
</svg>
