<svg width="39" height="40" viewBox="0 0 39 40" fill="none" xmlns="http://www.w3.org/2000/svg">
<g clip-path="url(#clip0_1022_1216)">
<path d="M0.825928 18.9092C0.825928 22.1401 1.62389 25.4925 3.13344 28.6483C2.6286 29.2908 2.55385 30.3982 3.09438 31.4892L6.58019 38.6076C6.96627 39.3949 7.78409 39.7957 8.58947 39.7957C9.59488 39.7957 10.5812 39.1526 10.6559 37.9428L6.64372 29.7126C5.24384 26.8603 4.32207 23.1698 4.32207 18.9276C4.32207 9.94226 10.4235 3.89793 19.4851 3.89793C28.5343 3.89793 34.6481 9.94226 34.6481 18.9276C34.6481 23.1758 33.7321 26.8662 32.3323 29.7126L28.3018 37.9428C28.3947 39.1526 29.3753 39.7957 30.3866 39.7957C31.1795 39.7957 31.9973 39.3949 32.39 38.6076L35.8633 31.4892C36.4039 30.3982 36.3474 29.2908 35.8425 28.6483C37.3463 25.4925 38.1501 22.1401 38.1501 18.9092C38.1501 8.24008 30.7444 0 19.4851 0C8.22574 0 0.825928 8.24008 0.825928 18.9092Z" fill="white" fill-opacity="0.85"/>
<path d="M11.2843 25.7985C10.586 24.3545 9.25666 24.0494 8.24866 24.4694C7.13603 24.9318 6.36963 26.2735 7.20825 27.9877L11.6806 37.1239C12.4395 38.6712 13.8112 39.2138 15.1289 38.5263C16.2415 37.9605 16.626 36.6855 15.9816 35.343L11.2843 25.7985ZM27.6735 25.7985L22.9885 35.343C22.3443 36.6855 22.7287 37.9605 23.8288 38.5263C25.1525 39.2138 26.5307 38.6712 27.2896 37.1239L31.7678 27.9877C32.6006 26.2735 31.8275 24.9318 30.7274 24.4694C29.701 24.0494 28.3901 24.3545 27.6735 25.7985Z" fill="white" fill-opacity="0.425"/>
</g>
<defs>
<clipPath id="clip0_1022_1216">
<rect width="38" height="40" fill="white" transform="translate(0.825928)"/>
</clipPath>
</defs>
</svg>
