<svg width="13" height="21" viewBox="0 0 13 21" fill="none" xmlns="http://www.w3.org/2000/svg">
<g clip-path="url(#clip0_534_3068)">
<path d="M12.3954 5.01662V1.36649C12.3954 0.727794 11.8699 0.305706 11.2538 0.431311L6.20947 1.53128C5.49131 1.68663 5.09672 2.09364 5.09672 2.72436L5.11004 13.5123C5.14644 13.9132 4.96842 14.1573 4.62257 14.2297L3.05121 14.5551C1.00181 14.9808 0 16.0514 0 17.6471C0 19.2686 1.23308 20.3911 2.9846 20.3911C4.71516 20.3911 6.78286 19.0911 6.78286 16.3394V7.38211C6.78286 6.95149 6.8122 6.91238 7.20597 6.82404L11.7217 5.83816C12.1344 5.75117 12.3954 5.42584 12.3954 5.01662Z" fill="white" fill-opacity="0.85"/>
</g>
<defs>
<clipPath id="clip0_534_3068">
<rect width="12.7567" height="20.3913" fill="white"/>
</clipPath>
</defs>
</svg>
