<svg width="340" height="479" viewBox="0 0 340 479" fill="none" xmlns="http://www.w3.org/2000/svg">
<path d="M51.2002 0.700195H288.8C297.772 0.700195 304.46 0.700684 309.761 1.13379C314.722 1.53919 318.416 2.32013 321.583 3.80469L322.21 4.11133C327.915 7.01836 332.587 11.6032 335.602 17.2412L335.889 17.79C337.574 21.0974 338.434 24.9466 338.866 30.2393C339.299 35.5402 339.3 42.2278 339.3 51.2002V427.8C339.3 436.772 339.299 443.46 338.866 448.761C338.461 453.722 337.68 457.416 336.195 460.583L335.889 461.21C332.982 466.915 328.397 471.587 322.759 474.602L322.21 474.889C318.903 476.574 315.053 477.434 309.761 477.866C304.46 478.299 297.772 478.3 288.8 478.3H51.2002C42.2278 478.3 35.5402 478.299 30.2393 477.866C25.2775 477.461 21.5844 476.68 18.417 475.195L17.79 474.889C12.0847 471.982 7.41308 467.397 4.39844 461.759L4.11133 461.21C2.42613 457.903 1.56623 454.053 1.13379 448.761C0.700684 443.46 0.700195 436.772 0.700195 427.8V51.2002C0.700195 42.2278 0.700684 35.5402 1.13379 30.2393C1.53919 25.2775 2.32012 21.5844 3.80469 18.417L4.11133 17.79C7.01836 12.0847 11.6032 7.41308 17.2412 4.39844L17.79 4.11133C21.0974 2.42612 24.9466 1.56623 30.2393 1.13379C35.5402 0.700684 42.2278 0.700195 51.2002 0.700195Z" fill="#808080" fill-opacity="0.3" style="mix-blend-mode:luminosity"/>
<path d="M51.2002 0.700195H288.8C297.772 0.700195 304.46 0.700684 309.761 1.13379C314.722 1.53919 318.416 2.32013 321.583 3.80469L322.21 4.11133C327.915 7.01836 332.587 11.6032 335.602 17.2412L335.889 17.79C337.574 21.0974 338.434 24.9466 338.866 30.2393C339.299 35.5402 339.3 42.2278 339.3 51.2002V427.8C339.3 436.772 339.299 443.46 338.866 448.761C338.461 453.722 337.68 457.416 336.195 460.583L335.889 461.21C332.982 466.915 328.397 471.587 322.759 474.602L322.21 474.889C318.903 476.574 315.053 477.434 309.761 477.866C304.46 478.299 297.772 478.3 288.8 478.3H51.2002C42.2278 478.3 35.5402 478.299 30.2393 477.866C25.2775 477.461 21.5844 476.68 18.417 475.195L17.79 474.889C12.0847 471.982 7.41308 467.397 4.39844 461.759L4.11133 461.21C2.42613 457.903 1.56623 454.053 1.13379 448.761C0.700684 443.46 0.700195 436.772 0.700195 427.8V51.2002C0.700195 42.2278 0.700684 35.5402 1.13379 30.2393C1.53919 25.2775 2.32012 21.5844 3.80469 18.417L4.11133 17.79C7.01836 12.0847 11.6032 7.41308 17.2412 4.39844L17.79 4.11133C21.0974 2.42612 24.9466 1.56623 30.2393 1.13379C35.5402 0.700684 42.2278 0.700195 51.2002 0.700195Z" stroke="url(#paint0_linear_1351_1256)" stroke-width="1.4"/>
<defs>
<linearGradient id="paint0_linear_1351_1256" x1="23.8187" y1="-0.000106204" x2="301.868" y2="454.359" gradientUnits="userSpaceOnUse">
<stop stop-color="white" stop-opacity="0.4"/>
<stop offset="0.405687" stop-color="white" stop-opacity="0.01"/>
<stop offset="0.574372" stop-color="white" stop-opacity="0.01"/>
<stop offset="1" stop-color="white" stop-opacity="0.1"/>
</linearGradient>
</defs>
</svg>
