<svg width="43" height="42" viewBox="0 0 43 42" fill="none" xmlns="http://www.w3.org/2000/svg">
<rect width="43" height="42" rx="21" fill="white" fill-opacity="0.07"/>
<rect width="43" height="42" rx="21" fill="white" fill-opacity="0.6" style="mix-blend-mode:color-dodge"/>
<g clip-path="url(#clip0_1186_1684)">
<path d="M16.5283 32.5806C17.1413 32.5806 17.6046 32.1137 17.6046 31.5335V26.7968L20.2769 23.9549C20.3475 23.8782 20.4664 23.8875 20.5277 23.9678L23.1138 27.424L25.3776 31.9224C26.0488 33.2744 27.9485 32.2988 27.3031 31.0146L22.6459 21.6806C22.2295 20.8541 22.0213 19.7412 21.9206 18.6027C21.8975 18.2724 22.0666 18.1463 22.345 18.2839L24.164 19.2081L25.8557 22.5914C26.5011 23.8786 28.4559 23.0033 27.7652 21.6286L25.9147 17.9404C25.8077 17.7295 25.6457 17.5644 25.4348 17.4575L22.7875 16.1338C21.9974 15.7338 21.1784 15.578 20.4367 15.3925C19.5844 15.1843 18.8387 14.9269 18.3402 14.2104L17.1461 12.4761V9.05375C17.1461 8.47672 16.6534 8 16.0697 8C15.4829 8 15 8.47672 15 9.05375V12.8166C15 13.0532 15.0612 13.2183 15.1913 13.4163L17.3051 16.4604C17.4906 16.7308 17.5985 16.9034 17.6376 17.3469C17.7188 18.4464 17.9532 20.4799 18.3957 21.966L15.6756 25.7497C15.53 25.9605 15.4781 26.1678 15.4781 26.372V31.5335C15.4781 32.1137 15.9384 32.5806 16.5283 32.5806ZM21.1726 14.3813C22.4035 14.3813 23.4004 13.3843 23.4004 12.1401C23.4004 10.9093 22.4035 9.9092 21.1726 9.9092C19.9284 9.9092 18.9284 10.9093 18.9284 12.1401C18.9284 13.3843 19.9284 14.3813 21.1726 14.3813Z" fill="white" fill-opacity="0.85"/>
</g>
<defs>
<clipPath id="clip0_1186_1684">
<rect width="13.2726" height="25.2775" fill="white" transform="translate(15 8)"/>
</clipPath>
</defs>
</svg>
