<svg width="27" height="15" viewBox="0 0 27 15" fill="none" xmlns="http://www.w3.org/2000/svg">
<g clip-path="url(#clip0_534_3145)">
<path d="M8.16915 9.3586C6.99184 10.3834 6.32422 11.6884 6.32422 12.8758C6.32422 13.2607 6.41749 13.6181 6.59497 13.9251H1.34603C0.354382 13.9251 0 13.4979 0 12.759C0 10.868 2.07308 8.55678 5.20076 8.55678C6.35041 8.55678 7.35715 8.8686 8.16915 9.3586ZM7.69201 4.74624C7.69201 6.28317 6.55932 7.48978 5.20076 7.48978C3.847 7.48978 2.71174 6.28317 2.71174 4.75587C2.71174 3.25842 3.85853 2.06689 5.20076 2.06689C6.55003 2.06689 7.69201 3.23914 7.69201 4.74624Z" fill="white" fill-opacity="0.85"/>
<path d="M26.7395 12.759C26.7395 13.4979 26.3828 13.9251 25.3933 13.9251H20.157C20.334 13.6181 20.4267 13.2607 20.4267 12.8758C20.4267 11.6869 19.7585 10.38 18.5791 9.35448C19.3895 8.86679 20.394 8.55678 21.5412 8.55678C24.6711 8.55678 26.7395 10.868 26.7395 12.759ZM24.0348 4.74624C24.0348 6.28317 22.8998 7.48978 21.5412 7.48978C20.1897 7.48978 19.0496 6.28317 19.0496 4.75587C19.0496 3.25842 20.1942 2.06689 21.5412 2.06689C22.8905 2.06689 24.0348 3.23914 24.0348 4.74624Z" fill="white" fill-opacity="0.85"/>
<path d="M13.3802 7.32939C14.9358 7.32939 16.2425 5.95103 16.2425 4.17881C16.2425 2.45024 14.9313 1.104 13.3802 1.104C11.829 1.104 10.5178 2.4695 10.5178 4.19069C10.5178 5.95103 11.8198 7.32939 13.3802 7.32939ZM8.71026 13.9226H18.0404C18.862 13.9226 19.3512 13.5291 19.3512 12.8756C19.3512 11.0626 17.0317 8.57551 13.3754 8.57551C9.72381 8.57551 7.4043 11.0626 7.4043 12.8756C7.4043 13.5291 7.89357 13.9226 8.71026 13.9226Z" fill="white" fill-opacity="0.85"/>
</g>
<defs>
<clipPath id="clip0_534_3145">
<rect width="27" height="15" fill="white"/>
</clipPath>
</defs>
</svg>
