<?xml version="1.0" encoding="UTF-8"?>
<!--Generator: Apple Native CoreSVG 326-->
<!DOCTYPE svg
PUBLIC "-//W3C//DTD SVG 1.1//EN"
       "http://www.w3.org/Graphics/SVG/1.1/DTD/svg11.dtd">
<svg version="1.1" xmlns="http://www.w3.org/2000/svg" xmlns:xlink="http://www.w3.org/1999/xlink" viewBox="0 0 20.7335 20.3788">
 <g>
  <rect height="20.3788" opacity="0" width="20.7335" x="0" y="0"/>
  <path d="M20.3722 10.1845C20.3722 15.8001 15.8099 20.3691 10.1845 20.3691C4.56892 20.3691 0 15.8001 0 10.1845C0 4.56226 4.56892 0 10.1845 0C15.8099 0 20.3722 4.56226 20.3722 10.1845ZM4.21593 16.1078C5.6697 17.6934 8.03781 18.5803 10.1779 18.5803C12.3246 18.5803 14.686 17.6934 16.1496 16.1078C14.9795 14.3878 12.78 13.4463 10.1779 13.4463C7.55623 13.4463 5.3731 14.4073 4.21593 16.1078ZM6.74752 7.98338C6.74752 10.1016 8.24697 11.7262 10.1779 11.7395C12.1185 11.7529 13.6113 10.1016 13.6113 7.98338C13.6113 5.98277 12.0994 4.29246 10.1779 4.29246C8.26605 4.29246 6.73775 5.98277 6.74752 7.98338Z" fill="white" fill-opacity="0.6035"/>
 </g>
</svg>
