<svg width="37" height="31" viewBox="0 0 37 31" fill="none" xmlns="http://www.w3.org/2000/svg">
<g clip-path="url(#clip0_1215_1209)">
<path d="M27.4121 4.50011L27.7143 6.22598H13.0842C9.22133 6.22598 6.9259 8.52774 6.9259 12.3848V24.8282C6.9259 24.8444 6.92594 24.8605 6.92769 24.8755C5.14738 24.6884 4.05282 23.4991 3.68586 21.3542L1.5262 9.09655C1.05234 6.34283 2.23489 4.65758 5.00263 4.15872L22.4787 1.05626C25.2465 0.568132 26.9276 1.74639 27.4121 4.50011Z" fill="white" fill-opacity="0.85"/>
<path d="M17.8625 18.8678C16.3551 18.8678 15.1161 17.6112 15.1161 16.0926C15.1161 14.5848 16.3551 13.3174 17.8625 13.3174C19.3676 13.3174 20.6042 14.5848 20.6042 16.0926C20.6042 17.6112 19.3676 18.8678 17.8625 18.8678ZM12.8066 26.7487C11.7492 26.7487 11.0925 26.0967 11.0925 25.0218V24.364L14.2562 21.4889C14.7294 21.0624 15.2318 20.8599 15.7297 20.8599C16.2831 20.8599 16.8176 21.0732 17.2799 21.502L19.3481 23.3807L24.4811 18.7787C25.0194 18.3105 25.5714 18.1057 26.2066 18.1057C26.8274 18.1057 27.4068 18.332 27.9105 18.7894L32.8357 23.4082V25.0326C32.8357 26.1074 32.1683 26.7487 31.1428 26.7487H12.8066ZM13.0841 29.0828H30.8334C33.6401 29.0828 35.0991 27.6259 35.0991 24.8283V12.3849C35.0991 9.5895 33.6401 8.13037 30.8334 8.13037H13.0841C10.275 8.13037 8.81836 9.5895 8.81836 12.3849V24.8283C8.81836 27.6367 10.275 29.0828 13.0841 29.0828Z" fill="white" fill-opacity="0.85"/>
</g>
<defs>
<clipPath id="clip0_1215_1209">
<rect width="37" height="31" fill="white"/>
</clipPath>
</defs>
</svg>
