<svg width="340" height="184" viewBox="0 0 340 184" fill="none" xmlns="http://www.w3.org/2000/svg">
<path d="M51.2002 0.700195H288.8C297.772 0.700195 304.46 0.700684 309.761 1.13379C314.722 1.53919 318.416 2.32012 321.583 3.80469L322.21 4.11133C327.915 7.01836 332.587 11.6032 335.602 17.2412L335.889 17.79C337.574 21.0974 338.434 24.9466 338.866 30.2393C339.299 35.5402 339.3 42.2278 339.3 51.2002V132.8C339.3 141.772 339.299 148.46 338.866 153.761C338.461 158.722 337.68 162.416 336.195 165.583L335.889 166.21C332.982 171.915 328.397 176.587 322.759 179.602L322.21 179.889C318.903 181.574 315.053 182.434 309.761 182.866C304.46 183.299 297.772 183.3 288.8 183.3H51.2002C42.2278 183.3 35.5402 183.299 30.2393 182.866C24.9466 182.434 21.0974 181.574 17.79 179.889C11.9006 176.888 7.11216 172.099 4.11133 166.21C2.42612 162.903 1.56623 159.053 1.13379 153.761C0.700684 148.46 0.700195 141.772 0.700195 132.8V51.2002C0.700195 42.2278 0.700684 35.5402 1.13379 30.2393C1.56623 24.9466 2.42612 21.0974 4.11133 17.79C7.11216 11.9006 11.9006 7.11216 17.79 4.11133C21.0974 2.42612 24.9466 1.56623 30.2393 1.13379C35.5402 0.700684 42.2278 0.700195 51.2002 0.700195Z" fill="#808080" fill-opacity="0.3" style="mix-blend-mode:luminosity"/>
<path d="M51.2002 0.700195H288.8C297.772 0.700195 304.46 0.700684 309.761 1.13379C314.722 1.53919 318.416 2.32012 321.583 3.80469L322.21 4.11133C327.915 7.01836 332.587 11.6032 335.602 17.2412L335.889 17.79C337.574 21.0974 338.434 24.9466 338.866 30.2393C339.299 35.5402 339.3 42.2278 339.3 51.2002V132.8C339.3 141.772 339.299 148.46 338.866 153.761C338.461 158.722 337.68 162.416 336.195 165.583L335.889 166.21C332.982 171.915 328.397 176.587 322.759 179.602L322.21 179.889C318.903 181.574 315.053 182.434 309.761 182.866C304.46 183.299 297.772 183.3 288.8 183.3H51.2002C42.2278 183.3 35.5402 183.299 30.2393 182.866C24.9466 182.434 21.0974 181.574 17.79 179.889C11.9006 176.888 7.11216 172.099 4.11133 166.21C2.42612 162.903 1.56623 159.053 1.13379 153.761C0.700684 148.46 0.700195 141.772 0.700195 132.8V51.2002C0.700195 42.2278 0.700684 35.5402 1.13379 30.2393C1.56623 24.9466 2.42612 21.0974 4.11133 17.79C7.11216 11.9006 11.9006 7.11216 17.79 4.11133C21.0974 2.42612 24.9466 1.56623 30.2393 1.13379C35.5402 0.700684 42.2278 0.700195 51.2002 0.700195Z" stroke="url(#paint0_linear_1415_1255)" stroke-width="1.4"/>
<defs>
<linearGradient id="paint0_linear_1415_1255" x1="23.8187" y1="-4.07964e-05" x2="77.259" y2="227.334" gradientUnits="userSpaceOnUse">
<stop stop-color="white" stop-opacity="0.4"/>
<stop offset="0.405687" stop-color="white" stop-opacity="0.01"/>
<stop offset="0.574372" stop-color="white" stop-opacity="0.01"/>
<stop offset="1" stop-color="white" stop-opacity="0.1"/>
</linearGradient>
</defs>
</svg>
