<svg width="87" height="85" viewBox="0 0 87 85" fill="none" xmlns="http://www.w3.org/2000/svg">
<path d="M53.6312 47.3097C53.7179 53.7799 56.8083 59.552 61.8219 63.1484V73.9281H8.46251C3.74151 73.9281 0.916992 71.6586 0.916992 67.89C0.916992 57.4347 14.2464 43.092 35.2306 43.092C42.3215 43.092 48.536 44.7234 53.6312 47.3097ZM51.7069 17.7368C51.7069 27.9568 44.2106 35.9058 35.2584 35.9058C26.2908 35.9058 18.8224 27.9568 18.8224 17.8054C18.8224 7.87949 26.3443 0.00488281 35.2584 0.00488281C44.172 0.00488281 51.7069 7.7684 51.7069 17.7368Z" fill="white" fill-opacity="0.85"/>
<path d="M73.3187 33.5029C65.7988 33.5029 59.8291 39.5857 59.8291 47.0104C59.8291 52.6269 63.0315 57.4398 68.0139 59.5499V79.191C68.0139 79.8219 68.3089 80.3958 68.7614 80.8937L72.3447 84.3533C72.9304 84.903 73.8194 84.9697 74.4711 84.3146L80.8863 77.8928C81.5491 77.1989 81.4977 76.2272 80.8734 75.5741L77.3914 72.0215L82.3871 67.0434C83.0243 66.4179 83.0371 65.4183 82.3319 64.6706L77.5735 59.9277C83.4772 57.2325 86.7933 52.6194 86.7933 47.0104C86.7933 39.5857 80.7834 33.5029 73.3187 33.5029ZM73.2913 39.6486C75.5044 39.6486 77.3254 41.4794 77.3254 43.7305C77.3254 45.9724 75.5044 47.829 73.2913 47.829C71.0907 47.829 69.2418 45.9724 69.2418 43.7305C69.2418 41.4794 71.0629 39.6486 73.2913 39.6486Z" fill="white" fill-opacity="0.85"/>
</svg>
