<svg width="14" height="14" viewBox="0 0 14 14" fill="none" xmlns="http://www.w3.org/2000/svg">
<g clip-path="url(#clip0_1252_1567)">
<path d="M13.756 6.99663C13.756 10.8545 10.6754 13.9933 6.87694 13.9933C3.0851 13.9933 0 10.8545 0 6.99663C0 3.13422 3.0851 0 6.87694 0C10.6754 0 13.756 3.13422 13.756 6.99663ZM6.17326 4.42404V6.28071H4.35045C3.94255 6.28071 3.65065 6.58197 3.65065 7.00124C3.65065 7.4159 3.94255 7.70801 4.35045 7.70801H6.17326V9.56927C6.17326 9.97755 6.46696 10.2791 6.87248 10.2791C7.28458 10.2791 7.58067 9.98215 7.58067 9.56927V7.70801H9.41009C9.81347 7.70801 10.1098 7.4159 10.1098 7.00124C10.1098 6.58197 9.81347 6.28071 9.41009 6.28071H7.58067V4.42404C7.58067 4.01117 7.28458 3.70748 6.87248 3.70748C6.46696 3.70748 6.17326 4.01117 6.17326 4.42404Z" fill="white" fill-opacity="0.85"/>
</g>
<defs>
<clipPath id="clip0_1252_1567">
<rect width="16" height="16" fill="white"/>
</clipPath>
</defs>
</svg>
