<svg width="17" height="17" viewBox="0 0 17 17" fill="none" xmlns="http://www.w3.org/2000/svg">
<g clip-path="url(#clip0_1066_5578)">
<path d="M0 8.4982C0 9.21083 0.571968 9.79152 1.26592 9.79152H7.05533V15.7063C7.05533 16.412 7.62059 16.9964 8.31811 16.9964C9.01564 16.9964 9.59073 16.412 9.59073 15.7063V9.79152H15.3735C16.0642 9.79152 16.6362 9.21083 16.6362 8.4982C16.6362 7.78557 16.0642 7.19802 15.3735 7.19802H9.59073V1.29333C9.59073 0.584351 9.01564 0 8.31811 0C7.62059 0 7.05533 0.584351 7.05533 1.29333V7.19802H1.26592C0.571968 7.19802 0 7.78557 0 8.4982Z" fill="white" fill-opacity="0.85"/>
</g>
<defs>
<clipPath id="clip0_1066_5578">
<rect width="17" height="17" fill="white"/>
</clipPath>
</defs>
</svg>
