<svg width="276" height="44" viewBox="0 0 276 44" fill="none" xmlns="http://www.w3.org/2000/svg">
<g filter="url(#filter0_iiii_1200_1297)">
<g clip-path="url(#clip0_1200_1297)">
<rect width="276" height="44" rx="22" fill="black" fill-opacity="0.1" style="mix-blend-mode:luminosity"/>
<rect width="276" height="44" rx="22" fill="#D0D0D0" fill-opacity="0.5" style="mix-blend-mode:color-burn"/>
<g filter="url(#filter1_d_1200_1297)">
<rect x="4" y="4" width="132" height="36" rx="18" fill="white" fill-opacity="0.06" style="mix-blend-mode:lighten" shape-rendering="crispEdges"/>
<rect x="4" y="4" width="132" height="36" rx="18" fill="#5E5E5E" fill-opacity="0.18" style="mix-blend-mode:color-dodge" shape-rendering="crispEdges"/>
<rect x="4.25" y="4.25" width="131.5" height="35.5" rx="17.75" stroke="url(#paint0_linear_1200_1297)" stroke-width="0.5" shape-rendering="crispEdges"/>
<path d="M43.1348 23.5063V21.9829H45.9473C46.626 21.9829 47.1533 21.8096 47.5293 21.4629C47.9053 21.1113 48.0933 20.6182 48.0933 19.9834V19.9688C48.0933 19.3291 47.9053 18.8359 47.5293 18.4893C47.1533 18.1426 46.626 17.9692 45.9473 17.9692H43.1348V16.4312H46.4087C47.1265 16.4312 47.7539 16.5776 48.291 16.8706C48.8281 17.1636 49.248 17.5762 49.5508 18.1084C49.8535 18.6357 50.0049 19.2534 50.0049 19.9614V19.9761C50.0049 20.6792 49.8535 21.2969 49.5508 21.8291C49.248 22.3564 48.8281 22.769 48.291 23.0669C47.7539 23.3599 47.1265 23.5063 46.4087 23.5063H43.1348ZM42.1899 27V16.4312H44.0796V27H42.1899ZM55.1392 27.1611C54.3433 27.1611 53.6572 26.9951 53.0811 26.6631C52.5049 26.3262 52.0605 25.8477 51.748 25.2275C51.4404 24.6074 51.2866 23.8652 51.2866 23.001V22.9863C51.2866 22.1318 51.4429 21.3945 51.7554 20.7744C52.0679 20.1494 52.5098 19.6709 53.0811 19.3389C53.6572 19.0068 54.3433 18.8408 55.1392 18.8408C55.9351 18.8408 56.6187 19.0068 57.1899 19.3389C57.7661 19.6709 58.2104 20.147 58.5229 20.7671C58.8354 21.3872 58.9917 22.127 58.9917 22.9863V23.001C58.9917 23.8652 58.8354 24.6074 58.5229 25.2275C58.2153 25.8477 57.7734 26.3262 57.1973 26.6631C56.626 26.9951 55.9399 27.1611 55.1392 27.1611ZM55.1392 25.6816C55.5591 25.6816 55.9155 25.5767 56.2085 25.3667C56.5063 25.1519 56.7334 24.8467 56.8896 24.4512C57.0459 24.0508 57.124 23.5698 57.124 23.0083V22.9937C57.124 22.4272 57.0459 21.9463 56.8896 21.5508C56.7334 21.1504 56.5063 20.8452 56.2085 20.6353C55.9155 20.4204 55.5591 20.313 55.1392 20.313C54.7192 20.313 54.3604 20.4204 54.0625 20.6353C53.7646 20.8452 53.5376 21.1504 53.3813 21.5508C53.2251 21.9463 53.147 22.4272 53.147 22.9937V23.0083C53.147 23.5698 53.2251 24.0508 53.3813 24.4512C53.5376 24.8516 53.7622 25.1567 54.0552 25.3667C54.353 25.5767 54.7144 25.6816 55.1392 25.6816ZM63.8477 27.1611C63.1689 27.1611 62.583 27.0659 62.0898 26.8755C61.6016 26.6802 61.2158 26.4116 60.9326 26.0698C60.6494 25.7231 60.481 25.3228 60.4272 24.8687V24.854H62.2363L62.2437 24.8687C62.3413 25.147 62.5244 25.374 62.793 25.5498C63.0615 25.7256 63.4229 25.8135 63.877 25.8135C64.1797 25.8135 64.4458 25.772 64.6753 25.689C64.9048 25.6011 65.0854 25.4814 65.2173 25.3301C65.3491 25.1787 65.415 25.0029 65.415 24.8027V24.7881C65.415 24.5537 65.3198 24.3584 65.1294 24.2021C64.939 24.041 64.624 23.9116 64.1846 23.814L62.8882 23.521C62.3804 23.4087 61.9604 23.2524 61.6284 23.0522C61.2964 22.8521 61.0474 22.6055 60.8813 22.3125C60.7202 22.0195 60.6396 21.6777 60.6396 21.2871V21.2798C60.6396 20.7964 60.7739 20.3716 61.0425 20.0054C61.3159 19.6392 61.6943 19.3535 62.1777 19.1484C62.6611 18.9434 63.2178 18.8408 63.8477 18.8408C64.4971 18.8408 65.0562 18.9385 65.5249 19.1338C65.9937 19.3291 66.3599 19.5977 66.6235 19.9395C66.8872 20.2812 67.0386 20.6694 67.0776 21.104V21.1187H65.3638L65.3564 21.0967C65.2881 20.8428 65.1245 20.6279 64.8657 20.4521C64.6118 20.2715 64.27 20.1812 63.8403 20.1812C63.5718 20.1812 63.3301 20.2227 63.1152 20.3057C62.9053 20.3887 62.7393 20.5059 62.6172 20.6572C62.5 20.8037 62.4414 20.9771 62.4414 21.1772V21.1846C62.4414 21.3408 62.4805 21.4775 62.5586 21.5947C62.6416 21.7119 62.771 21.8145 62.9468 21.9023C63.1226 21.9902 63.3545 22.0684 63.6426 22.1367L64.939 22.4224C65.7251 22.5981 66.3062 22.8594 66.6821 23.2061C67.0581 23.5527 67.2461 24.019 67.2461 24.605V24.6196C67.2461 25.1274 67.0996 25.5718 66.8066 25.9526C66.5137 26.3335 66.1108 26.6313 65.5981 26.8462C65.0854 27.0562 64.502 27.1611 63.8477 27.1611ZM69.1064 27V18.9946H70.9229V27H69.1064ZM70.022 17.6543C69.7241 17.6543 69.4678 17.5493 69.2529 17.3394C69.0381 17.1294 68.9307 16.8779 68.9307 16.585C68.9307 16.2822 69.0381 16.0283 69.2529 15.8232C69.4678 15.6133 69.7241 15.5083 70.022 15.5083C70.3198 15.5083 70.5737 15.6133 70.7837 15.8232C70.9985 16.0283 71.106 16.2822 71.106 16.585C71.106 16.8779 70.9985 17.1294 70.7837 17.3394C70.5737 17.5493 70.3198 17.6543 70.022 17.6543ZM76.3208 27.0366C75.4028 27.0366 74.7412 26.8682 74.3359 26.5312C73.9307 26.1943 73.728 25.6426 73.728 24.876V20.4082H72.4829V18.9946H73.728V17.0317H75.5811V18.9946H77.2656V20.4082H75.5811V24.4438C75.5811 24.8394 75.6641 25.1299 75.8301 25.3154C76.001 25.4961 76.2744 25.5864 76.6504 25.5864C76.7822 25.5864 76.8896 25.584 76.9727 25.5791C77.0605 25.5693 77.1582 25.5596 77.2656 25.5498V26.9561C77.1387 26.9805 76.9922 27 76.8262 27.0146C76.665 27.0293 76.4966 27.0366 76.3208 27.0366ZM79.1113 27V18.9946H80.9277V27H79.1113ZM80.0269 17.6543C79.729 17.6543 79.4727 17.5493 79.2578 17.3394C79.043 17.1294 78.9355 16.8779 78.9355 16.585C78.9355 16.2822 79.043 16.0283 79.2578 15.8232C79.4727 15.6133 79.729 15.5083 80.0269 15.5083C80.3247 15.5083 80.5786 15.6133 80.7886 15.8232C81.0034 16.0283 81.1108 16.2822 81.1108 16.585C81.1108 16.8779 81.0034 17.1294 80.7886 17.3394C80.5786 17.5493 80.3247 17.6543 80.0269 17.6543ZM85.3296 27L82.4805 18.9946H84.4287L86.2744 25.2202H86.4062L88.2446 18.9946H90.1636L87.3218 27H85.3296ZM94.8071 27.1611C94.0112 27.1611 93.3276 26.9927 92.7563 26.6558C92.1899 26.3188 91.7529 25.8403 91.4453 25.2202C91.1377 24.6001 90.9839 23.8652 90.9839 23.0156V23.0083C90.9839 22.1685 91.1353 21.436 91.438 20.811C91.7456 20.186 92.1802 19.7026 92.7417 19.3608C93.3032 19.0142 93.9624 18.8408 94.7192 18.8408C95.481 18.8408 96.1353 19.0093 96.6821 19.3462C97.2339 19.6782 97.6587 20.1445 97.9565 20.7451C98.2544 21.3457 98.4033 22.0488 98.4033 22.8545V23.4551H91.8994V22.2319H97.5098L96.6455 23.3745V22.6494C96.6455 22.1172 96.5649 21.6753 96.4038 21.3237C96.2427 20.9722 96.0181 20.7085 95.73 20.5327C95.4468 20.3569 95.1172 20.269 94.7412 20.269C94.3652 20.269 94.0308 20.3618 93.7378 20.5474C93.4497 20.728 93.2202 20.9966 93.0493 21.353C92.8833 21.7046 92.8003 22.1367 92.8003 22.6494V23.3818C92.8003 23.875 92.8833 24.2974 93.0493 24.6489C93.2153 24.9956 93.4497 25.2642 93.7524 25.4546C94.0601 25.6401 94.4238 25.7329 94.8438 25.7329C95.1709 25.7329 95.4517 25.6865 95.686 25.5938C95.9253 25.4961 96.1182 25.3813 96.2646 25.2495C96.4111 25.1128 96.5137 24.9834 96.5723 24.8613L96.5942 24.8101H98.3228L98.3081 24.876C98.2446 25.1348 98.1274 25.3984 97.9565 25.667C97.7905 25.9307 97.5635 26.1772 97.2754 26.4067C96.9922 26.6313 96.6455 26.8145 96.2354 26.9561C95.8252 27.0928 95.3491 27.1611 94.8071 27.1611Z" fill="white" fill-opacity="0.96"/>
</g>
<path d="M174.594 27V16.4312H176.234L181.903 24.3779L180.6 23.7114H181.544V16.4312H183.361V27H181.728L176.059 19.0459L177.362 19.7124H176.417V27H174.594ZM189.213 27.1611C188.417 27.1611 187.733 26.9927 187.162 26.6558C186.596 26.3188 186.159 25.8403 185.851 25.2202C185.543 24.6001 185.39 23.8652 185.39 23.0156V23.0083C185.39 22.1685 185.541 21.436 185.844 20.811C186.151 20.186 186.586 19.7026 187.147 19.3608C187.709 19.0142 188.368 18.8408 189.125 18.8408C189.887 18.8408 190.541 19.0093 191.088 19.3462C191.64 19.6782 192.064 20.1445 192.362 20.7451C192.66 21.3457 192.809 22.0488 192.809 22.8545V23.4551H186.305V22.2319H191.916L191.051 23.3745V22.6494C191.051 22.1172 190.971 21.6753 190.81 21.3237C190.648 20.9722 190.424 20.7085 190.136 20.5327C189.853 20.3569 189.523 20.269 189.147 20.269C188.771 20.269 188.437 20.3618 188.144 20.5474C187.855 20.728 187.626 20.9966 187.455 21.353C187.289 21.7046 187.206 22.1367 187.206 22.6494V23.3818C187.206 23.875 187.289 24.2974 187.455 24.6489C187.621 24.9956 187.855 25.2642 188.158 25.4546C188.466 25.6401 188.83 25.7329 189.25 25.7329C189.577 25.7329 189.857 25.6865 190.092 25.5938C190.331 25.4961 190.524 25.3813 190.67 25.2495C190.817 25.1128 190.919 24.9834 190.978 24.8613L191 24.8101H192.729L192.714 24.876C192.65 25.1348 192.533 25.3984 192.362 25.667C192.196 25.9307 191.969 26.1772 191.681 26.4067C191.398 26.6313 191.051 26.8145 190.641 26.9561C190.231 27.0928 189.755 27.1611 189.213 27.1611ZM198.075 29.8125C197.372 29.8125 196.764 29.7197 196.251 29.5342C195.744 29.3486 195.343 29.085 195.05 28.7432C194.757 28.4062 194.579 28.0132 194.516 27.564L194.523 27.542H196.339L196.354 27.564C196.413 27.8179 196.591 28.0254 196.889 28.1865C197.191 28.3525 197.597 28.4355 198.104 28.4355C198.729 28.4355 199.213 28.2964 199.555 28.0181C199.901 27.7397 200.075 27.3442 200.075 26.8315V25.2935H199.95C199.799 25.5815 199.601 25.8257 199.357 26.0259C199.118 26.2261 198.842 26.3774 198.529 26.48C198.222 26.5776 197.882 26.6265 197.511 26.6265C196.837 26.6265 196.254 26.4653 195.761 26.1431C195.268 25.8159 194.887 25.3643 194.618 24.7881C194.354 24.2119 194.223 23.5454 194.223 22.7886V22.7739C194.223 22.0024 194.357 21.3237 194.625 20.7378C194.894 20.1519 195.275 19.6929 195.768 19.3608C196.266 19.0288 196.859 18.8628 197.548 18.8628C197.919 18.8628 198.258 18.9214 198.566 19.0386C198.878 19.1558 199.152 19.3218 199.386 19.5366C199.625 19.7515 199.821 20.0103 199.972 20.313H200.067V18.9946H201.891V26.8022C201.891 27.4175 201.735 27.9497 201.422 28.3989C201.115 28.853 200.675 29.2021 200.104 29.4463C199.533 29.6904 198.856 29.8125 198.075 29.8125ZM198.075 25.1763C198.495 25.1763 198.856 25.0762 199.159 24.876C199.462 24.6709 199.694 24.3901 199.855 24.0337C200.021 23.6772 200.104 23.2622 200.104 22.7886V22.7739C200.104 22.3003 200.021 21.8853 199.855 21.5288C199.694 21.1675 199.462 20.8867 199.159 20.6865C198.856 20.4814 198.495 20.3789 198.075 20.3789C197.65 20.3789 197.289 20.4814 196.991 20.6865C196.698 20.8867 196.474 21.1675 196.317 21.5288C196.166 21.8853 196.09 22.3003 196.09 22.7739V22.7886C196.09 23.2573 196.166 23.6724 196.317 24.0337C196.474 24.3901 196.698 24.6709 196.991 24.876C197.289 25.0762 197.65 25.1763 198.075 25.1763ZM206.308 27.1318C205.805 27.1318 205.353 27.0342 204.953 26.8389C204.557 26.6436 204.245 26.3677 204.015 26.0112C203.791 25.6499 203.678 25.2251 203.678 24.7368V24.7222C203.678 24.2485 203.795 23.8408 204.03 23.499C204.264 23.1523 204.608 22.8813 205.062 22.686C205.517 22.4907 206.068 22.376 206.718 22.3418L209.677 22.1587V23.3599L206.974 23.5356C206.461 23.5649 206.083 23.6724 205.839 23.8579C205.595 24.0435 205.473 24.3022 205.473 24.6343V24.6489C205.473 24.9907 205.602 25.2568 205.861 25.4473C206.125 25.6377 206.459 25.7329 206.864 25.7329C207.23 25.7329 207.558 25.6597 207.846 25.5132C208.134 25.3667 208.361 25.1689 208.527 24.9199C208.693 24.666 208.776 24.3804 208.776 24.063V21.5288C208.776 21.1284 208.649 20.8232 208.395 20.6133C208.141 20.3984 207.765 20.291 207.267 20.291C206.852 20.291 206.513 20.3643 206.249 20.5107C205.985 20.6523 205.807 20.855 205.714 21.1187L205.707 21.1479H203.986L203.993 21.082C204.052 20.6328 204.228 20.2397 204.521 19.9028C204.813 19.5659 205.202 19.3047 205.685 19.1191C206.168 18.9336 206.725 18.8408 207.355 18.8408C208.048 18.8408 208.634 18.9482 209.113 19.1631C209.591 19.373 209.955 19.6807 210.204 20.0859C210.453 20.4863 210.578 20.9673 210.578 21.5288V27H208.776V25.9014H208.651C208.505 26.1553 208.314 26.375 208.08 26.5605C207.851 26.7461 207.587 26.8877 207.289 26.9854C206.991 27.083 206.664 27.1318 206.308 27.1318ZM215.917 27.0366C214.999 27.0366 214.337 26.8682 213.932 26.5312C213.527 26.1943 213.324 25.6426 213.324 24.876V20.4082H212.079V18.9946H213.324V17.0317H215.177V18.9946H216.862V20.4082H215.177V24.4438C215.177 24.8394 215.26 25.1299 215.426 25.3154C215.597 25.4961 215.871 25.5864 216.247 25.5864C216.378 25.5864 216.486 25.584 216.569 25.5791C216.657 25.5693 216.754 25.5596 216.862 25.5498V26.9561C216.735 26.9805 216.588 27 216.422 27.0146C216.261 27.0293 216.093 27.0366 215.917 27.0366ZM218.708 27V18.9946H220.524V27H218.708ZM219.623 17.6543C219.325 17.6543 219.069 17.5493 218.854 17.3394C218.639 17.1294 218.532 16.8779 218.532 16.585C218.532 16.2822 218.639 16.0283 218.854 15.8232C219.069 15.6133 219.325 15.5083 219.623 15.5083C219.921 15.5083 220.175 15.6133 220.385 15.8232C220.6 16.0283 220.707 16.2822 220.707 16.585C220.707 16.8779 220.6 17.1294 220.385 17.3394C220.175 17.5493 219.921 17.6543 219.623 17.6543ZM224.926 27L222.077 18.9946H224.025L225.871 25.2202H226.002L227.841 18.9946H229.76L226.918 27H224.926ZM234.403 27.1611C233.607 27.1611 232.924 26.9927 232.353 26.6558C231.786 26.3188 231.349 25.8403 231.042 25.2202C230.734 24.6001 230.58 23.8652 230.58 23.0156V23.0083C230.58 22.1685 230.731 21.436 231.034 20.811C231.342 20.186 231.776 19.7026 232.338 19.3608C232.899 19.0142 233.559 18.8408 234.315 18.8408C235.077 18.8408 235.731 19.0093 236.278 19.3462C236.83 19.6782 237.255 20.1445 237.553 20.7451C237.851 21.3457 238 22.0488 238 22.8545V23.4551H231.496V22.2319H237.106L236.242 23.3745V22.6494C236.242 22.1172 236.161 21.6753 236 21.3237C235.839 20.9722 235.614 20.7085 235.326 20.5327C235.043 20.3569 234.713 20.269 234.337 20.269C233.961 20.269 233.627 20.3618 233.334 20.5474C233.046 20.728 232.816 20.9966 232.646 21.353C232.479 21.7046 232.396 22.1367 232.396 22.6494V23.3818C232.396 23.875 232.479 24.2974 232.646 24.6489C232.812 24.9956 233.046 25.2642 233.349 25.4546C233.656 25.6401 234.02 25.7329 234.44 25.7329C234.767 25.7329 235.048 25.6865 235.282 25.5938C235.521 25.4961 235.714 25.3813 235.861 25.2495C236.007 25.1128 236.11 24.9834 236.168 24.8613L236.19 24.8101H237.919L237.904 24.876C237.841 25.1348 237.724 25.3984 237.553 25.667C237.387 25.9307 237.16 26.1772 236.872 26.4067C236.588 26.6313 236.242 26.8145 235.832 26.9561C235.421 27.0928 234.945 27.1611 234.403 27.1611Z" fill="white" fill-opacity="0.23" style="mix-blend-mode:lighten"/>
<path d="M174.594 27V16.4312H176.234L181.903 24.3779L180.6 23.7114H181.544V16.4312H183.361V27H181.728L176.059 19.0459L177.362 19.7124H176.417V27H174.594ZM189.213 27.1611C188.417 27.1611 187.733 26.9927 187.162 26.6558C186.596 26.3188 186.159 25.8403 185.851 25.2202C185.543 24.6001 185.39 23.8652 185.39 23.0156V23.0083C185.39 22.1685 185.541 21.436 185.844 20.811C186.151 20.186 186.586 19.7026 187.147 19.3608C187.709 19.0142 188.368 18.8408 189.125 18.8408C189.887 18.8408 190.541 19.0093 191.088 19.3462C191.64 19.6782 192.064 20.1445 192.362 20.7451C192.66 21.3457 192.809 22.0488 192.809 22.8545V23.4551H186.305V22.2319H191.916L191.051 23.3745V22.6494C191.051 22.1172 190.971 21.6753 190.81 21.3237C190.648 20.9722 190.424 20.7085 190.136 20.5327C189.853 20.3569 189.523 20.269 189.147 20.269C188.771 20.269 188.437 20.3618 188.144 20.5474C187.855 20.728 187.626 20.9966 187.455 21.353C187.289 21.7046 187.206 22.1367 187.206 22.6494V23.3818C187.206 23.875 187.289 24.2974 187.455 24.6489C187.621 24.9956 187.855 25.2642 188.158 25.4546C188.466 25.6401 188.83 25.7329 189.25 25.7329C189.577 25.7329 189.857 25.6865 190.092 25.5938C190.331 25.4961 190.524 25.3813 190.67 25.2495C190.817 25.1128 190.919 24.9834 190.978 24.8613L191 24.8101H192.729L192.714 24.876C192.65 25.1348 192.533 25.3984 192.362 25.667C192.196 25.9307 191.969 26.1772 191.681 26.4067C191.398 26.6313 191.051 26.8145 190.641 26.9561C190.231 27.0928 189.755 27.1611 189.213 27.1611ZM198.075 29.8125C197.372 29.8125 196.764 29.7197 196.251 29.5342C195.744 29.3486 195.343 29.085 195.05 28.7432C194.757 28.4062 194.579 28.0132 194.516 27.564L194.523 27.542H196.339L196.354 27.564C196.413 27.8179 196.591 28.0254 196.889 28.1865C197.191 28.3525 197.597 28.4355 198.104 28.4355C198.729 28.4355 199.213 28.2964 199.555 28.0181C199.901 27.7397 200.075 27.3442 200.075 26.8315V25.2935H199.95C199.799 25.5815 199.601 25.8257 199.357 26.0259C199.118 26.2261 198.842 26.3774 198.529 26.48C198.222 26.5776 197.882 26.6265 197.511 26.6265C196.837 26.6265 196.254 26.4653 195.761 26.1431C195.268 25.8159 194.887 25.3643 194.618 24.7881C194.354 24.2119 194.223 23.5454 194.223 22.7886V22.7739C194.223 22.0024 194.357 21.3237 194.625 20.7378C194.894 20.1519 195.275 19.6929 195.768 19.3608C196.266 19.0288 196.859 18.8628 197.548 18.8628C197.919 18.8628 198.258 18.9214 198.566 19.0386C198.878 19.1558 199.152 19.3218 199.386 19.5366C199.625 19.7515 199.821 20.0103 199.972 20.313H200.067V18.9946H201.891V26.8022C201.891 27.4175 201.735 27.9497 201.422 28.3989C201.115 28.853 200.675 29.2021 200.104 29.4463C199.533 29.6904 198.856 29.8125 198.075 29.8125ZM198.075 25.1763C198.495 25.1763 198.856 25.0762 199.159 24.876C199.462 24.6709 199.694 24.3901 199.855 24.0337C200.021 23.6772 200.104 23.2622 200.104 22.7886V22.7739C200.104 22.3003 200.021 21.8853 199.855 21.5288C199.694 21.1675 199.462 20.8867 199.159 20.6865C198.856 20.4814 198.495 20.3789 198.075 20.3789C197.65 20.3789 197.289 20.4814 196.991 20.6865C196.698 20.8867 196.474 21.1675 196.317 21.5288C196.166 21.8853 196.09 22.3003 196.09 22.7739V22.7886C196.09 23.2573 196.166 23.6724 196.317 24.0337C196.474 24.3901 196.698 24.6709 196.991 24.876C197.289 25.0762 197.65 25.1763 198.075 25.1763ZM206.308 27.1318C205.805 27.1318 205.353 27.0342 204.953 26.8389C204.557 26.6436 204.245 26.3677 204.015 26.0112C203.791 25.6499 203.678 25.2251 203.678 24.7368V24.7222C203.678 24.2485 203.795 23.8408 204.03 23.499C204.264 23.1523 204.608 22.8813 205.062 22.686C205.517 22.4907 206.068 22.376 206.718 22.3418L209.677 22.1587V23.3599L206.974 23.5356C206.461 23.5649 206.083 23.6724 205.839 23.8579C205.595 24.0435 205.473 24.3022 205.473 24.6343V24.6489C205.473 24.9907 205.602 25.2568 205.861 25.4473C206.125 25.6377 206.459 25.7329 206.864 25.7329C207.23 25.7329 207.558 25.6597 207.846 25.5132C208.134 25.3667 208.361 25.1689 208.527 24.9199C208.693 24.666 208.776 24.3804 208.776 24.063V21.5288C208.776 21.1284 208.649 20.8232 208.395 20.6133C208.141 20.3984 207.765 20.291 207.267 20.291C206.852 20.291 206.513 20.3643 206.249 20.5107C205.985 20.6523 205.807 20.855 205.714 21.1187L205.707 21.1479H203.986L203.993 21.082C204.052 20.6328 204.228 20.2397 204.521 19.9028C204.813 19.5659 205.202 19.3047 205.685 19.1191C206.168 18.9336 206.725 18.8408 207.355 18.8408C208.048 18.8408 208.634 18.9482 209.113 19.1631C209.591 19.373 209.955 19.6807 210.204 20.0859C210.453 20.4863 210.578 20.9673 210.578 21.5288V27H208.776V25.9014H208.651C208.505 26.1553 208.314 26.375 208.08 26.5605C207.851 26.7461 207.587 26.8877 207.289 26.9854C206.991 27.083 206.664 27.1318 206.308 27.1318ZM215.917 27.0366C214.999 27.0366 214.337 26.8682 213.932 26.5312C213.527 26.1943 213.324 25.6426 213.324 24.876V20.4082H212.079V18.9946H213.324V17.0317H215.177V18.9946H216.862V20.4082H215.177V24.4438C215.177 24.8394 215.26 25.1299 215.426 25.3154C215.597 25.4961 215.871 25.5864 216.247 25.5864C216.378 25.5864 216.486 25.584 216.569 25.5791C216.657 25.5693 216.754 25.5596 216.862 25.5498V26.9561C216.735 26.9805 216.588 27 216.422 27.0146C216.261 27.0293 216.093 27.0366 215.917 27.0366ZM218.708 27V18.9946H220.524V27H218.708ZM219.623 17.6543C219.325 17.6543 219.069 17.5493 218.854 17.3394C218.639 17.1294 218.532 16.8779 218.532 16.585C218.532 16.2822 218.639 16.0283 218.854 15.8232C219.069 15.6133 219.325 15.5083 219.623 15.5083C219.921 15.5083 220.175 15.6133 220.385 15.8232C220.6 16.0283 220.707 16.2822 220.707 16.585C220.707 16.8779 220.6 17.1294 220.385 17.3394C220.175 17.5493 219.921 17.6543 219.623 17.6543ZM224.926 27L222.077 18.9946H224.025L225.871 25.2202H226.002L227.841 18.9946H229.76L226.918 27H224.926ZM234.403 27.1611C233.607 27.1611 232.924 26.9927 232.353 26.6558C231.786 26.3188 231.349 25.8403 231.042 25.2202C230.734 24.6001 230.58 23.8652 230.58 23.0156V23.0083C230.58 22.1685 230.731 21.436 231.034 20.811C231.342 20.186 231.776 19.7026 232.338 19.3608C232.899 19.0142 233.559 18.8408 234.315 18.8408C235.077 18.8408 235.731 19.0093 236.278 19.3462C236.83 19.6782 237.255 20.1445 237.553 20.7451C237.851 21.3457 238 22.0488 238 22.8545V23.4551H231.496V22.2319H237.106L236.242 23.3745V22.6494C236.242 22.1172 236.161 21.6753 236 21.3237C235.839 20.9722 235.614 20.7085 235.326 20.5327C235.043 20.3569 234.713 20.269 234.337 20.269C233.961 20.269 233.627 20.3618 233.334 20.5474C233.046 20.728 232.816 20.9966 232.646 21.353C232.479 21.7046 232.396 22.1367 232.396 22.6494V23.3818C232.396 23.875 232.479 24.2974 232.646 24.6489C232.812 24.9956 233.046 25.2642 233.349 25.4546C233.656 25.6401 234.02 25.7329 234.44 25.7329C234.767 25.7329 235.048 25.6865 235.282 25.5938C235.521 25.4961 235.714 25.3813 235.861 25.2495C236.007 25.1128 236.11 24.9834 236.168 24.8613L236.19 24.8101H237.919L237.904 24.876C237.841 25.1348 237.724 25.3984 237.553 25.667C237.387 25.9307 237.16 26.1772 236.872 26.4067C236.588 26.6313 236.242 26.8145 235.832 26.9561C235.421 27.0928 234.945 27.1611 234.403 27.1611Z" fill="#545454" style="mix-blend-mode:color-dodge"/>
</g>
</g>
<defs>
<filter id="filter0_iiii_1200_1297" x="0" y="-0.5" width="277" height="46" filterUnits="userSpaceOnUse" color-interpolation-filters="sRGB">
<feFlood flood-opacity="0" result="BackgroundImageFix"/>
<feBlend mode="normal" in="SourceGraphic" in2="BackgroundImageFix" result="shape"/>
<feColorMatrix in="SourceAlpha" type="matrix" values="0 0 0 0 0 0 0 0 0 0 0 0 0 0 0 0 0 0 127 0" result="hardAlpha"/>
<feOffset dx="1" dy="1.5"/>
<feGaussianBlur stdDeviation="2"/>
<feComposite in2="hardAlpha" operator="arithmetic" k2="-1" k3="1"/>
<feColorMatrix type="matrix" values="0 0 0 0 0 0 0 0 0 0 0 0 0 0 0 0 0 0 0.1 0"/>
<feBlend mode="normal" in2="shape" result="effect1_innerShadow_1200_1297"/>
<feColorMatrix in="SourceAlpha" type="matrix" values="0 0 0 0 0 0 0 0 0 0 0 0 0 0 0 0 0 0 127 0" result="hardAlpha"/>
<feOffset dx="1" dy="1.5"/>
<feGaussianBlur stdDeviation="2"/>
<feComposite in2="hardAlpha" operator="arithmetic" k2="-1" k3="1"/>
<feColorMatrix type="matrix" values="0 0 0 0 0 0 0 0 0 0 0 0 0 0 0 0 0 0 0.08 0"/>
<feBlend mode="overlay" in2="effect1_innerShadow_1200_1297" result="effect2_innerShadow_1200_1297"/>
<feColorMatrix in="SourceAlpha" type="matrix" values="0 0 0 0 0 0 0 0 0 0 0 0 0 0 0 0 0 0 127 0" result="hardAlpha"/>
<feOffset dy="-0.5"/>
<feGaussianBlur stdDeviation="0.5"/>
<feComposite in2="hardAlpha" operator="arithmetic" k2="-1" k3="1"/>
<feColorMatrix type="matrix" values="0 0 0 0 1 0 0 0 0 1 0 0 0 0 1 0 0 0 0.25 0"/>
<feBlend mode="normal" in2="effect2_innerShadow_1200_1297" result="effect3_innerShadow_1200_1297"/>
<feColorMatrix in="SourceAlpha" type="matrix" values="0 0 0 0 0 0 0 0 0 0 0 0 0 0 0 0 0 0 127 0" result="hardAlpha"/>
<feOffset dy="-0.5"/>
<feGaussianBlur stdDeviation="0.5"/>
<feComposite in2="hardAlpha" operator="arithmetic" k2="-1" k3="1"/>
<feColorMatrix type="matrix" values="0 0 0 0 1 0 0 0 0 1 0 0 0 0 1 0 0 0 0.3 0"/>
<feBlend mode="overlay" in2="effect3_innerShadow_1200_1297" result="effect4_innerShadow_1200_1297"/>
</filter>
<filter id="filter1_d_1200_1297" x="0" y="2" width="140" height="44" filterUnits="userSpaceOnUse" color-interpolation-filters="sRGB">
<feFlood flood-opacity="0" result="BackgroundImageFix"/>
<feColorMatrix in="SourceAlpha" type="matrix" values="0 0 0 0 0 0 0 0 0 0 0 0 0 0 0 0 0 0 127 0" result="hardAlpha"/>
<feOffset dy="2"/>
<feGaussianBlur stdDeviation="2"/>
<feComposite in2="hardAlpha" operator="out"/>
<feColorMatrix type="matrix" values="0 0 0 0 0 0 0 0 0 0 0 0 0 0 0 0 0 0 0.1 0"/>
<feBlend mode="normal" in2="BackgroundImageFix" result="effect1_dropShadow_1200_1297"/>
<feBlend mode="normal" in="SourceGraphic" in2="effect1_dropShadow_1200_1297" result="shape"/>
</filter>
<linearGradient id="paint0_linear_1200_1297" x1="15.1375" y1="4.675" x2="21.9251" y2="46.2694" gradientUnits="userSpaceOnUse">
<stop stop-color="white" stop-opacity="0.4"/>
<stop offset="0.405687" stop-color="white" stop-opacity="0.01"/>
<stop offset="0.574372" stop-color="white" stop-opacity="0.01"/>
<stop offset="1" stop-color="white" stop-opacity="0.1"/>
</linearGradient>
<clipPath id="clip0_1200_1297">
<rect width="276" height="44" rx="22" fill="white"/>
</clipPath>
</defs>
</svg>
