<svg width="10" height="16" viewBox="0 0 10 16" fill="none" xmlns="http://www.w3.org/2000/svg">
<path d="M10 7.99857C9.99394 7.63435 9.85285 7.33043 9.53783 7.04554L2.1974 0.339137C1.94658 0.111294 1.65151 0 1.29092 0C0.579285 0 0 0.528526 0 1.19547C0 1.52287 0.144059 1.8268 0.403098 2.06879L6.93514 7.99573L0.403098 13.9283C0.147099 14.1675 0 14.4681 0 14.8045C0 15.4686 0.579285 16 1.29092 16C1.64544 16 1.94658 15.8887 2.1974 15.6548L9.53783 8.95158C9.85588 8.66062 10 8.35994 10 7.99857Z" fill="white"/>
</svg>
