<svg width="340" height="69" viewBox="0 0 340 69" fill="none" xmlns="http://www.w3.org/2000/svg">
<rect x="0.7" y="0.7" width="338.6" height="67.6" rx="31.3" fill="#808080" fill-opacity="0.3" style="mix-blend-mode:luminosity"/>
<rect x="0.7" y="0.7" width="338.6" height="67.6" rx="31.3" stroke="url(#paint0_linear_883_1203)" stroke-width="1.4"/>
<path d="M91.5156 25.3125L94.5938 27.75L93.1172 29.0312L90.0859 26.5938L91.5156 25.3125ZM94.6719 21.0469V21.5859C94.6719 22.4505 94.5547 23.2266 94.3203 23.9141C94.0911 24.6016 93.7604 25.1875 93.3281 25.6719C92.8958 26.151 92.3854 26.5182 91.7969 26.7734C91.2083 27.0286 90.5547 27.1562 89.8359 27.1562C89.1224 27.1562 88.4688 27.0286 87.875 26.7734C87.2812 26.5182 86.7682 26.151 86.3359 25.6719C85.9036 25.1875 85.5677 24.6016 85.3281 23.9141C85.0938 23.2266 84.9766 22.4505 84.9766 21.5859V21.0469C84.9766 20.1771 85.0938 19.401 85.3281 18.7188C85.5677 18.0312 85.901 17.4453 86.3281 16.9609C86.7552 16.4766 87.2656 16.1068 87.8594 15.8516C88.4531 15.5964 89.1068 15.4688 89.8203 15.4688C90.5391 15.4688 91.1927 15.5964 91.7812 15.8516C92.375 16.1068 92.888 16.4766 93.3203 16.9609C93.7526 17.4453 94.0859 18.0312 94.3203 18.7188C94.5547 19.401 94.6719 20.1771 94.6719 21.0469ZM92.3047 21.5859V21.0312C92.3047 20.4271 92.2474 19.8958 92.1328 19.4375C92.0234 18.9792 91.862 18.5938 91.6484 18.2812C91.4401 17.9688 91.1823 17.7344 90.875 17.5781C90.5677 17.4167 90.2161 17.3359 89.8203 17.3359C89.4245 17.3359 89.0729 17.4167 88.7656 17.5781C88.4583 17.7344 88.2005 17.9688 87.9922 18.2812C87.7839 18.5938 87.625 18.9792 87.5156 19.4375C87.4062 19.8958 87.3516 20.4271 87.3516 21.0312V21.5859C87.3516 22.1849 87.4062 22.7161 87.5156 23.1797C87.625 23.638 87.7839 24.026 87.9922 24.3438C88.2057 24.6562 88.4661 24.8932 88.7734 25.0547C89.0859 25.2161 89.4401 25.2969 89.8359 25.2969C90.2318 25.2969 90.5807 25.2161 90.8828 25.0547C91.1901 24.8932 91.4479 24.6562 91.6562 24.3438C91.8698 24.026 92.0312 23.638 92.1406 23.1797C92.25 22.7161 92.3047 22.1849 92.3047 21.5859ZM101.227 24.9766V18.5469H103.477V27H101.359L101.227 24.9766ZM101.477 23.2422L102.141 23.2266C102.141 23.7891 102.076 24.3125 101.945 24.7969C101.815 25.276 101.62 25.6927 101.359 26.0469C101.099 26.3958 100.771 26.6693 100.375 26.8672C99.9792 27.0599 99.513 27.1562 98.9766 27.1562C98.5651 27.1562 98.1849 27.099 97.8359 26.9844C97.4922 26.8646 97.1953 26.6797 96.9453 26.4297C96.7005 26.1745 96.5078 25.849 96.3672 25.4531C96.2318 25.0521 96.1641 24.5703 96.1641 24.0078V18.5469H98.4141V24.0234C98.4141 24.2734 98.4427 24.4844 98.5 24.6562C98.5625 24.8281 98.6484 24.9688 98.7578 25.0781C98.8672 25.1875 98.9948 25.2656 99.1406 25.3125C99.2917 25.3594 99.4583 25.3828 99.6406 25.3828C100.104 25.3828 100.469 25.2891 100.734 25.1016C101.005 24.9141 101.195 24.6589 101.305 24.3359C101.419 24.0078 101.477 23.6432 101.477 23.2422ZM104.836 22.8594V22.6953C104.836 22.0755 104.924 21.5052 105.102 20.9844C105.279 20.4583 105.536 20.0026 105.875 19.6172C106.214 19.2318 106.63 18.9323 107.125 18.7188C107.62 18.5 108.188 18.3906 108.828 18.3906C109.469 18.3906 110.039 18.5 110.539 18.7188C111.039 18.9323 111.458 19.2318 111.797 19.6172C112.141 20.0026 112.401 20.4583 112.578 20.9844C112.755 21.5052 112.844 22.0755 112.844 22.6953V22.8594C112.844 23.474 112.755 24.0443 112.578 24.5703C112.401 25.0911 112.141 25.5469 111.797 25.9375C111.458 26.3229 111.042 26.6224 110.547 26.8359C110.052 27.0495 109.484 27.1562 108.844 27.1562C108.203 27.1562 107.633 27.0495 107.133 26.8359C106.638 26.6224 106.219 26.3229 105.875 25.9375C105.536 25.5469 105.279 25.0911 105.102 24.5703C104.924 24.0443 104.836 23.474 104.836 22.8594ZM107.086 22.6953V22.8594C107.086 23.2135 107.117 23.5443 107.18 23.8516C107.242 24.1589 107.341 24.4297 107.477 24.6641C107.617 24.8932 107.799 25.0729 108.023 25.2031C108.247 25.3333 108.521 25.3984 108.844 25.3984C109.156 25.3984 109.424 25.3333 109.648 25.2031C109.872 25.0729 110.052 24.8932 110.188 24.6641C110.323 24.4297 110.422 24.1589 110.484 23.8516C110.552 23.5443 110.586 23.2135 110.586 22.8594V22.6953C110.586 22.3516 110.552 22.0286 110.484 21.7266C110.422 21.4193 110.32 21.1484 110.18 20.9141C110.044 20.6745 109.865 20.487 109.641 20.3516C109.417 20.2161 109.146 20.1484 108.828 20.1484C108.51 20.1484 108.24 20.2161 108.016 20.3516C107.797 20.487 107.617 20.6745 107.477 20.9141C107.341 21.1484 107.242 21.4193 107.18 21.7266C107.117 22.0286 107.086 22.3516 107.086 22.6953ZM118.367 18.5469V20.1406H113.445V18.5469H118.367ZM114.664 16.4609H116.914V24.4531C116.914 24.6979 116.945 24.8854 117.008 25.0156C117.076 25.1458 117.174 25.237 117.305 25.2891C117.435 25.3359 117.599 25.3594 117.797 25.3594C117.938 25.3594 118.062 25.3542 118.172 25.3438C118.286 25.3281 118.383 25.3125 118.461 25.2969L118.469 26.9531C118.276 27.0156 118.068 27.0651 117.844 27.1016C117.62 27.138 117.372 27.1562 117.102 27.1562C116.607 27.1562 116.174 27.0755 115.805 26.9141C115.44 26.7474 115.159 26.4818 114.961 26.1172C114.763 25.7526 114.664 25.2734 114.664 24.6797V16.4609ZM123.539 27.1562C122.883 27.1562 122.294 27.0521 121.773 26.8438C121.253 26.6302 120.81 26.3359 120.445 25.9609C120.086 25.5859 119.81 25.151 119.617 24.6562C119.424 24.1562 119.328 23.625 119.328 23.0625V22.75C119.328 22.1094 119.419 21.5234 119.602 20.9922C119.784 20.4609 120.044 20 120.383 19.6094C120.727 19.2188 121.143 18.9193 121.633 18.7109C122.122 18.4974 122.674 18.3906 123.289 18.3906C123.888 18.3906 124.419 18.4896 124.883 18.6875C125.346 18.8854 125.734 19.1667 126.047 19.5312C126.365 19.8958 126.604 20.3333 126.766 20.8438C126.927 21.349 127.008 21.9115 127.008 22.5312V23.4688H120.289V21.9688H124.797V21.7969C124.797 21.4844 124.74 21.2057 124.625 20.9609C124.516 20.7109 124.349 20.513 124.125 20.3672C123.901 20.2214 123.615 20.1484 123.266 20.1484C122.969 20.1484 122.714 20.2135 122.5 20.3438C122.286 20.474 122.112 20.6562 121.977 20.8906C121.846 21.125 121.747 21.401 121.68 21.7188C121.617 22.0312 121.586 22.375 121.586 22.75V23.0625C121.586 23.401 121.633 23.7135 121.727 24C121.826 24.2865 121.964 24.5339 122.141 24.7422C122.323 24.9505 122.542 25.112 122.797 25.2266C123.057 25.3411 123.352 25.3984 123.68 25.3984C124.086 25.3984 124.464 25.3203 124.812 25.1641C125.167 25.0026 125.471 24.7604 125.727 24.4375L126.82 25.625C126.643 25.8802 126.401 26.125 126.094 26.3594C125.792 26.5938 125.427 26.7865 125 26.9375C124.573 27.0833 124.086 27.1562 123.539 27.1562ZM131.914 22.8594V22.6953C131.914 22.0755 132.003 21.5052 132.18 20.9844C132.357 20.4583 132.615 20.0026 132.953 19.6172C133.292 19.2318 133.708 18.9323 134.203 18.7188C134.698 18.5 135.266 18.3906 135.906 18.3906C136.547 18.3906 137.117 18.5 137.617 18.7188C138.117 18.9323 138.536 19.2318 138.875 19.6172C139.219 20.0026 139.479 20.4583 139.656 20.9844C139.833 21.5052 139.922 22.0755 139.922 22.6953V22.8594C139.922 23.474 139.833 24.0443 139.656 24.5703C139.479 25.0911 139.219 25.5469 138.875 25.9375C138.536 26.3229 138.12 26.6224 137.625 26.8359C137.13 27.0495 136.562 27.1562 135.922 27.1562C135.281 27.1562 134.711 27.0495 134.211 26.8359C133.716 26.6224 133.297 26.3229 132.953 25.9375C132.615 25.5469 132.357 25.0911 132.18 24.5703C132.003 24.0443 131.914 23.474 131.914 22.8594ZM134.164 22.6953V22.8594C134.164 23.2135 134.195 23.5443 134.258 23.8516C134.32 24.1589 134.419 24.4297 134.555 24.6641C134.695 24.8932 134.878 25.0729 135.102 25.2031C135.326 25.3333 135.599 25.3984 135.922 25.3984C136.234 25.3984 136.503 25.3333 136.727 25.2031C136.951 25.0729 137.13 24.8932 137.266 24.6641C137.401 24.4297 137.5 24.1589 137.562 23.8516C137.63 23.5443 137.664 23.2135 137.664 22.8594V22.6953C137.664 22.3516 137.63 22.0286 137.562 21.7266C137.5 21.4193 137.398 21.1484 137.258 20.9141C137.122 20.6745 136.943 20.487 136.719 20.3516C136.495 20.2161 136.224 20.1484 135.906 20.1484C135.589 20.1484 135.318 20.2161 135.094 20.3516C134.875 20.487 134.695 20.6745 134.555 20.9141C134.419 21.1484 134.32 21.4193 134.258 21.7266C134.195 22.0286 134.164 22.3516 134.164 22.6953ZM144.172 27H141.906V17.7969C141.906 17.1562 142.031 16.6172 142.281 16.1797C142.536 15.737 142.893 15.4036 143.352 15.1797C143.815 14.9505 144.365 14.8359 145 14.8359C145.208 14.8359 145.409 14.8516 145.602 14.8828C145.794 14.9089 145.982 14.9427 146.164 14.9844L146.141 16.6797C146.042 16.6536 145.938 16.6354 145.828 16.625C145.719 16.6146 145.591 16.6094 145.445 16.6094C145.174 16.6094 144.943 16.6562 144.75 16.75C144.562 16.8385 144.419 16.9714 144.32 17.1484C144.221 17.3255 144.172 17.5417 144.172 17.7969V27ZM145.859 18.5469V20.1406H140.648V18.5469H145.859ZM155.164 18.5469V20.1406H150.242V18.5469H155.164ZM151.461 16.4609H153.711V24.4531C153.711 24.6979 153.742 24.8854 153.805 25.0156C153.872 25.1458 153.971 25.237 154.102 25.2891C154.232 25.3359 154.396 25.3594 154.594 25.3594C154.734 25.3594 154.859 25.3542 154.969 25.3438C155.083 25.3281 155.18 25.3125 155.258 25.2969L155.266 26.9531C155.073 27.0156 154.865 27.0651 154.641 27.1016C154.417 27.138 154.169 27.1562 153.898 27.1562C153.404 27.1562 152.971 27.0755 152.602 26.9141C152.237 26.7474 151.956 26.4818 151.758 26.1172C151.56 25.7526 151.461 25.2734 151.461 24.6797V16.4609ZM158.641 15V27H156.391V15H158.641ZM158.32 22.4766H157.703C157.708 21.888 157.786 21.3464 157.938 20.8516C158.089 20.3516 158.305 19.9193 158.586 19.5547C158.867 19.1849 159.203 18.8984 159.594 18.6953C159.99 18.4922 160.427 18.3906 160.906 18.3906C161.323 18.3906 161.701 18.4505 162.039 18.5703C162.383 18.6849 162.677 18.8724 162.922 19.1328C163.172 19.388 163.365 19.724 163.5 20.1406C163.635 20.5573 163.703 21.0625 163.703 21.6562V27H161.438V21.6406C161.438 21.2656 161.383 20.9714 161.273 20.7578C161.169 20.5391 161.016 20.3854 160.812 20.2969C160.615 20.2031 160.37 20.1562 160.078 20.1562C159.755 20.1562 159.479 20.2161 159.25 20.3359C159.026 20.4557 158.846 20.6224 158.711 20.8359C158.576 21.0443 158.477 21.2891 158.414 21.5703C158.352 21.8516 158.32 22.1536 158.32 22.4766ZM169.305 27.1562C168.648 27.1562 168.06 27.0521 167.539 26.8438C167.018 26.6302 166.576 26.3359 166.211 25.9609C165.852 25.5859 165.576 25.151 165.383 24.6562C165.19 24.1562 165.094 23.625 165.094 23.0625V22.75C165.094 22.1094 165.185 21.5234 165.367 20.9922C165.549 20.4609 165.81 20 166.148 19.6094C166.492 19.2188 166.909 18.9193 167.398 18.7109C167.888 18.4974 168.44 18.3906 169.055 18.3906C169.654 18.3906 170.185 18.4896 170.648 18.6875C171.112 18.8854 171.5 19.1667 171.812 19.5312C172.13 19.8958 172.37 20.3333 172.531 20.8438C172.693 21.349 172.773 21.9115 172.773 22.5312V23.4688H166.055V21.9688H170.562V21.7969C170.562 21.4844 170.505 21.2057 170.391 20.9609C170.281 20.7109 170.115 20.513 169.891 20.3672C169.667 20.2214 169.38 20.1484 169.031 20.1484C168.734 20.1484 168.479 20.2135 168.266 20.3438C168.052 20.474 167.878 20.6562 167.742 20.8906C167.612 21.125 167.513 21.401 167.445 21.7188C167.383 22.0312 167.352 22.375 167.352 22.75V23.0625C167.352 23.401 167.398 23.7135 167.492 24C167.591 24.2865 167.729 24.5339 167.906 24.7422C168.089 24.9505 168.307 25.112 168.562 25.2266C168.823 25.3411 169.117 25.3984 169.445 25.3984C169.852 25.3984 170.229 25.3203 170.578 25.1641C170.932 25.0026 171.237 24.7604 171.492 24.4375L172.586 25.625C172.409 25.8802 172.167 26.125 171.859 26.3594C171.557 26.5938 171.193 26.7865 170.766 26.9375C170.339 27.0833 169.852 27.1562 169.305 27.1562ZM183.031 25.1562V15H185.297V27H183.258L183.031 25.1562ZM177.688 22.875V22.7109C177.688 22.0651 177.76 21.4792 177.906 20.9531C178.052 20.4219 178.266 19.9661 178.547 19.5859C178.828 19.2057 179.174 18.9115 179.586 18.7031C179.997 18.4948 180.466 18.3906 180.992 18.3906C181.487 18.3906 181.919 18.4948 182.289 18.7031C182.664 18.9115 182.982 19.2083 183.242 19.5938C183.508 19.974 183.721 20.4245 183.883 20.9453C184.044 21.4609 184.161 22.026 184.234 22.6406V23C184.161 23.5885 184.044 24.1354 183.883 24.6406C183.721 25.1458 183.508 25.5885 183.242 25.9688C182.982 26.3438 182.664 26.6354 182.289 26.8438C181.914 27.0521 181.477 27.1562 180.977 27.1562C180.451 27.1562 179.982 27.0495 179.57 26.8359C179.164 26.6224 178.82 26.3229 178.539 25.9375C178.263 25.5521 178.052 25.099 177.906 24.5781C177.76 24.0573 177.688 23.4896 177.688 22.875ZM179.938 22.7109V22.875C179.938 23.224 179.964 23.5495 180.016 23.8516C180.073 24.1536 180.164 24.4219 180.289 24.6562C180.419 24.8854 180.586 25.0651 180.789 25.1953C180.997 25.3203 181.25 25.3828 181.547 25.3828C181.932 25.3828 182.25 25.2969 182.5 25.125C182.75 24.9479 182.94 24.7057 183.07 24.3984C183.206 24.0911 183.284 23.737 183.305 23.3359V22.3125C183.289 21.9844 183.242 21.6901 183.164 21.4297C183.091 21.1641 182.982 20.9375 182.836 20.75C182.695 20.5625 182.518 20.4167 182.305 20.3125C182.096 20.2083 181.849 20.1562 181.562 20.1562C181.271 20.1562 181.021 20.224 180.812 20.3594C180.604 20.4896 180.435 20.6693 180.305 20.8984C180.18 21.1276 180.086 21.3984 180.023 21.7109C179.966 22.0182 179.938 22.3516 179.938 22.7109ZM191.617 25.0938V21.3281C191.617 21.0573 191.573 20.8255 191.484 20.6328C191.396 20.4349 191.258 20.2812 191.07 20.1719C190.888 20.0625 190.651 20.0078 190.359 20.0078C190.109 20.0078 189.893 20.0521 189.711 20.1406C189.529 20.224 189.388 20.3464 189.289 20.5078C189.19 20.6641 189.141 20.849 189.141 21.0625H186.891C186.891 20.7031 186.974 20.362 187.141 20.0391C187.307 19.7161 187.549 19.4323 187.867 19.1875C188.185 18.9375 188.562 18.7422 189 18.6016C189.443 18.4609 189.938 18.3906 190.484 18.3906C191.141 18.3906 191.724 18.5 192.234 18.7188C192.745 18.9375 193.146 19.2656 193.438 19.7031C193.734 20.1406 193.883 20.6875 193.883 21.3438V24.9609C193.883 25.4245 193.911 25.8047 193.969 26.1016C194.026 26.3932 194.109 26.6484 194.219 26.8672V27H191.945C191.836 26.7708 191.753 26.4844 191.695 26.1406C191.643 25.7917 191.617 25.4427 191.617 25.0938ZM191.914 21.8516L191.93 23.125H190.672C190.375 23.125 190.117 23.1589 189.898 23.2266C189.68 23.2943 189.5 23.3906 189.359 23.5156C189.219 23.6354 189.115 23.776 189.047 23.9375C188.984 24.099 188.953 24.276 188.953 24.4688C188.953 24.6615 188.997 24.8359 189.086 24.9922C189.174 25.1432 189.302 25.263 189.469 25.3516C189.635 25.4349 189.831 25.4766 190.055 25.4766C190.393 25.4766 190.688 25.4089 190.938 25.2734C191.188 25.138 191.38 24.9714 191.516 24.7734C191.656 24.5755 191.729 24.388 191.734 24.2109L192.328 25.1641C192.245 25.3776 192.13 25.599 191.984 25.8281C191.844 26.0573 191.664 26.2734 191.445 26.4766C191.227 26.6745 190.964 26.8385 190.656 26.9688C190.349 27.0938 189.984 27.1562 189.562 27.1562C189.026 27.1562 188.539 27.0495 188.102 26.8359C187.669 26.6172 187.326 26.3177 187.07 25.9375C186.82 25.5521 186.695 25.1146 186.695 24.625C186.695 24.1823 186.779 23.7891 186.945 23.4453C187.112 23.1016 187.357 22.8125 187.68 22.5781C188.008 22.3385 188.417 22.1589 188.906 22.0391C189.396 21.9141 189.964 21.8516 190.609 21.8516H191.914ZM198 26.0469L200.242 18.5469H202.656L199.258 28.2734C199.185 28.487 199.086 28.7161 198.961 28.9609C198.841 29.2057 198.677 29.4375 198.469 29.6562C198.266 29.8802 198.008 30.0625 197.695 30.2031C197.388 30.3438 197.01 30.4141 196.562 30.4141C196.349 30.4141 196.174 30.401 196.039 30.375C195.904 30.349 195.742 30.3125 195.555 30.2656V28.6172C195.612 28.6172 195.672 28.6172 195.734 28.6172C195.797 28.6224 195.857 28.625 195.914 28.625C196.211 28.625 196.453 28.5911 196.641 28.5234C196.828 28.4557 196.979 28.3516 197.094 28.2109C197.208 28.0755 197.299 27.8984 197.367 27.6797L198 26.0469ZM197.062 18.5469L198.898 24.6719L199.219 27.0547L197.688 27.2188L194.648 18.5469H197.062Z" fill="white" fill-opacity="0.96"/>
<g clip-path="url(#clip0_883_1203)">
<path d="M18 29.4678C18 35.7966 22.689 40.8406 28.6805 40.8406C31.4986 40.8406 34.1747 39.7224 36.1403 37.5335H36.7797C35.4061 42.0302 31.2381 45.7893 26.0755 47.3359C25.3177 47.5739 24.773 47.7881 24.4415 48.0736C24.0625 48.3828 23.8731 48.7636 23.8731 49.3108C23.8731 50.3099 24.6072 50.9999 25.6966 50.9999C26.4781 50.9999 27.0228 50.8571 28.0648 50.5241C31.3092 49.4535 34.2694 47.5739 36.5429 45.1707C39.7162 41.8399 41.6818 37.3907 41.6818 32.1088C41.6818 23.1866 36.0456 18.0237 29.4383 18.0237C22.9258 18.0237 18 23.0201 18 29.4678ZM46.4418 29.4678C46.4418 35.7966 51.1071 40.8406 57.1223 40.8406C59.9405 40.8406 62.5929 39.7224 64.5822 37.5335H65.1979C63.8479 42.0302 59.68 45.7893 54.4936 47.3359C53.7358 47.5739 53.2149 47.7881 52.8834 48.0736C52.5044 48.3828 52.2912 48.7636 52.2912 49.3108C52.2912 50.3099 53.049 50.9999 54.1621 50.9999C54.8962 50.9999 55.4646 50.8571 56.4829 50.5241C59.7511 49.4535 62.6875 47.5739 64.9374 45.1707C68.1581 41.8399 70.1236 37.3907 70.1236 32.1088C70.1236 23.1866 64.4874 18.0237 57.8802 18.0237C51.3678 18.0237 46.4418 23.0201 46.4418 29.4678Z" fill="#FAFAFF"/>
</g>
<defs>
<linearGradient id="paint0_linear_883_1203" x1="23.8187" y1="-1.52986e-05" x2="31.6879" y2="89.2675" gradientUnits="userSpaceOnUse">
<stop stop-color="white" stop-opacity="0.4"/>
<stop offset="0.405687" stop-color="white" stop-opacity="0.01"/>
<stop offset="0.574372" stop-color="white" stop-opacity="0.01"/>
<stop offset="1" stop-color="white" stop-opacity="0.1"/>
</linearGradient>
<clipPath id="clip0_883_1203">
<rect width="53" height="33" fill="white" transform="translate(18 18)"/>
</clipPath>
</defs>
</svg>
