<svg width="16" height="23" viewBox="0 0 16 23" fill="none" xmlns="http://www.w3.org/2000/svg">
<path d="M15.9989 11.495C15.9872 10.9292 15.7541 10.4775 15.2236 10.0408L3.71092 0.506256C3.3087 0.163789 2.83072 0 2.2478 0C1.07611 0 0.120117 0.794129 0.120117 1.78679C0.120117 2.27319 0.35912 2.73477 0.796322 3.09711L11.0033 11.4851L0.796322 19.883C0.364946 20.2503 0.120117 20.6971 0.120117 21.1982C0.120117 22.1909 1.07611 22.9949 2.2478 22.9949C2.81906 22.9949 3.3087 22.8262 3.71092 22.4838L15.2236 12.9493C15.7599 12.5026 15.9989 12.0459 15.9989 11.495Z" fill="white"/>
</svg>
