<svg width="8" height="11" viewBox="0 0 8 11" fill="none" xmlns="http://www.w3.org/2000/svg">
<path d="M7.9522 5.49883C7.94637 5.22817 7.8296 5.0121 7.56394 4.80316L1.7983 0.242176C1.59686 0.0783512 1.35749 0 1.06556 0C0.478766 0 0 0.379885 0 0.85474C0 1.08742 0.119695 1.30822 0.338648 1.48155L5.45036 5.49408L0.338648 9.51136C0.122612 9.68706 0 9.90078 0 10.1405C0 10.6154 0.478766 11 1.06556 11C1.35165 11 1.59686 10.9193 1.7983 10.7555L7.56394 6.19449C7.83252 5.98081 7.9522 5.76237 7.9522 5.49883Z" fill="white"/>
</svg>
