<svg width="16" height="20" viewBox="0 0 16 20" fill="none" xmlns="http://www.w3.org/2000/svg">
<path d="M15.8811 9.74688C15.8724 9.28517 15.6966 8.91661 15.2966 8.5602L6.61575 0.780048C6.31246 0.500595 5.95205 0.366943 5.51252 0.366943C4.62904 0.366943 3.9082 1.01495 3.9082 1.82496C3.9082 2.22186 4.08842 2.59852 4.41808 2.89418L12.1143 9.73877L4.41808 16.5915C4.09281 16.8912 3.9082 17.2557 3.9082 17.6647C3.9082 18.4747 4.62904 19.1308 5.51252 19.1308C5.94327 19.1308 6.31246 18.9931 6.61575 18.7137L15.2966 10.9335C15.7009 10.569 15.8811 10.1964 15.8811 9.74688Z" fill="white"/>
</svg>
