<svg width="16" height="19" viewBox="0 0 16 19" fill="none" xmlns="http://www.w3.org/2000/svg">
<path d="M15.04 9.08548C15.0312 8.63827 14.8559 8.28128 14.4569 7.93606L5.79908 0.400137C5.49659 0.129456 5.13714 0 4.69877 0C3.81762 0 3.09869 0.627667 3.09869 1.41225C3.09869 1.79669 3.27843 2.16152 3.60722 2.44791L11.2831 9.07763L3.60722 15.7152C3.28281 16.0055 3.09869 16.3586 3.09869 16.7547C3.09869 17.5393 3.81762 18.1748 4.69877 18.1748C5.12838 18.1748 5.49659 18.0415 5.79908 17.7709L14.4569 10.2349C14.8602 9.88183 15.04 9.52092 15.04 9.08548Z" fill="white"/>
</svg>
