<svg width="34" height="19" viewBox="0 0 34 19" fill="none" xmlns="http://www.w3.org/2000/svg">
<g clip-path="url(#clip0_820_3508)">
<path d="M10.2871 11.8543C8.80454 13.1525 7.96383 14.8054 7.96383 16.3095C7.96383 16.797 8.08128 17.2497 8.30478 17.6386H1.695C0.446259 17.6386 0 17.0974 0 16.1615C0 13.7663 2.61055 10.8387 6.5491 10.8387C7.99682 10.8387 9.26455 11.2337 10.2871 11.8543ZM9.68624 6.012C9.68624 7.95878 8.25989 9.48716 6.5491 9.48716C4.84437 9.48716 3.41478 7.95878 3.41478 6.0242C3.41478 4.12743 4.85889 2.61816 6.5491 2.61816C8.24819 2.61816 9.68624 4.10301 9.68624 6.012Z" fill="white" fill-opacity="0.85"/>
<path d="M33.6716 16.1615C33.6716 17.0974 33.2225 17.6386 31.9765 17.6386H25.3826C25.6055 17.2497 25.7223 16.797 25.7223 16.3095C25.7223 14.8035 24.8808 13.1481 23.3956 11.8491C24.4162 11.2314 25.6811 10.8387 27.1257 10.8387C31.0671 10.8387 33.6716 13.7663 33.6716 16.1615ZM30.2657 6.012C30.2657 7.95878 28.8365 9.48716 27.1257 9.48716C25.4238 9.48716 23.9881 7.95878 23.9881 6.0242C23.9881 4.12743 25.4294 2.61816 27.1257 2.61816C28.8248 2.61816 30.2657 4.10301 30.2657 6.012Z" fill="white" fill-opacity="0.85"/>
<path d="M16.849 9.28392C18.8079 9.28392 20.4534 7.53801 20.4534 5.2932C20.4534 3.10366 18.8023 1.39844 16.849 1.39844C14.8957 1.39844 13.2446 3.12807 13.2446 5.30825C13.2446 7.53801 14.8841 9.28392 16.849 9.28392ZM10.9684 17.6354H22.7175C23.752 17.6354 24.3682 17.1369 24.3682 16.3091C24.3682 14.0127 21.4473 10.8623 16.843 10.8623C12.2447 10.8623 9.32385 14.0127 9.32385 16.3091C9.32385 17.1369 9.93997 17.6354 10.9684 17.6354Z" fill="white" fill-opacity="0.85"/>
</g>
<defs>
<clipPath id="clip0_820_3508">
<rect width="34" height="19" fill="white"/>
</clipPath>
</defs>
</svg>
