<svg width="58" height="32" viewBox="0 0 58 32" fill="none" xmlns="http://www.w3.org/2000/svg">
<path d="M17.5486 19.9648C15.0195 22.1511 13.5854 24.9351 13.5854 27.4682C13.5854 28.2892 13.7857 29.0518 14.167 29.7067H2.89147C0.761265 29.7067 0 28.7953 0 27.2191C0 23.1849 4.45329 18.2543 11.172 18.2543C13.6416 18.2543 15.8042 18.9195 17.5486 19.9648ZM16.5236 10.1251C16.5236 13.4039 14.0904 15.978 11.172 15.978C8.26393 15.978 5.82521 13.4039 5.82521 10.1457C5.82521 6.95109 8.28869 4.40918 11.172 4.40918C14.0704 4.40918 16.5236 6.90998 16.5236 10.1251Z" fill="white" fill-opacity="0.85"/>
<path d="M57.4398 27.2191C57.4398 28.7953 56.6736 29.7067 54.5482 29.7067H43.2997C43.6799 29.0518 43.8792 28.2892 43.8792 27.4682C43.8792 24.9319 42.4437 22.1439 39.9102 19.956C41.6511 18.9156 43.8089 18.2543 46.2732 18.2543C52.9968 18.2543 57.4398 23.1849 57.4398 27.2191ZM51.6297 10.1251C51.6297 13.4039 49.1916 15.978 46.2732 15.978C43.3699 15.978 40.9209 13.4039 40.9209 10.1457C40.9209 6.95109 43.3796 4.40918 46.2732 4.40918C49.1716 4.40918 51.6297 6.90998 51.6297 10.1251Z" fill="white" fill-opacity="0.85"/>
<path d="M28.7426 15.6363C32.0842 15.6363 34.8912 12.6958 34.8912 8.91506C34.8912 5.22743 32.0746 2.35547 28.7426 2.35547C25.4105 2.35547 22.5939 5.26853 22.5939 8.94041C22.5939 12.6958 25.3906 15.6363 28.7426 15.6363ZM18.7109 29.7019H38.7535C40.5183 29.7019 41.5693 28.8623 41.5693 27.4682C41.5693 23.6005 36.5867 18.2947 28.7322 18.2947C20.8882 18.2947 15.9055 23.6005 15.9055 27.4682C15.9055 28.8623 16.9565 29.7019 18.7109 29.7019Z" fill="white" fill-opacity="0.85"/>
</svg>
