<svg width="153" height="85" viewBox="0 0 153 85" fill="none" xmlns="http://www.w3.org/2000/svg">
<path d="M46.2919 53.0318C39.6204 58.8392 35.8372 66.2341 35.8372 72.9627C35.8372 75.1436 36.3658 77.1691 37.3715 78.9087H7.6275C2.00816 78.9087 0 76.4877 0 72.3009C0 61.5852 11.7475 48.4882 29.4709 48.4882C35.9857 48.4882 41.6905 50.2551 46.2919 53.0318ZM43.5881 26.8951C43.5881 35.6044 37.1695 42.4419 29.4709 42.4419C21.7997 42.4419 15.3665 35.6044 15.3665 26.9497C15.3665 18.4641 21.865 11.7122 29.4709 11.7122C37.1169 11.7122 43.5881 18.3549 43.5881 26.8951Z" fill="white" fill-opacity="0.85"/>
<path d="M151.522 72.3009C151.522 76.4877 149.501 78.9087 143.894 78.9087H114.222C115.225 77.1691 115.75 75.1436 115.75 72.9627C115.75 66.2255 111.964 58.82 105.28 53.0085C109.873 50.2449 115.565 48.4882 122.066 48.4882C139.802 48.4882 151.522 61.5852 151.522 72.3009ZM136.196 26.8951C136.196 35.6044 129.764 42.4419 122.066 42.4419C114.407 42.4419 107.946 35.6044 107.946 26.9497C107.946 18.4641 114.432 11.7122 122.066 11.7122C129.711 11.7122 136.196 18.3549 136.196 26.8951Z" fill="white" fill-opacity="0.85"/>
<path d="M75.8209 41.5342C84.6359 41.5342 92.0404 33.7236 92.0404 23.681C92.0404 13.8857 84.6105 6.25708 75.8209 6.25708C67.0309 6.25708 59.601 13.9949 59.601 23.7483C59.601 33.7236 66.9785 41.5342 75.8209 41.5342ZM49.358 78.896H102.229C106.884 78.896 109.657 76.666 109.657 72.9628C109.657 62.6892 96.513 48.5956 75.7935 48.5956C55.1014 48.5956 41.9575 62.6892 41.9575 72.9628C41.9575 76.666 44.73 78.896 49.358 78.896Z" fill="white" fill-opacity="0.85"/>
</svg>
