<svg width="21" height="21" viewBox="0 0 21 21" fill="none" xmlns="http://www.w3.org/2000/svg">
<path d="M19.9219 10.9609C19.9219 16.4492 15.459 20.9219 9.96094 20.9219C4.47266 20.9219 0 16.4492 0 10.9609C0 5.46289 4.47266 1 9.96094 1C15.459 1 19.9219 5.46289 19.9219 10.9609ZM7.91992 5.67773C6.94336 5.67773 6.43555 6.19531 6.43555 7.17188V15.6484C6.43555 16.0586 6.65039 16.3027 6.98242 16.3027C7.24609 16.3027 7.39258 16.1465 7.86133 15.6875L9.91211 13.6758C9.94141 13.6465 9.98047 13.6465 10.0098 13.6758L12.0703 15.6875C12.5293 16.1465 12.6758 16.3027 12.9395 16.3027C13.2715 16.3027 13.4863 16.0586 13.4863 15.6484V7.17188C13.4863 6.19531 12.9785 5.67773 12.002 5.67773H7.91992Z" fill="white"/>
</svg>
