<svg width="51" height="51" viewBox="0 0 51 51" fill="none" xmlns="http://www.w3.org/2000/svg">
<g filter="url(#filter0_d_1139_1387)">
<rect x="4" width="43" height="43" rx="21.5" fill="white" fill-opacity="0.06" style="mix-blend-mode:lighten" shape-rendering="crispEdges"/>
<rect x="4" width="43" height="43" rx="21.5" fill="#5E5E5E" fill-opacity="0.4" style="mix-blend-mode:color-dodge" shape-rendering="crispEdges"/>
<rect x="4" width="43" height="43" rx="21.5" fill="url(#paint0_radial_1139_1387)" shape-rendering="crispEdges"/>
<rect x="4" width="43" height="43" rx="21.5" fill="url(#paint1_radial_1139_1387)" style="mix-blend-mode:color-dodge" shape-rendering="crispEdges"/>
<g clip-path="url(#clip0_1139_1387)">
<path d="M26.824 32.4999C27.5327 32.4999 28.0346 31.8773 28.3989 30.9134L34.8462 13.7331C35.0234 13.2713 35.1219 12.8596 35.1219 12.5182C35.1219 11.8655 34.7282 11.4639 34.0883 11.4639C33.7537 11.4639 33.3501 11.5643 32.8973 11.745L15.9667 18.3621C15.1398 18.6834 14.5 19.1955 14.5 19.9285C14.5 20.8523 15.189 21.1635 16.134 21.4547L21.4494 23.1015C22.0794 23.3023 22.4338 23.2822 22.857 22.8805L33.6552 12.5885C33.7832 12.468 33.9308 12.4881 34.0293 12.5784C34.1278 12.6788 34.1375 12.8294 34.0194 12.96L23.9693 24.0152C23.5854 24.4269 23.5559 24.7683 23.7429 25.441L25.3081 30.7427C25.6033 31.7568 25.9085 32.4999 26.824 32.4999Z" fill="white"/>
</g>
</g>
<defs>
<filter id="filter0_d_1139_1387" x="0" y="0" width="51" height="51" filterUnits="userSpaceOnUse" color-interpolation-filters="sRGB">
<feFlood flood-opacity="0" result="BackgroundImageFix"/>
<feColorMatrix in="SourceAlpha" type="matrix" values="0 0 0 0 0 0 0 0 0 0 0 0 0 0 0 0 0 0 127 0" result="hardAlpha"/>
<feOffset dy="4"/>
<feGaussianBlur stdDeviation="2"/>
<feComposite in2="hardAlpha" operator="out"/>
<feColorMatrix type="matrix" values="0 0 0 0 0 0 0 0 0 0 0 0 0 0 0 0 0 0 0.25 0"/>
<feBlend mode="normal" in2="BackgroundImageFix" result="effect1_dropShadow_1139_1387"/>
<feBlend mode="normal" in="SourceGraphic" in2="effect1_dropShadow_1139_1387" result="shape"/>
</filter>
<radialGradient id="paint0_radial_1139_1387" cx="0" cy="0" r="1" gradientUnits="userSpaceOnUse" gradientTransform="translate(25.5 43) rotate(-89.7164) scale(43.0005 43.0034)">
<stop stop-color="white" stop-opacity="0.07"/>
<stop offset="0.555884" stop-color="white" stop-opacity="0"/>
</radialGradient>
<radialGradient id="paint1_radial_1139_1387" cx="0" cy="0" r="1" gradientUnits="userSpaceOnUse" gradientTransform="translate(25.5 43) rotate(-89.7164) scale(43.0005 43.4609)">
<stop stop-color="#5E5E5E" stop-opacity="0.14"/>
<stop offset="0.738467" stop-color="#5E5E5E" stop-opacity="0"/>
</radialGradient>
<clipPath id="clip0_1139_1387">
<rect width="22" height="22" fill="white" transform="translate(14.5 10.5)"/>
</clipPath>
</defs>
</svg>
