<svg width="43" height="42" viewBox="0 0 43 42" fill="none" xmlns="http://www.w3.org/2000/svg">
<rect width="43" height="42" rx="21" fill="white" fill-opacity="0.07"/>
<rect width="43" height="42" rx="21" fill="#5E5E5E" fill-opacity="0.18" style="mix-blend-mode:color-dodge"/>
<g clip-path="url(#clip0_324_1650)">
<path d="M15.4444 29.9899H27.3971C29.427 29.9899 30.6239 28.8139 30.6239 26.6038V16.1979C30.6239 13.9877 29.4201 12.8117 27.1794 12.8117H15.4444C13.1968 12.8117 12 13.9808 12 16.1979V26.6038C12 28.8208 13.1968 29.9899 15.4444 29.9899ZM16.9473 13.2655L19.0981 13.2788C19.0981 11.9052 19.9955 10.932 21.3085 10.932C22.6213 10.932 23.5257 11.9052 23.5257 13.2788L25.6765 13.2655C25.6765 10.8433 23.8185 9 21.3085 9C18.8017 9 16.9473 10.8433 16.9473 13.2655Z" fill="white" fill-opacity="0.85"/>
</g>
<defs>
<clipPath id="clip0_324_1650">
<rect width="19" height="21" fill="white" transform="translate(12 9)"/>
</clipPath>
</defs>
</svg>
