<svg width="15" height="12" viewBox="0 0 15 12" fill="none" xmlns="http://www.w3.org/2000/svg">
<path d="M0 9.36687C0 9.7356 0.275763 9.99556 0.66449 9.99556H2.12483C3.1921 9.99556 3.81819 9.67665 4.55327 8.79551L8.37355 4.17943C8.91357 3.52745 9.34974 3.29452 10.0713 3.29452H11.3188V4.69008C11.3188 4.99209 11.493 5.17175 11.7925 5.17175C11.9329 5.17175 12.0571 5.1195 12.1603 5.03448L14.5975 2.96556C14.8276 2.77261 14.8265 2.46314 14.5975 2.25982L12.1603 0.18686C12.0571 0.102975 11.9329 0.0559082 11.7925 0.0559082C11.493 0.0559082 11.3188 0.230383 11.3188 0.532393V2.03081H10.0782C8.97344 2.03081 8.29752 2.33953 7.5049 3.30035L3.75345 7.84467C3.21621 8.49162 2.77068 8.73818 2.08208 8.73818H0.66449C0.280857 8.73818 0 8.9982 0 9.36687ZM0 2.66469C0 3.02819 0.280857 3.29452 0.66449 3.29452H2.04182C2.73664 3.29452 3.22131 3.54112 3.75345 4.18803L7.5418 8.77225C8.29529 9.67775 9.00252 9.99556 10.0749 9.99556H11.3188V11.5235C11.3188 11.8255 11.493 12 11.7925 12C11.9329 12 12.0571 11.9529 12.1603 11.8679L14.5975 9.80012C14.8276 9.60085 14.8265 9.29658 14.5975 9.09324L12.1603 7.02144C12.0571 6.93638 11.9329 6.8841 11.7925 6.8841C11.493 6.8841 11.3188 7.06381 11.3188 7.36581V8.73818H10.1048C9.37545 8.73818 8.90014 8.48936 8.36802 7.84356L4.55327 3.23203C3.81819 2.35496 3.15295 2.036 2.08569 2.036H0.66449C0.275763 2.036 0 2.29601 0 2.66469Z" fill="white" fill-opacity="0.85"/>
</svg>
