<svg width="59" height="58" viewBox="0 0 59 58" fill="none" xmlns="http://www.w3.org/2000/svg">
<rect width="58.881" height="57.0967" rx="28.5483" fill="white" fill-opacity="0.07"/>
<rect width="58.881" height="57.0967" rx="28.5483" fill="#5E5E5E" fill-opacity="0.18" style="mix-blend-mode:color-dodge"/>
<path d="M17.8799 28.5461C17.8799 29.4879 18.6578 30.2554 19.6016 30.2554H27.4753V38.0723C27.4753 39.005 28.244 39.7773 29.1927 39.7773C30.1413 39.7773 30.9235 39.005 30.9235 38.0723V30.2554H38.7881C39.7276 30.2554 40.5055 29.4879 40.5055 28.5461C40.5055 27.6043 39.7276 26.8278 38.7881 26.8278H30.9235V19.0242C30.9235 18.0872 30.1413 17.3149 29.1927 17.3149C28.244 17.3149 27.4753 18.0872 27.4753 19.0242V26.8278H19.6016C18.6578 26.8278 17.8799 27.6043 17.8799 28.5461Z" fill="white" fill-opacity="0.85"/>
</svg>
