<svg width="40" height="40" viewBox="0 0 40 40" fill="none" xmlns="http://www.w3.org/2000/svg">
<rect x="2" y="3" width="37" height="37" rx="18.5" fill="white" fill-opacity="0.06" style="mix-blend-mode:lighten"/>
<rect x="2" y="3" width="37" height="37" rx="18.5" fill="#5E5E5E" fill-opacity="0.18" style="mix-blend-mode:color-dodge"/>
<rect x="2" y="3" width="37" height="37" rx="18.5" fill="#FF0000" fill-opacity="0.6"/>
<path d="M39 21.5C39 31.6931 30.7113 40 20.5 40C10.3069 40 2 31.6931 2 21.5C2 11.2887 10.3069 3 20.5 3C30.7113 3 39 11.2887 39 21.5ZM8.22107 18.7794C8.22107 20.4843 8.92842 21.4818 10.7421 22.4068L11.4314 22.7695C12.574 23.3499 12.9367 23.6764 12.9367 24.3838C12.9367 25.0911 12.6103 25.3994 11.8667 25.3994C11.123 25.3994 10.724 25.0005 10.6152 24.13C10.5789 23.8941 10.4338 23.7671 10.2162 23.7671H8.51127C8.23922 23.7671 8.05784 23.9485 8.07596 24.2024C8.09411 26.3427 9.38186 27.6303 11.8485 27.6303C14.1701 27.6303 15.5485 26.2157 15.5485 24.1118C15.5485 22.3706 14.8593 21.5544 12.9549 20.5387L12.2475 20.1578C11.1774 19.5956 10.851 19.1603 10.851 18.5073C10.851 17.9269 11.25 17.5279 11.8485 17.5279C12.447 17.5279 12.7735 17.9269 12.9367 18.7613C12.9912 19.0152 13.1 19.1421 13.3539 19.1421H14.95C15.222 19.1421 15.3853 18.9789 15.3853 18.7068C15.3671 16.748 14.2245 15.297 11.8485 15.297C9.56323 15.297 8.22107 16.7299 8.22107 18.7794ZM16.2196 21.5C16.2196 25.5626 17.6887 27.6303 20.5 27.6303C23.275 27.6303 24.7441 25.5626 24.7441 21.5C24.7441 17.4735 23.293 15.297 20.5 15.297C17.6706 15.297 16.2196 17.4735 16.2196 21.5ZM25.5602 18.7794C25.5602 20.4843 26.2676 21.4818 28.0814 22.4068L28.7706 22.7695C29.9132 23.3681 30.2759 23.6764 30.2759 24.3838C30.2759 25.0911 29.9676 25.3994 29.2058 25.3994C28.4621 25.3994 28.0632 25.0005 27.9544 24.13C27.9181 23.8941 27.7731 23.7671 27.5372 23.7671H25.8142C25.5784 23.7671 25.3971 23.9485 25.3971 24.2024C25.4333 26.3427 26.721 27.6303 29.1878 27.6303C31.5093 27.6303 32.8878 26.2157 32.8878 24.1118C32.8878 22.3706 32.2166 21.5544 30.2941 20.5387L29.5867 20.1578C28.5166 19.5956 28.172 19.1603 28.172 18.5073C28.172 17.9269 28.5892 17.5279 29.1878 17.5279C29.7862 17.5279 30.1127 17.9269 30.2759 18.7613C30.3303 19.0152 30.4392 19.1421 30.6751 19.1421H32.2892C32.5613 19.1421 32.7245 18.9789 32.7245 18.7068C32.7063 16.748 31.5637 15.297 29.1878 15.297C26.9024 15.297 25.5602 16.7299 25.5602 18.7794ZM22.0054 21.5C22.0054 24.2206 21.5156 25.3088 20.5 25.3088C19.4299 25.3088 18.922 24.2206 18.922 21.5C18.922 18.7794 19.4299 17.6549 20.5 17.6549C21.5156 17.6549 22.0054 18.7794 22.0054 21.5Z" fill="white" fill-opacity="0.85"/>
</svg>
