<svg width="29" height="29" viewBox="0 0 29 29" fill="none" xmlns="http://www.w3.org/2000/svg">
<g clip-path="url(#clip0_1215_1217)">
<path d="M14.4999 0.000169925C6.49192 0.000169925 0 6.49204 0 14.5001C0 22.5084 6.49192 29 14.4999 29C22.5087 29 29 22.5086 29 14.5001C29 6.49249 22.5087 0.000849624 14.4997 0.000849624L14.4999 0V0.000169925ZM21.1495 20.9134C20.8898 21.3393 20.3323 21.4746 19.9063 21.2129C16.502 19.1334 12.2161 18.6625 7.16883 19.8157C6.68246 19.9264 6.19767 19.6217 6.08677 19.1351C5.97536 18.6485 6.27901 18.1637 6.76663 18.053C12.2901 16.7911 17.0279 17.3344 20.85 19.6702C21.2761 19.9316 21.4112 20.4873 21.1496 20.9134L21.1495 20.9134ZM22.9243 16.9653C22.597 17.4971 21.901 17.665 21.3694 17.3379C17.4718 14.9421 11.5308 14.2482 6.92063 15.6479C6.32274 15.8284 5.69131 15.4915 5.50994 14.8947C5.32983 14.2967 5.66695 13.6667 6.26377 13.4848C11.5297 11.887 18.0762 12.6609 22.5521 15.4114C23.0837 15.7388 23.2517 16.4348 22.9246 16.9658V16.9655L22.9243 16.9653ZM23.0768 12.854C18.4033 10.0782 10.6932 9.82313 6.23137 11.1773C5.51493 11.3946 4.75719 10.9902 4.54009 10.2735C4.32304 9.55669 4.72717 8.79956 5.44407 8.58183C10.566 7.0269 19.0805 7.32727 24.461 10.5215C25.1068 10.9041 25.3181 11.7363 24.9354 12.3799C24.5543 13.0243 23.7197 13.2369 23.0774 12.854H23.0768Z" fill="white"/>
</g>
<defs>
<clipPath id="clip0_1215_1217">
<rect width="29" height="29" fill="white"/>
</clipPath>
</defs>
</svg>
