<svg width="185" height="185" viewBox="0 0 185 185" fill="none" xmlns="http://www.w3.org/2000/svg">
<g filter="url(#filter0_d_529_7376)">
<path d="M92.4993 0.00103713C43.6231 0.00103713 4 39.6238 4 88.5005C4 137.379 43.6231 177 92.4993 177C141.381 177 181 137.38 181 88.5005C181 39.6266 141.381 0.00518564 92.4979 0.00518564L92.4993 0V0.00103713ZM133.085 127.644C131.5 130.243 128.097 131.069 125.497 129.472C104.719 116.78 78.5606 113.906 47.7546 120.944C44.7861 121.619 41.8272 119.76 41.1503 116.79C40.4703 113.82 42.3236 110.861 45.2998 110.186C79.012 102.483 107.929 105.799 131.257 120.056C133.857 121.652 134.682 125.043 133.085 127.644L133.085 127.644ZM143.917 103.547C141.92 106.793 137.672 107.817 134.427 105.821C110.638 91.1981 74.3775 86.9632 46.2397 95.506C42.5905 96.6077 38.7366 94.5515 37.6297 90.9087C36.5303 87.2594 38.5879 83.4137 42.2306 82.3037C74.371 72.5519 114.327 77.275 141.646 94.063C144.89 96.0608 145.915 100.309 143.919 103.55V103.548L143.917 103.547ZM144.848 78.4539C116.324 61.512 69.2653 59.955 42.0329 68.2198C37.6601 69.5463 33.0353 67.0783 31.7102 62.704C30.3854 58.3288 32.852 53.7077 37.2276 52.3787C68.4888 42.8883 120.457 44.7216 153.296 64.2176C157.238 66.5525 158.528 71.6316 156.192 75.5599C153.866 79.4934 148.772 80.7905 144.852 78.4539H144.848Z" fill="white"/>
</g>
<defs>
<filter id="filter0_d_529_7376" x="0" y="0" width="185" height="185" filterUnits="userSpaceOnUse" color-interpolation-filters="sRGB">
<feFlood flood-opacity="0" result="BackgroundImageFix"/>
<feColorMatrix in="SourceAlpha" type="matrix" values="0 0 0 0 0 0 0 0 0 0 0 0 0 0 0 0 0 0 127 0" result="hardAlpha"/>
<feOffset dy="4"/>
<feGaussianBlur stdDeviation="2"/>
<feComposite in2="hardAlpha" operator="out"/>
<feColorMatrix type="matrix" values="0 0 0 0 0 0 0 0 0 0 0 0 0 0 0 0 0 0 0.25 0"/>
<feBlend mode="normal" in2="BackgroundImageFix" result="effect1_dropShadow_529_7376"/>
<feBlend mode="normal" in="SourceGraphic" in2="effect1_dropShadow_529_7376" result="shape"/>
</filter>
</defs>
</svg>
