<svg width="43" height="42" viewBox="0 0 43 42" fill="none" xmlns="http://www.w3.org/2000/svg">
<rect width="43" height="42" rx="21" fill="white" fill-opacity="0.07"/>
<rect width="43" height="42" rx="21" fill="#5E5E5E" fill-opacity="0.18" style="mix-blend-mode:color-dodge"/>
<g clip-path="url(#clip0_324_1656)">
<path d="M10.5117 31.7728H12.3108C13.2686 31.7728 13.8194 31.2122 13.8194 30.2611V14.3104C13.8194 13.3495 13.2686 12.792 12.3108 12.792H10.5117C9.54414 12.792 9 13.3495 9 14.3104V30.2611C9 31.2122 9.54414 31.7728 10.5117 31.7728ZM16.5079 31.7728H20.1307C21.0952 31.7728 21.6393 31.2122 21.6393 30.2611V17.8517C21.6393 16.8974 21.0952 16.3399 20.1307 16.3399H16.5079C15.5403 16.3399 14.9895 16.8974 14.9895 17.8517V30.2611C14.9895 31.2122 15.5403 31.7728 16.5079 31.7728ZM17.3331 20.0964C16.9381 20.0964 16.6341 19.7955 16.6341 19.4102C16.6341 19.0254 16.935 18.7245 17.3331 18.7245H19.3374C19.7599 18.7245 20.02 19.0254 20.02 19.4102C20.02 19.7955 19.7258 20.0964 19.3374 20.0964H17.3331ZM17.3331 29.3949C16.935 29.3949 16.6341 29.094 16.6341 28.7056C16.6341 28.3239 16.9381 28.0199 17.3331 28.0199H19.3374C19.7258 28.0199 20.02 28.3239 20.02 28.7056C20.02 29.094 19.7258 29.3949 19.3374 29.3949H17.3331ZM24.3277 31.7728H26.4914C27.459 31.7728 28.0031 31.2122 28.0031 30.2611V11.5184C28.0031 10.5575 27.459 10 26.4914 10H24.3277C23.3602 10 22.816 10.5575 22.816 11.5184V30.2611C22.816 31.2122 23.3602 31.7728 24.3277 31.7728ZM31.1951 31.8278L32.5996 31.6436C33.5508 31.5366 34.0275 30.925 33.9303 29.9672L32.2141 14.2474C32.1138 13.2931 31.5088 12.7996 30.5475 12.9101L29.1496 13.0975C28.1917 13.2044 27.7151 13.816 27.8154 14.7641L29.5351 30.487C29.6354 31.4382 30.2404 31.9348 31.1951 31.8278Z" fill="white" fill-opacity="0.85"/>
</g>
<defs>
<clipPath id="clip0_324_1656">
<rect width="25.3014" height="22.2577" fill="white" transform="translate(9 10)"/>
</clipPath>
</defs>
</svg>
