<svg width="314" height="58" viewBox="0 0 314 58" fill="none" xmlns="http://www.w3.org/2000/svg">
<path d="M51.2002 0.700195H262.8C271.772 0.700195 278.46 0.700684 283.761 1.13379C288.722 1.53919 292.416 2.32012 295.583 3.80469L296.21 4.11133C301.915 7.01836 306.587 11.6032 309.602 17.2412L309.889 17.79C311.574 21.0974 312.434 24.9466 312.866 30.2393C313.299 35.5402 313.3 42.2278 313.3 51.2002V57.2998H0.700195V51.2002C0.700195 42.2278 0.700684 35.5402 1.13379 30.2393C1.56623 24.9466 2.42612 21.0974 4.11133 17.79C7.11216 11.9006 11.9006 7.11216 17.79 4.11133C21.0974 2.42612 24.9466 1.56623 30.2393 1.13379C35.5402 0.700684 42.2278 0.700195 51.2002 0.700195Z" fill="#FF0000" fill-opacity="0.18" style="mix-blend-mode:saturation"/>
<path d="M51.2002 0.700195H262.8C271.772 0.700195 278.46 0.700684 283.761 1.13379C288.722 1.53919 292.416 2.32012 295.583 3.80469L296.21 4.11133C301.915 7.01836 306.587 11.6032 309.602 17.2412L309.889 17.79C311.574 21.0974 312.434 24.9466 312.866 30.2393C313.299 35.5402 313.3 42.2278 313.3 51.2002V57.2998H0.700195V51.2002C0.700195 42.2278 0.700684 35.5402 1.13379 30.2393C1.56623 24.9466 2.42612 21.0974 4.11133 17.79C7.11216 11.9006 11.9006 7.11216 17.79 4.11133C21.0974 2.42612 24.9466 1.56623 30.2393 1.13379C35.5402 0.700684 42.2278 0.700195 51.2002 0.700195Z" fill="#959595" fill-opacity="0.25"/>
<path d="M51.2002 0.700195H262.8C271.772 0.700195 278.46 0.700684 283.761 1.13379C288.722 1.53919 292.416 2.32012 295.583 3.80469L296.21 4.11133C301.915 7.01836 306.587 11.6032 309.602 17.2412L309.889 17.79C311.574 21.0974 312.434 24.9466 312.866 30.2393C313.299 35.5402 313.3 42.2278 313.3 51.2002V57.2998H0.700195V51.2002C0.700195 42.2278 0.700684 35.5402 1.13379 30.2393C1.56623 24.9466 2.42612 21.0974 4.11133 17.79C7.11216 11.9006 11.9006 7.11216 17.79 4.11133C21.0974 2.42612 24.9466 1.56623 30.2393 1.13379C35.5402 0.700684 42.2278 0.700195 51.2002 0.700195Z" stroke="url(#paint0_linear_1351_1262)" stroke-width="1.4"/>
<defs>
<linearGradient id="paint0_linear_1351_1262" x1="21.9973" y1="-1.28597e-05" x2="28.0258" y2="75.1359" gradientUnits="userSpaceOnUse">
<stop stop-color="white" stop-opacity="0.4"/>
<stop offset="0.405687" stop-color="white" stop-opacity="0.01"/>
<stop offset="0.574372" stop-color="white" stop-opacity="0.01"/>
<stop offset="1" stop-color="white" stop-opacity="0.1"/>
</linearGradient>
</defs>
</svg>
