<svg width="20" height="25" viewBox="0 0 20 25" fill="none" xmlns="http://www.w3.org/2000/svg">
<g clip-path="url(#clip0_1066_5474)">
<path d="M6.7541 19.183C6.30492 19.183 6.00798 18.9025 5.98535 18.4569L5.68927 7.94093C5.6733 7.49886 5.96712 7.21169 6.43228 7.21169C6.87435 7.21169 7.18105 7.4922 7.19392 7.93116L7.50642 18.4507C7.51929 18.8927 7.2188 19.183 6.7541 19.183ZM9.76056 19.183C9.30517 19.183 8.99802 18.8989 8.99802 18.46V7.93472C8.99802 7.49575 9.30517 7.21169 9.76056 7.21169C10.2128 7.21169 10.5267 7.49575 10.5267 7.93472V18.46C10.5267 18.8989 10.2128 19.183 9.76056 19.183ZM12.7706 19.183C12.3059 19.183 12.0054 18.8927 12.0183 18.4507L12.3241 7.93782C12.3401 7.4922 12.6437 7.21169 13.0857 7.21169C13.5509 7.21169 13.8447 7.49886 13.8287 7.94093L13.5327 18.4569C13.51 18.9025 13.2131 19.183 12.7706 19.183ZM5.20949 4.51568H7.20319V2.53453C7.20319 2.06794 7.5286 1.77183 8.04001 1.77183H11.4647C11.9761 1.77183 12.3015 2.06794 12.3015 2.53453V4.51568H14.2952V2.44929C14.2952 0.89664 13.3151 0 11.6094 0H7.89533C6.18957 0 5.20949 0.89664 5.20949 2.44929V4.51568ZM0.965327 5.7938H18.5593C19.1026 5.7938 19.518 5.38058 19.518 4.83734C19.518 4.30031 19.1026 3.89375 18.5593 3.89375H0.965327C0.428748 3.89375 0 4.30031 0 4.83734C0 5.38724 0.428748 5.7938 0.965327 5.7938ZM5.26617 22.2573H14.2585C15.8289 22.2573 16.8254 21.3367 16.8969 19.7632L17.5587 5.59182H1.9593L2.62781 19.7699C2.70238 21.3434 3.68246 22.2573 5.26617 22.2573Z" fill="white" fill-opacity="0.85"/>
</g>
<defs>
<clipPath id="clip0_1066_5474">
<rect width="19.8793" height="24.1198" fill="white"/>
</clipPath>
</defs>
</svg>
