<svg width="48" height="33" viewBox="0 0 48 33" fill="none" xmlns="http://www.w3.org/2000/svg">
<path d="M3.96609 33H42.5921C43.6789 33 44.5792 32.0962 44.5792 31.0051C44.5792 29.9139 43.6789 29.0278 42.5921 29.0278H3.96609C2.87934 29.0278 1.99121 29.9139 1.99121 31.0051C1.99121 32.0962 2.87934 33 3.96609 33Z" fill="white" fill-opacity="0.85"/>
<path d="M10.7056 20.4254L41.2526 12.2339C44.8613 11.2554 47.4194 8.55877 46.4618 5.91727C45.5808 3.519 42.0446 2.82344 38.8139 3.92039L28.0125 7.63459C27.2947 7.87864 26.8069 7.85513 25.9767 7.45621L11.1401 0.420985C10.5983 0.178576 9.98624 0.125064 9.46136 0.279106L8.20731 0.665035C7.6284 0.858784 7.45804 1.55108 7.95056 2.06911L18.4183 13.2602L18.9084 10.7489L8.47846 14.3404L14.5366 14.5325L2.82102 10.3629C2.2566 10.1683 1.73984 10.2624 1.22144 10.7472L0.683646 11.2515C0.237947 11.6406 0.208883 12.2218 0.595637 12.628L6.82003 19.6502C7.70503 20.6571 9.03738 20.8752 10.7056 20.4254Z" fill="white" fill-opacity="0.85"/>
</svg>
