<svg width="27" height="19" viewBox="0 0 27 19" fill="none" xmlns="http://www.w3.org/2000/svg">
<g clip-path="url(#clip0_820_3502)">
<path d="M2.09117 18.9999H24.2806C24.9049 18.9999 25.4221 18.4796 25.4221 17.8513C25.4221 17.223 24.9049 16.7129 24.2806 16.7129H2.09117C1.46687 16.7129 0.956665 17.223 0.956665 17.8513C0.956665 18.4796 1.46687 18.9999 2.09117 18.9999Z" fill="white" fill-opacity="0.85"/>
<path d="M5.96281 11.7601L23.511 7.04386C25.5841 6.48043 27.0537 4.92785 26.5036 3.40699C25.9975 2.02617 23.9661 1.62569 22.1101 2.25727L15.9051 4.39575C15.4927 4.53626 15.2125 4.52272 14.7355 4.29304L6.21239 0.242459C5.90114 0.10289 5.54954 0.0720803 5.24802 0.160772L4.5276 0.382973C4.19504 0.494525 4.09717 0.893122 4.38011 1.19138L10.3935 7.63475L10.675 6.18883L4.68337 8.25666L8.16357 8.36727L1.43335 5.96658C1.10911 5.85456 0.812247 5.9087 0.514445 6.18784L0.205497 6.47819C-0.0505423 6.70224 -0.0672387 7.0369 0.154939 7.27074L3.73065 11.3138C4.23906 11.8936 5.00445 12.0191 5.96281 11.7601Z" fill="white" fill-opacity="0.85"/>
</g>
<defs>
<clipPath id="clip0_820_3502">
<rect width="27" height="19" fill="white"/>
</clipPath>
</defs>
</svg>
