<svg width="43" height="42" viewBox="0 0 43 42" fill="none" xmlns="http://www.w3.org/2000/svg">
<rect width="43" height="42" rx="21" fill="white" fill-opacity="0.07"/>
<rect width="43" height="42" rx="21" fill="#5E5E5E" fill-opacity="0.18" style="mix-blend-mode:color-dodge"/>
<g clip-path="url(#clip0_324_1643)">
<path d="M11.0006 30.0668H32.2332C32.8306 30.0668 33.3255 29.572 33.3255 28.9746C33.3255 28.3772 32.8306 27.8921 32.2332 27.8921H11.0006C10.4032 27.8921 9.91504 28.3772 9.91504 28.9746C9.91504 29.572 10.4032 30.0668 11.0006 30.0668Z" fill="white" fill-opacity="0.85"/>
<path d="M14.7057 23.1822L31.4972 18.6975C33.4809 18.1618 34.8871 16.6854 34.3607 15.2393C33.8764 13.9262 31.9326 13.5454 30.1567 14.146L24.2192 16.1795C23.8246 16.3131 23.5565 16.3002 23.1001 16.0818L14.9445 12.2301C14.6467 12.0974 14.3102 12.0681 14.0217 12.1525L13.3324 12.3637C13.0141 12.4698 12.9205 12.8488 13.1912 13.1325L18.9453 19.2594L19.2147 17.8845L13.4814 19.8508L16.8115 19.9559L10.3715 17.6731C10.0613 17.5666 9.77722 17.6181 9.49226 17.8835L9.19664 18.1596C8.95164 18.3727 8.93566 18.6909 9.14826 18.9133L12.5698 22.7578C13.0563 23.3091 13.7887 23.4285 14.7057 23.1822Z" fill="white" fill-opacity="0.85"/>
</g>
<defs>
<clipPath id="clip0_324_1643">
<rect width="25.8357" height="18.0669" fill="white" transform="translate(9 12)"/>
</clipPath>
</defs>
</svg>
