<svg width="20" height="20" viewBox="0 0 20 20" fill="none" xmlns="http://www.w3.org/2000/svg">
<path d="M9.99992 0.00011719C4.47719 0.00011719 0 4.47727 0 10.0001C0 15.523 4.47719 20 9.99992 20C15.5232 20 20 15.5232 20 10.0001C20 4.47758 15.5232 0.000585948 9.99977 0.000585948L9.99992 0V0.00011719ZM14.5859 14.423C14.4068 14.7167 14.0223 14.8101 13.7285 14.6296C11.3807 13.1954 8.42492 12.8707 4.94402 13.666C4.60859 13.7423 4.27426 13.5322 4.19777 13.1966C4.12094 12.861 4.33035 12.5267 4.66664 12.4504C8.47594 11.58 11.7434 11.9547 14.3793 13.5656C14.6732 13.7459 14.7663 14.1292 14.5859 14.4231L14.5859 14.423ZM15.8099 11.7002C15.5841 12.067 15.1041 12.1828 14.7375 11.9572C12.0495 10.3049 7.95227 9.82634 4.77285 10.7916C4.36051 10.9161 3.92504 10.6838 3.79996 10.2722C3.67574 9.85982 3.90824 9.42528 4.31984 9.29985C7.95152 8.19796 12.4664 8.73164 15.5532 10.6286C15.9198 10.8543 16.0356 11.3343 15.81 11.7005V11.7004L15.8099 11.7002ZM15.915 8.86484C12.692 6.95051 7.37461 6.77457 4.2975 7.70846C3.8034 7.85834 3.28082 7.57947 3.13109 7.0852C2.98141 6.59082 3.26012 6.06866 3.75453 5.9185C7.28687 4.84614 13.1589 5.05329 16.8696 7.25622C17.315 7.52005 17.4608 8.09397 17.1968 8.53785C16.934 8.98231 16.3584 9.12887 15.9155 8.86484H15.915Z" fill="white" fill-opacity="0.85"/>
</svg>
