<svg width="43" height="42" viewBox="0 0 43 42" fill="none" xmlns="http://www.w3.org/2000/svg">
<rect width="43" height="42" rx="21" fill="white" fill-opacity="0.07"/>
<rect width="43" height="42" rx="21" fill="#5E5E5E" fill-opacity="0.18" style="mix-blend-mode:color-dodge"/>
<g clip-path="url(#clip0_324_1662)">
<path d="M32.2339 25.3581L33.6296 26.7502C33.9887 27.1124 33.998 27.7107 33.6358 28.0631C33.2736 28.4253 32.666 28.4417 32.3136 28.0698L30.9175 26.6746C30.5553 26.3062 30.5491 25.7109 30.9081 25.3519C31.2703 24.9963 31.8686 24.9994 32.2339 25.3581ZM31.2517 20.7776C31.2517 22.5193 30.3368 24.0574 28.9648 24.9314C28.5606 22.0516 26.2584 19.9158 23.2342 19.5849C22.9155 19.0962 22.5472 18.6418 22.1304 18.2343C22.9927 16.8063 24.5599 15.8469 26.3343 15.8469C29.0331 15.8469 31.2517 18.0721 31.2517 20.7776ZM36.6156 20.7776C36.6156 21.2951 36.1953 21.7093 35.6813 21.7093H33.7206C33.2194 21.7093 32.7796 21.2951 32.7796 20.7776C32.7796 20.2734 33.2194 19.8397 33.7206 19.8397H35.6813C36.1953 19.8397 36.6156 20.2734 36.6156 20.7776ZM33.6234 13.4952C33.9856 13.8543 33.9856 14.4654 33.6203 14.8245L32.2282 16.2069C31.8624 16.5757 31.2579 16.5753 30.8988 16.2162C30.5366 15.854 30.5366 15.2495 30.9019 14.894L32.3074 13.5014C32.666 13.1361 33.2643 13.133 33.6234 13.4952ZM20.3684 13.4921L21.7543 14.894C22.1098 15.249 22.116 15.8576 21.7538 16.21C21.3947 16.5722 20.7964 16.5691 20.4311 16.2038L19.0488 14.8117C18.6866 14.4561 18.6871 13.8512 19.0492 13.4921C19.4083 13.1299 20.0191 13.1334 20.3684 13.4921ZM27.2629 11.4048V13.3723C27.2629 13.8765 26.839 14.3097 26.3281 14.3097C25.8172 14.3097 25.3933 13.8765 25.3933 13.3723V11.4048C25.3933 10.9006 25.8172 10.4639 26.3281 10.4639C26.839 10.4639 27.2629 10.9006 27.2629 11.4048Z" fill="white" fill-opacity="0.85"/>
<path d="M11.6791 30.8151H22.7144C25.5287 30.8151 27.6869 28.6623 27.6869 25.8605C27.6869 23.0223 25.4492 20.9037 22.4393 20.8966C21.3628 18.8634 19.3879 17.4058 16.7025 17.4058C13.3916 17.4058 10.6249 19.9262 10.3314 23.2292C8.64203 23.7081 7.51367 25.1507 7.51367 26.9707C7.51367 29.2318 9.18801 30.8151 11.6791 30.8151Z" fill="white" fill-opacity="0.85"/>
</g>
<defs>
<clipPath id="clip0_324_1662">
<rect width="30.6152" height="22.1718" fill="white" transform="translate(6 10)"/>
</clipPath>
</defs>
</svg>
