<svg width="24" height="25" viewBox="0 0 24 25" fill="none" xmlns="http://www.w3.org/2000/svg">
<g clip-path="url(#clip0_799_3730)">
<path d="M11.8269 4.5825C13.0394 4.5825 14.0378 3.56244 14.0378 2.28262C14.0378 1.02323 13.0394 0 11.8269 0C10.6076 0 9.6224 1.02323 9.6224 2.28262C9.6224 3.56244 10.6076 4.5825 11.8269 4.5825ZM9.60666 12.0627H14.0662V10.0083C14.0662 9.85434 14.277 9.79347 14.361 9.97153L17.0269 15.5988C17.2857 16.1429 17.9211 16.3749 18.448 16.0897C18.9496 15.8276 19.17 15.1609 18.9081 14.6169L15.3099 7.04997C14.8683 6.12621 14.0395 5.58439 13.0028 5.58439H10.6575C9.62063 5.58439 8.79502 6.12621 8.35028 7.04997L4.75215 14.6169C4.49021 15.1609 4.71367 15.8276 5.21524 16.0897C5.7391 16.3749 6.36792 16.1429 6.6268 15.5988L9.31188 9.97153C9.39279 9.79347 9.60666 9.84071 9.60666 10.0015V12.0627ZM7.84473 24.891C8.34936 24.9942 8.92745 24.7253 9.084 23.9854L10.0006 19.6222L11.8269 16.3099L13.6596 19.6222L14.5762 23.9854C14.7358 24.7553 15.3528 25.0141 15.864 24.8811C16.3682 24.7512 16.7766 24.2571 16.6232 23.5109L15.6908 18.9987C15.6811 18.9088 15.6655 18.8393 15.63 18.7462L14.5499 15.5642H9.12305L8.02669 18.7462C7.99476 18.8393 7.97902 18.9088 7.96284 18.9987L7.0305 23.5109C6.87089 24.2871 7.32742 24.7817 7.84473 24.891ZM2.14971 17.3359H2.68324C3.13843 17.3359 3.45632 16.9958 3.45632 16.5198V11.0939C3.45632 10.6147 3.13843 10.2878 2.68324 10.2878H2.14971C1.68839 10.2878 1.37356 10.6147 1.37356 11.0939V16.5198C1.37356 16.9958 1.68839 17.3359 2.14971 17.3359ZM20.9608 17.3359H21.5039C21.9591 17.3359 22.2704 16.9958 22.2704 16.5198V11.0939C22.2704 10.6147 21.9591 10.2878 21.5039 10.2878H20.9608C20.5056 10.2878 20.1877 10.6147 20.1877 11.0939V16.5198C20.1877 16.9958 20.5056 17.3359 20.9608 17.3359ZM0.670316 14.4997H22.9803C23.355 14.4997 23.644 14.1963 23.644 13.8134C23.644 13.4274 23.355 13.1173 22.9803 13.1173H0.670316C0.289027 13.1173 0 13.4274 0 13.8134C0 14.1963 0.289027 14.4997 0.670316 14.4997Z" fill="white" fill-opacity="0.85"/>
</g>
<defs>
<clipPath id="clip0_799_3730">
<rect width="24" height="25" fill="white"/>
</clipPath>
</defs>
</svg>
