<svg width="43" height="42" viewBox="0 0 43 42" fill="none" xmlns="http://www.w3.org/2000/svg">
<rect width="43" height="42" rx="21" fill="white" fill-opacity="0.07"/>
<rect width="43" height="42" rx="21" fill="#5E5E5E" fill-opacity="0.18" style="mix-blend-mode:color-dodge"/>
<path d="M20.1319 23.1842C19.4169 23.1842 19.0111 22.7985 19.0111 22.0952V21.4016C16.4402 21.2099 13.9169 20.6914 11 19.552V17.6977C14.2371 19.1874 17.825 19.8293 21.4984 19.8293C25.1778 19.8293 28.7629 19.1874 32 17.6977V19.552C29.0858 20.6914 26.5598 21.2099 23.9889 21.4016V22.0952C23.9889 22.7985 23.5859 23.1842 22.8681 23.1842H20.1319ZM13.9217 29H29.081C30.9996 29 32 27.9965 32 26.0609V17.3303C32 15.3948 30.9996 14.3913 29.081 14.3913H13.9217C12.0064 14.3913 11 15.3948 11 17.3303V26.0609C11 27.9965 12.0064 29 13.9217 29ZM16.8091 15.079H18.5677V13.5755C18.5677 12.9657 18.9112 12.6292 19.5237 12.6292H23.4763C24.0889 12.6292 24.4263 12.9685 24.4263 13.5755V15.0669H26.1877V13.5009C26.1877 11.8151 25.2719 11 23.5779 11H19.4105C17.7789 11 16.8091 11.8151 16.8091 13.5009V15.079Z" fill="white" fill-opacity="0.85"/>
</svg>
