<svg width="42" height="44" viewBox="0 0 42 44" fill="none" xmlns="http://www.w3.org/2000/svg">
<path d="M20.697 8.0652C22.819 8.0652 24.5661 6.2699 24.5661 4.01741C24.5661 1.80088 22.819 0 20.697 0C18.5633 0 16.8392 1.80088 16.8392 4.01741C16.8392 6.2699 18.5633 8.0652 20.697 8.0652ZM16.8117 21.2304H24.6159V17.6146C24.6159 17.3436 24.9847 17.2365 25.1318 17.5499L29.797 27.4538C30.2499 28.4115 31.362 28.8199 32.284 28.3178C33.1619 27.8566 33.5475 26.6833 33.0891 25.7258L26.7924 12.4079C26.0195 10.7821 24.5692 9.82853 22.7548 9.82853H18.6506C16.8361 9.82853 15.3913 10.7821 14.613 12.4079L8.31626 25.7258C7.85787 26.6833 8.24892 27.8566 9.12667 28.3178C10.0434 28.8199 11.1439 28.4115 11.5969 27.4538L16.2958 17.5499C16.4374 17.2365 16.8117 17.3197 16.8117 17.6026V21.2304ZM13.7283 43.8082C14.6114 43.9897 15.623 43.5165 15.897 42.2144L17.501 34.5352L20.697 28.7053L23.9042 34.5352L25.5083 42.2144C25.7876 43.5693 26.8674 44.0248 27.762 43.7907C28.6443 43.5621 29.3591 42.6925 29.0905 41.3792L27.4589 33.4378C27.442 33.2795 27.4146 33.1572 27.3525 32.9933L25.4623 27.3929H15.9653L14.0467 32.9933C13.9908 33.1572 13.9633 33.2795 13.935 33.4378L12.3034 41.3792C12.0241 42.7452 12.823 43.6157 13.7283 43.8082ZM3.76199 30.5112H4.69566C5.49226 30.5112 6.04856 29.9126 6.04856 29.0749V19.5252C6.04856 18.6819 5.49226 18.1066 4.69566 18.1066H3.76199C2.95469 18.1066 2.40373 18.6819 2.40373 19.5252V29.0749C2.40373 29.9126 2.95469 30.5112 3.76199 30.5112ZM36.6813 30.5112H37.6318C38.4285 30.5112 38.9733 29.9126 38.9733 29.0749V19.5252C38.9733 18.6819 38.4285 18.1066 37.6318 18.1066H36.6813C35.8848 18.1066 35.3285 18.6819 35.3285 19.5252V29.0749C35.3285 29.9126 35.8848 30.5112 36.6813 30.5112ZM1.17305 25.5194H40.2154C40.8713 25.5194 41.3769 24.9855 41.3769 24.3116C41.3769 23.6322 40.8713 23.0864 40.2154 23.0864H1.17305C0.505797 23.0864 0 23.6322 0 24.3116C0 24.9855 0.505797 25.5194 1.17305 25.5194Z" fill="white" fill-opacity="0.85"/>
</svg>
