<svg width="40" height="38" viewBox="0 0 40 38" fill="none" xmlns="http://www.w3.org/2000/svg">
<rect width="39.12" height="37.9346" rx="18.9673" fill="white" fill-opacity="0.07"/>
<rect width="39.12" height="37.9346" rx="18.9673" fill="#5E5E5E" fill-opacity="0.18" style="mix-blend-mode:color-dodge"/>
<g clip-path="url(#clip0_1215_1202)">
<path d="M11.8271 19.2036C11.8271 19.8293 12.344 20.3392 12.971 20.3392H18.2022V25.5327C18.2022 26.1524 18.713 26.6655 19.3433 26.6655C19.9736 26.6655 20.4932 26.1524 20.4932 25.5327V20.3392H25.7184C26.3426 20.3392 26.8594 19.8293 26.8594 19.2036C26.8594 18.5779 26.3426 18.062 25.7184 18.062H20.4932V12.8773C20.4932 12.2548 19.9736 11.7417 19.3433 11.7417C18.713 11.7417 18.2022 12.2548 18.2022 12.8773V18.062H12.971C12.344 18.062 11.8271 18.5779 11.8271 19.2036Z" fill="white" fill-opacity="0.85"/>
</g>
<defs>
<clipPath id="clip0_1215_1202">
<rect width="15.361" height="14.927" fill="white" transform="translate(11.8271 11.7417)"/>
</clipPath>
</defs>
</svg>
